%TF.GenerationSoftware,KiCad,Pcbnew,9.0.8-9.0.8~ubuntu24.04.1*%
%TF.CreationDate,2026-04-17T12:05:57+07:00*%
%TF.ProjectId,yohub,796f6875-622e-46b6-9963-61645f706362,rev?*%
%TF.SameCoordinates,Original*%
%TF.FileFunction,Legend,Top*%
%TF.FilePolarity,Positive*%
%FSLAX46Y46*%
G04 Gerber Fmt 4.6, Leading zero omitted, Abs format (unit mm)*
G04 Created by KiCad (PCBNEW 9.0.8-9.0.8~ubuntu24.04.1) date 2026-04-17 12:05:57*
%MOMM*%
%LPD*%
G01*
G04 APERTURE LIST*
%ADD10C,0.100000*%
%ADD11C,0.200000*%
%ADD12C,0.150000*%
%ADD13C,0.120000*%
%ADD14C,0.152400*%
%ADD15C,0.050800*%
%ADD16C,0.000000*%
G04 APERTURE END LIST*
D10*
X222050764Y-68062665D02*
X221860288Y-68253141D01*
X222098383Y-67967427D02*
X222098383Y-68872189D01*
X222193621Y-67729331D02*
X222003145Y-68110284D01*
X222479335Y-67776950D02*
X222336478Y-68205522D01*
X222479335Y-68300760D02*
X222288859Y-68681712D01*
X222526954Y-68872189D02*
X222717430Y-68872189D01*
X222717430Y-68015046D02*
X222717430Y-68872189D01*
X222907907Y-68300760D02*
X223098383Y-68681712D01*
X222384097Y-68015046D02*
X223098383Y-68015046D01*
X223098383Y-68015046D02*
X223050764Y-68205522D01*
X223526954Y-67729331D02*
X223384097Y-68538855D01*
X223860287Y-68253141D02*
X224574573Y-68253141D01*
X223384097Y-68443617D02*
X223622192Y-68538855D01*
X223622192Y-68538855D02*
X223765049Y-68681712D01*
X223907906Y-67824570D02*
X224526954Y-67824570D01*
X224526954Y-67824570D02*
X224241240Y-68062665D01*
X224193620Y-68062665D02*
X224241240Y-68872189D01*
X224241240Y-68872189D02*
X223955525Y-68872189D01*
X223336478Y-68015046D02*
X223765049Y-68015046D01*
X223765049Y-68015046D02*
X223717430Y-68348379D01*
X223717430Y-68348379D02*
X223574573Y-68681712D01*
X223574573Y-68681712D02*
X223384097Y-68872189D01*
D11*
G36*
X240052010Y-105617021D02*
G01*
X240052010Y-106324146D01*
X240232409Y-106324146D01*
X240232409Y-105617021D01*
X240052010Y-105617021D01*
G37*
G36*
X240227509Y-106499645D02*
G01*
X241110516Y-106499645D01*
X241110516Y-106319245D01*
X240227509Y-106319245D01*
X240227509Y-106499645D01*
G37*
G36*
X240227509Y-105621921D02*
G01*
X240752780Y-105621921D01*
X240752780Y-105792519D01*
X240402625Y-105792519D01*
X240402625Y-106148570D01*
X240933179Y-106148570D01*
X240933179Y-105441445D01*
X240227509Y-105441445D01*
X240227509Y-105621921D01*
G37*
G36*
X241286015Y-106324146D02*
G01*
X241286015Y-105617021D01*
X241105615Y-105617021D01*
X241105615Y-106324146D01*
X241286015Y-106324146D01*
G37*
G36*
X240403927Y-104563722D02*
G01*
X240403927Y-105095348D01*
X240584402Y-105095348D01*
X240584402Y-104563722D01*
X240403927Y-104563722D01*
G37*
G36*
X240578047Y-105270847D02*
G01*
X241109597Y-105270847D01*
X241109597Y-105090448D01*
X240578047Y-105090448D01*
X240578047Y-105270847D01*
G37*
G36*
X240760820Y-104388223D02*
G01*
X240580344Y-104388223D01*
X240580344Y-104568622D01*
X240760820Y-104568622D01*
X240760820Y-104388223D01*
G37*
G36*
X240929198Y-104388223D02*
G01*
X240929198Y-104568622D01*
X241109597Y-104568622D01*
X241109597Y-104388223D01*
X240929198Y-104388223D01*
G37*
G36*
X241286015Y-105095348D02*
G01*
X241286015Y-104563722D01*
X241105615Y-104563722D01*
X241105615Y-105095348D01*
X241286015Y-105095348D01*
G37*
G36*
X240584402Y-104042968D02*
G01*
X240584402Y-103511342D01*
X240403927Y-103511342D01*
X240403927Y-104042968D01*
X240584402Y-104042968D01*
G37*
G36*
X241109597Y-104038068D02*
G01*
X240578047Y-104038068D01*
X240578047Y-104218467D01*
X241109597Y-104218467D01*
X241109597Y-104038068D01*
G37*
G36*
X240578047Y-103516242D02*
G01*
X241109597Y-103516242D01*
X241109597Y-103335843D01*
X240578047Y-103335843D01*
X240578047Y-103516242D01*
G37*
G36*
X241105615Y-103511342D02*
G01*
X241105615Y-104042968D01*
X241286015Y-104042968D01*
X241286015Y-103511342D01*
X241105615Y-103511342D01*
G37*
G36*
X240052853Y-102463863D02*
G01*
X240580344Y-102463863D01*
X240580344Y-102639438D01*
X240760820Y-102639438D01*
X240760820Y-102463863D01*
X241105615Y-102463863D01*
X241105615Y-102990588D01*
X241286015Y-102990588D01*
X241286015Y-102283463D01*
X240053695Y-102283463D01*
X240052853Y-102463863D01*
G37*
G36*
X240584402Y-102634537D02*
G01*
X240403927Y-102634537D01*
X240403927Y-102990588D01*
X240584402Y-102990588D01*
X240584402Y-102634537D01*
G37*
G36*
X241109597Y-102985688D02*
G01*
X240578047Y-102985688D01*
X240578047Y-103166087D01*
X241109597Y-103166087D01*
X241109597Y-102985688D01*
G37*
G36*
X240052010Y-102113707D02*
G01*
X240232409Y-102113707D01*
X240232409Y-101933308D01*
X240052010Y-101933308D01*
X240052010Y-102113707D01*
G37*
G36*
X240403084Y-102113707D02*
G01*
X241285785Y-102113707D01*
X241285785Y-101933308D01*
X240403084Y-101933308D01*
X240403084Y-102113707D01*
G37*
G36*
X240403927Y-101056197D02*
G01*
X240403927Y-101763322D01*
X241286627Y-101763322D01*
X241286627Y-101582923D01*
X240584402Y-101582923D01*
X240584402Y-101056197D01*
X240403927Y-101056197D01*
G37*
G36*
X240579502Y-101061098D02*
G01*
X241286627Y-101061098D01*
X241286627Y-100880698D01*
X240579502Y-100880698D01*
X240579502Y-101061098D01*
G37*
G36*
X240403927Y-99828319D02*
G01*
X240403927Y-100535444D01*
X240584402Y-100535444D01*
X240584402Y-100008718D01*
X240929198Y-100008718D01*
X240929198Y-100535444D01*
X241109597Y-100535444D01*
X241109597Y-100008718D01*
X241286015Y-100008718D01*
X241286015Y-99828319D01*
X240403927Y-99828319D01*
G37*
G36*
X240580344Y-100530543D02*
G01*
X240580344Y-100710942D01*
X240936395Y-100710942D01*
X240936395Y-100530543D01*
X240580344Y-100530543D01*
G37*
G36*
X241281114Y-100003817D02*
G01*
X241281114Y-100710942D01*
X241461590Y-100710942D01*
X241461590Y-100003817D01*
X241281114Y-100003817D01*
G37*
G36*
X240232409Y-99483064D02*
G01*
X240232409Y-98775939D01*
X240052010Y-98775939D01*
X240052010Y-99483064D01*
X240232409Y-99483064D01*
G37*
G36*
X240227509Y-99658563D02*
G01*
X240407985Y-99658563D01*
X240407985Y-99478163D01*
X240227509Y-99478163D01*
X240227509Y-99658563D01*
G37*
G36*
X240584402Y-99483064D02*
G01*
X240584402Y-98951437D01*
X240403927Y-98951437D01*
X240403927Y-99483064D01*
X240584402Y-99483064D01*
G37*
G36*
X240578047Y-98956338D02*
G01*
X241109597Y-98956338D01*
X241109597Y-98775939D01*
X240578047Y-98775939D01*
X240578047Y-98956338D01*
G37*
G36*
X240929198Y-99658563D02*
G01*
X241109597Y-99658563D01*
X241109597Y-99478163D01*
X240929198Y-99478163D01*
X240929198Y-99658563D01*
G37*
G36*
X241105615Y-98951437D02*
G01*
X241105615Y-99483064D01*
X241286015Y-99483064D01*
X241286015Y-98951437D01*
X241105615Y-98951437D01*
G37*
G36*
X240580344Y-98425783D02*
G01*
X240053695Y-98425783D01*
X240053695Y-98606183D01*
X241287546Y-98606183D01*
X241287546Y-98425783D01*
X240760820Y-98425783D01*
X240760820Y-98250208D01*
X240580344Y-98250208D01*
X240580344Y-98425783D01*
G37*
G36*
X240403927Y-97899057D02*
G01*
X240403927Y-98255109D01*
X240584402Y-98255109D01*
X240584402Y-97899057D01*
X240403927Y-97899057D01*
G37*
G36*
X240579502Y-97903958D02*
G01*
X241286627Y-97903958D01*
X241286627Y-97723559D01*
X240579502Y-97723559D01*
X240579502Y-97903958D01*
G37*
G36*
X240403927Y-96846678D02*
G01*
X240403927Y-97378304D01*
X240584402Y-97378304D01*
X240584402Y-96846678D01*
X240403927Y-96846678D01*
G37*
G36*
X240579502Y-96851578D02*
G01*
X240752780Y-96851578D01*
X240752780Y-97378304D01*
X240933179Y-97378304D01*
X240933179Y-96851578D01*
X241105615Y-96851578D01*
X241105615Y-97378304D01*
X241286015Y-97378304D01*
X241286015Y-96671179D01*
X240579502Y-96671179D01*
X240579502Y-96851578D01*
G37*
G36*
X240929198Y-97553803D02*
G01*
X241109597Y-97553803D01*
X241109597Y-97373404D01*
X240929198Y-97373404D01*
X240929198Y-97553803D01*
G37*
G36*
X240403927Y-96321024D02*
G01*
X240403927Y-96501423D01*
X241286627Y-96501423D01*
X241286627Y-96321024D01*
X240760820Y-96321024D01*
X240760820Y-96145448D01*
X240580344Y-96145448D01*
X240580344Y-96321024D01*
X240403927Y-96321024D01*
G37*
G36*
X240403927Y-95794298D02*
G01*
X240403927Y-96150349D01*
X240584402Y-96150349D01*
X240584402Y-95794298D01*
X240403927Y-95794298D01*
G37*
G36*
X240580344Y-95799198D02*
G01*
X240760820Y-95799198D01*
X240760820Y-95618799D01*
X240580344Y-95618799D01*
X240580344Y-95799198D01*
G37*
G36*
X240752780Y-95268644D02*
G01*
X240052853Y-95268644D01*
X240052853Y-95449043D01*
X241286015Y-95449043D01*
X241286015Y-95268644D01*
X240933179Y-95268644D01*
X240933179Y-95093068D01*
X240752780Y-95093068D01*
X240752780Y-95268644D01*
G37*
G36*
X240403927Y-94741918D02*
G01*
X240403927Y-94922394D01*
X240584402Y-94922394D01*
X240584402Y-94741918D01*
X240403927Y-94741918D01*
G37*
G36*
X240580344Y-94917493D02*
G01*
X240580344Y-95097969D01*
X240760820Y-95097969D01*
X240760820Y-94917493D01*
X240580344Y-94917493D01*
G37*
G36*
X241109597Y-94917493D02*
G01*
X240929198Y-94917493D01*
X240929198Y-95097969D01*
X241109597Y-95097969D01*
X241109597Y-94917493D01*
G37*
G36*
X241286015Y-94741918D02*
G01*
X241105615Y-94741918D01*
X241105615Y-94922394D01*
X241286015Y-94922394D01*
X241286015Y-94741918D01*
G37*
D10*
G36*
X206399312Y-122473027D02*
G01*
X206399312Y-122719621D01*
X206645905Y-122719621D01*
X206645905Y-122473027D01*
X206399312Y-122473027D01*
G37*
G36*
X207386010Y-122473027D02*
G01*
X207386010Y-122719621D01*
X207632604Y-122719621D01*
X207632604Y-122473027D01*
X207386010Y-122473027D01*
G37*
G36*
X206645905Y-122719621D02*
G01*
X206645905Y-122966323D01*
X206892607Y-122966323D01*
X206892607Y-122719621D01*
X206645905Y-122719621D01*
G37*
G36*
X207139308Y-122966323D02*
G01*
X207386010Y-122966323D01*
X207386010Y-122719621D01*
X207139308Y-122719621D01*
X207139308Y-122966323D01*
G37*
G36*
X206892607Y-122966323D02*
G01*
X206892607Y-124199723D01*
X207139308Y-124199723D01*
X207139308Y-122966323D01*
X206892607Y-122966323D01*
G37*
G36*
X208124608Y-122719621D02*
G01*
X208864713Y-122719621D01*
X208864713Y-122473027D01*
X208124608Y-122473027D01*
X208124608Y-122719621D01*
G37*
G36*
X208124608Y-123953452D02*
G01*
X208124608Y-122719621D01*
X207878014Y-122719621D01*
X207878014Y-123953452D01*
X208124608Y-123953452D01*
G37*
G36*
X208864713Y-122719621D02*
G01*
X208864713Y-123953452D01*
X209111307Y-123953452D01*
X209111307Y-122719621D01*
X208864713Y-122719621D01*
G37*
G36*
X208864713Y-123953452D02*
G01*
X208124608Y-123953452D01*
X208124608Y-124200046D01*
X208864713Y-124200046D01*
X208864713Y-123953452D01*
G37*
G36*
X210343416Y-122474211D02*
G01*
X210343416Y-122967506D01*
X209603311Y-122967506D01*
X209603311Y-122474211D01*
X209356717Y-122474211D01*
X209356717Y-124200906D01*
X209603311Y-124200906D01*
X209603311Y-123214208D01*
X210343416Y-123214208D01*
X210343416Y-124200906D01*
X210590010Y-124200906D01*
X210590010Y-122474211D01*
X210343416Y-122474211D01*
G37*
G36*
X211082014Y-123953452D02*
G01*
X211082014Y-122473350D01*
X210835420Y-122473350D01*
X210835420Y-123953452D01*
X211082014Y-123953452D01*
G37*
G36*
X211822119Y-122473350D02*
G01*
X211822119Y-123953452D01*
X212068712Y-123953452D01*
X212068712Y-122473350D01*
X211822119Y-122473350D01*
G37*
G36*
X211822119Y-123953452D02*
G01*
X211082014Y-123953452D01*
X211082014Y-124200046D01*
X211822119Y-124200046D01*
X211822119Y-123953452D01*
G37*
G36*
X213300821Y-122967506D02*
G01*
X212560717Y-122967506D01*
X212560717Y-122719621D01*
X213300821Y-122719621D01*
X213300821Y-122473027D01*
X212314123Y-122473027D01*
X212314123Y-124200046D01*
X213300821Y-124200046D01*
X213300821Y-123953452D01*
X212560717Y-123953452D01*
X212560717Y-123214208D01*
X213300821Y-123214208D01*
X213300821Y-122967506D01*
G37*
G36*
X213547415Y-122966323D02*
G01*
X213547415Y-122719621D01*
X213300821Y-122719621D01*
X213300821Y-122966323D01*
X213547415Y-122966323D01*
G37*
G36*
X213300821Y-123212164D02*
G01*
X213300821Y-123952161D01*
X213547415Y-123952161D01*
X213547415Y-123212164D01*
X213300821Y-123212164D01*
G37*
G36*
X213792826Y-123706750D02*
G01*
X213792826Y-124200046D01*
X214039420Y-124200046D01*
X214039420Y-123706750D01*
X213792826Y-123706750D01*
G37*
G36*
X214531747Y-122719621D02*
G01*
X215271851Y-122719621D01*
X215271851Y-122473027D01*
X214531747Y-122473027D01*
X214531747Y-122719621D01*
G37*
G36*
X214778448Y-123704276D02*
G01*
X214778448Y-123457682D01*
X214531747Y-123457682D01*
X214531747Y-122719621D01*
X214285153Y-122719621D01*
X214285153Y-123953452D01*
X214531747Y-123953452D01*
X214531747Y-123704276D01*
X214778448Y-123704276D01*
G37*
G36*
X215271851Y-122719621D02*
G01*
X215271851Y-122967506D01*
X215025150Y-122967506D01*
X215025150Y-123214208D01*
X215271851Y-123214208D01*
X215271851Y-123953452D01*
X215518445Y-123953452D01*
X215518445Y-122719621D01*
X215271851Y-122719621D01*
G37*
G36*
X214778448Y-123462093D02*
G01*
X215025150Y-123462093D01*
X215025150Y-123215391D01*
X214778448Y-123215391D01*
X214778448Y-123462093D01*
G37*
G36*
X215271851Y-123953452D02*
G01*
X214531747Y-123953452D01*
X214531747Y-124200046D01*
X215271851Y-124200046D01*
X215271851Y-123953452D01*
G37*
G36*
X215763856Y-123706750D02*
G01*
X215763856Y-124200046D01*
X216010450Y-124200046D01*
X216010450Y-123706750D01*
X215763856Y-123706750D01*
G37*
G36*
X217489475Y-123953452D02*
G01*
X216996180Y-123953452D01*
X216996180Y-122473027D01*
X216749478Y-122473027D01*
X216749478Y-122719621D01*
X216502777Y-122719621D01*
X216502777Y-122966323D01*
X216749478Y-122966323D01*
X216749478Y-123953452D01*
X216256183Y-123953452D01*
X216256183Y-124200046D01*
X217489475Y-124200046D01*
X217489475Y-123953452D01*
G37*
G36*
X217734886Y-123706750D02*
G01*
X217734886Y-124200046D01*
X217981480Y-124200046D01*
X217981480Y-123706750D01*
X217734886Y-123706750D01*
G37*
G36*
X218473807Y-122719621D02*
G01*
X219213911Y-122719621D01*
X219213911Y-122473027D01*
X218473807Y-122473027D01*
X218473807Y-122719621D01*
G37*
G36*
X218720508Y-123704276D02*
G01*
X218720508Y-123457682D01*
X218473807Y-123457682D01*
X218473807Y-122719621D01*
X218227213Y-122719621D01*
X218227213Y-123953452D01*
X218473807Y-123953452D01*
X218473807Y-123704276D01*
X218720508Y-123704276D01*
G37*
G36*
X219213911Y-122719621D02*
G01*
X219213911Y-122967506D01*
X218967210Y-122967506D01*
X218967210Y-123214208D01*
X219213911Y-123214208D01*
X219213911Y-123953452D01*
X219460505Y-123953452D01*
X219460505Y-122719621D01*
X219213911Y-122719621D01*
G37*
G36*
X218720508Y-123462093D02*
G01*
X218967210Y-123462093D01*
X218967210Y-123215391D01*
X218720508Y-123215391D01*
X218720508Y-123462093D01*
G37*
G36*
X219213911Y-123953452D02*
G01*
X218473807Y-123953452D01*
X218473807Y-124200046D01*
X219213911Y-124200046D01*
X219213911Y-123953452D01*
G37*
D12*
X223032589Y-109029213D02*
X222984970Y-109076833D01*
X222984970Y-109076833D02*
X222842113Y-109124452D01*
X222842113Y-109124452D02*
X222746875Y-109124452D01*
X222746875Y-109124452D02*
X222604018Y-109076833D01*
X222604018Y-109076833D02*
X222508780Y-108981594D01*
X222508780Y-108981594D02*
X222461161Y-108886356D01*
X222461161Y-108886356D02*
X222413542Y-108695880D01*
X222413542Y-108695880D02*
X222413542Y-108553023D01*
X222413542Y-108553023D02*
X222461161Y-108362547D01*
X222461161Y-108362547D02*
X222508780Y-108267309D01*
X222508780Y-108267309D02*
X222604018Y-108172071D01*
X222604018Y-108172071D02*
X222746875Y-108124452D01*
X222746875Y-108124452D02*
X222842113Y-108124452D01*
X222842113Y-108124452D02*
X222984970Y-108172071D01*
X222984970Y-108172071D02*
X223032589Y-108219690D01*
X223413542Y-108219690D02*
X223461161Y-108172071D01*
X223461161Y-108172071D02*
X223556399Y-108124452D01*
X223556399Y-108124452D02*
X223794494Y-108124452D01*
X223794494Y-108124452D02*
X223889732Y-108172071D01*
X223889732Y-108172071D02*
X223937351Y-108219690D01*
X223937351Y-108219690D02*
X223984970Y-108314928D01*
X223984970Y-108314928D02*
X223984970Y-108410166D01*
X223984970Y-108410166D02*
X223937351Y-108553023D01*
X223937351Y-108553023D02*
X223365923Y-109124452D01*
X223365923Y-109124452D02*
X223984970Y-109124452D01*
X239758782Y-74442611D02*
X239806402Y-74490230D01*
X239806402Y-74490230D02*
X239854021Y-74633087D01*
X239854021Y-74633087D02*
X239854021Y-74728325D01*
X239854021Y-74728325D02*
X239806402Y-74871182D01*
X239806402Y-74871182D02*
X239711163Y-74966420D01*
X239711163Y-74966420D02*
X239615925Y-75014039D01*
X239615925Y-75014039D02*
X239425449Y-75061658D01*
X239425449Y-75061658D02*
X239282592Y-75061658D01*
X239282592Y-75061658D02*
X239092116Y-75014039D01*
X239092116Y-75014039D02*
X238996878Y-74966420D01*
X238996878Y-74966420D02*
X238901640Y-74871182D01*
X238901640Y-74871182D02*
X238854021Y-74728325D01*
X238854021Y-74728325D02*
X238854021Y-74633087D01*
X238854021Y-74633087D02*
X238901640Y-74490230D01*
X238901640Y-74490230D02*
X238949259Y-74442611D01*
X238854021Y-74109277D02*
X238854021Y-73442611D01*
X238854021Y-73442611D02*
X239854021Y-73871182D01*
X222132592Y-90629271D02*
X222084973Y-90676891D01*
X222084973Y-90676891D02*
X221942116Y-90724510D01*
X221942116Y-90724510D02*
X221846878Y-90724510D01*
X221846878Y-90724510D02*
X221704021Y-90676891D01*
X221704021Y-90676891D02*
X221608783Y-90581652D01*
X221608783Y-90581652D02*
X221561164Y-90486414D01*
X221561164Y-90486414D02*
X221513545Y-90295938D01*
X221513545Y-90295938D02*
X221513545Y-90153081D01*
X221513545Y-90153081D02*
X221561164Y-89962605D01*
X221561164Y-89962605D02*
X221608783Y-89867367D01*
X221608783Y-89867367D02*
X221704021Y-89772129D01*
X221704021Y-89772129D02*
X221846878Y-89724510D01*
X221846878Y-89724510D02*
X221942116Y-89724510D01*
X221942116Y-89724510D02*
X222084973Y-89772129D01*
X222084973Y-89772129D02*
X222132592Y-89819748D01*
X223037354Y-89724510D02*
X222561164Y-89724510D01*
X222561164Y-89724510D02*
X222513545Y-90200700D01*
X222513545Y-90200700D02*
X222561164Y-90153081D01*
X222561164Y-90153081D02*
X222656402Y-90105462D01*
X222656402Y-90105462D02*
X222894497Y-90105462D01*
X222894497Y-90105462D02*
X222989735Y-90153081D01*
X222989735Y-90153081D02*
X223037354Y-90200700D01*
X223037354Y-90200700D02*
X223084973Y-90295938D01*
X223084973Y-90295938D02*
X223084973Y-90534033D01*
X223084973Y-90534033D02*
X223037354Y-90629271D01*
X223037354Y-90629271D02*
X222989735Y-90676891D01*
X222989735Y-90676891D02*
X222894497Y-90724510D01*
X222894497Y-90724510D02*
X222656402Y-90724510D01*
X222656402Y-90724510D02*
X222561164Y-90676891D01*
X222561164Y-90676891D02*
X222513545Y-90629271D01*
X237437301Y-85327943D02*
X237437301Y-86137466D01*
X237437301Y-86137466D02*
X237484920Y-86232704D01*
X237484920Y-86232704D02*
X237532539Y-86280324D01*
X237532539Y-86280324D02*
X237627777Y-86327943D01*
X237627777Y-86327943D02*
X237818253Y-86327943D01*
X237818253Y-86327943D02*
X237913491Y-86280324D01*
X237913491Y-86280324D02*
X237961110Y-86232704D01*
X237961110Y-86232704D02*
X238008729Y-86137466D01*
X238008729Y-86137466D02*
X238008729Y-85327943D01*
X239008729Y-86327943D02*
X238437301Y-86327943D01*
X238723015Y-86327943D02*
X238723015Y-85327943D01*
X238723015Y-85327943D02*
X238627777Y-85470800D01*
X238627777Y-85470800D02*
X238532539Y-85566038D01*
X238532539Y-85566038D02*
X238437301Y-85613657D01*
X231958808Y-74442611D02*
X232006428Y-74490230D01*
X232006428Y-74490230D02*
X232054047Y-74633087D01*
X232054047Y-74633087D02*
X232054047Y-74728325D01*
X232054047Y-74728325D02*
X232006428Y-74871182D01*
X232006428Y-74871182D02*
X231911189Y-74966420D01*
X231911189Y-74966420D02*
X231815951Y-75014039D01*
X231815951Y-75014039D02*
X231625475Y-75061658D01*
X231625475Y-75061658D02*
X231482618Y-75061658D01*
X231482618Y-75061658D02*
X231292142Y-75014039D01*
X231292142Y-75014039D02*
X231196904Y-74966420D01*
X231196904Y-74966420D02*
X231101666Y-74871182D01*
X231101666Y-74871182D02*
X231054047Y-74728325D01*
X231054047Y-74728325D02*
X231054047Y-74633087D01*
X231054047Y-74633087D02*
X231101666Y-74490230D01*
X231101666Y-74490230D02*
X231149285Y-74442611D01*
X232054047Y-73490230D02*
X232054047Y-74061658D01*
X232054047Y-73775944D02*
X231054047Y-73775944D01*
X231054047Y-73775944D02*
X231196904Y-73871182D01*
X231196904Y-73871182D02*
X231292142Y-73966420D01*
X231292142Y-73966420D02*
X231339761Y-74061658D01*
X231054047Y-72871182D02*
X231054047Y-72775944D01*
X231054047Y-72775944D02*
X231101666Y-72680706D01*
X231101666Y-72680706D02*
X231149285Y-72633087D01*
X231149285Y-72633087D02*
X231244523Y-72585468D01*
X231244523Y-72585468D02*
X231434999Y-72537849D01*
X231434999Y-72537849D02*
X231673094Y-72537849D01*
X231673094Y-72537849D02*
X231863570Y-72585468D01*
X231863570Y-72585468D02*
X231958808Y-72633087D01*
X231958808Y-72633087D02*
X232006428Y-72680706D01*
X232006428Y-72680706D02*
X232054047Y-72775944D01*
X232054047Y-72775944D02*
X232054047Y-72871182D01*
X232054047Y-72871182D02*
X232006428Y-72966420D01*
X232006428Y-72966420D02*
X231958808Y-73014039D01*
X231958808Y-73014039D02*
X231863570Y-73061658D01*
X231863570Y-73061658D02*
X231673094Y-73109277D01*
X231673094Y-73109277D02*
X231434999Y-73109277D01*
X231434999Y-73109277D02*
X231244523Y-73061658D01*
X231244523Y-73061658D02*
X231149285Y-73014039D01*
X231149285Y-73014039D02*
X231101666Y-72966420D01*
X231101666Y-72966420D02*
X231054047Y-72871182D01*
X240354016Y-63933121D02*
X241068301Y-63933121D01*
X241068301Y-63933121D02*
X241211158Y-63980740D01*
X241211158Y-63980740D02*
X241306397Y-64075978D01*
X241306397Y-64075978D02*
X241354016Y-64218835D01*
X241354016Y-64218835D02*
X241354016Y-64314073D01*
X241354016Y-62933121D02*
X241354016Y-63504549D01*
X241354016Y-63218835D02*
X240354016Y-63218835D01*
X240354016Y-63218835D02*
X240496873Y-63314073D01*
X240496873Y-63314073D02*
X240592111Y-63409311D01*
X240592111Y-63409311D02*
X240639730Y-63504549D01*
X231658809Y-115703778D02*
X231706429Y-115751397D01*
X231706429Y-115751397D02*
X231754048Y-115894254D01*
X231754048Y-115894254D02*
X231754048Y-115989492D01*
X231754048Y-115989492D02*
X231706429Y-116132349D01*
X231706429Y-116132349D02*
X231611190Y-116227587D01*
X231611190Y-116227587D02*
X231515952Y-116275206D01*
X231515952Y-116275206D02*
X231325476Y-116322825D01*
X231325476Y-116322825D02*
X231182619Y-116322825D01*
X231182619Y-116322825D02*
X230992143Y-116275206D01*
X230992143Y-116275206D02*
X230896905Y-116227587D01*
X230896905Y-116227587D02*
X230801667Y-116132349D01*
X230801667Y-116132349D02*
X230754048Y-115989492D01*
X230754048Y-115989492D02*
X230754048Y-115894254D01*
X230754048Y-115894254D02*
X230801667Y-115751397D01*
X230801667Y-115751397D02*
X230849286Y-115703778D01*
X230754048Y-115370444D02*
X230754048Y-114751397D01*
X230754048Y-114751397D02*
X231135000Y-115084730D01*
X231135000Y-115084730D02*
X231135000Y-114941873D01*
X231135000Y-114941873D02*
X231182619Y-114846635D01*
X231182619Y-114846635D02*
X231230238Y-114799016D01*
X231230238Y-114799016D02*
X231325476Y-114751397D01*
X231325476Y-114751397D02*
X231563571Y-114751397D01*
X231563571Y-114751397D02*
X231658809Y-114799016D01*
X231658809Y-114799016D02*
X231706429Y-114846635D01*
X231706429Y-114846635D02*
X231754048Y-114941873D01*
X231754048Y-114941873D02*
X231754048Y-115227587D01*
X231754048Y-115227587D02*
X231706429Y-115322825D01*
X231706429Y-115322825D02*
X231658809Y-115370444D01*
X228732570Y-66454599D02*
X228399237Y-65978408D01*
X228161142Y-66454599D02*
X228161142Y-65454599D01*
X228161142Y-65454599D02*
X228542094Y-65454599D01*
X228542094Y-65454599D02*
X228637332Y-65502218D01*
X228637332Y-65502218D02*
X228684951Y-65549837D01*
X228684951Y-65549837D02*
X228732570Y-65645075D01*
X228732570Y-65645075D02*
X228732570Y-65787932D01*
X228732570Y-65787932D02*
X228684951Y-65883170D01*
X228684951Y-65883170D02*
X228637332Y-65930789D01*
X228637332Y-65930789D02*
X228542094Y-65978408D01*
X228542094Y-65978408D02*
X228161142Y-65978408D01*
X229113523Y-65549837D02*
X229161142Y-65502218D01*
X229161142Y-65502218D02*
X229256380Y-65454599D01*
X229256380Y-65454599D02*
X229494475Y-65454599D01*
X229494475Y-65454599D02*
X229589713Y-65502218D01*
X229589713Y-65502218D02*
X229637332Y-65549837D01*
X229637332Y-65549837D02*
X229684951Y-65645075D01*
X229684951Y-65645075D02*
X229684951Y-65740313D01*
X229684951Y-65740313D02*
X229637332Y-65883170D01*
X229637332Y-65883170D02*
X229065904Y-66454599D01*
X229065904Y-66454599D02*
X229684951Y-66454599D01*
X222192571Y-75659329D02*
X222144952Y-75706949D01*
X222144952Y-75706949D02*
X222002095Y-75754568D01*
X222002095Y-75754568D02*
X221906857Y-75754568D01*
X221906857Y-75754568D02*
X221764000Y-75706949D01*
X221764000Y-75706949D02*
X221668762Y-75611710D01*
X221668762Y-75611710D02*
X221621143Y-75516472D01*
X221621143Y-75516472D02*
X221573524Y-75325996D01*
X221573524Y-75325996D02*
X221573524Y-75183139D01*
X221573524Y-75183139D02*
X221621143Y-74992663D01*
X221621143Y-74992663D02*
X221668762Y-74897425D01*
X221668762Y-74897425D02*
X221764000Y-74802187D01*
X221764000Y-74802187D02*
X221906857Y-74754568D01*
X221906857Y-74754568D02*
X222002095Y-74754568D01*
X222002095Y-74754568D02*
X222144952Y-74802187D01*
X222144952Y-74802187D02*
X222192571Y-74849806D01*
X223049714Y-75087901D02*
X223049714Y-75754568D01*
X222811619Y-74706949D02*
X222573524Y-75421234D01*
X222573524Y-75421234D02*
X223192571Y-75421234D01*
X238258787Y-74566418D02*
X238306407Y-74614037D01*
X238306407Y-74614037D02*
X238354026Y-74756894D01*
X238354026Y-74756894D02*
X238354026Y-74852132D01*
X238354026Y-74852132D02*
X238306407Y-74994989D01*
X238306407Y-74994989D02*
X238211168Y-75090227D01*
X238211168Y-75090227D02*
X238115930Y-75137846D01*
X238115930Y-75137846D02*
X237925454Y-75185465D01*
X237925454Y-75185465D02*
X237782597Y-75185465D01*
X237782597Y-75185465D02*
X237592121Y-75137846D01*
X237592121Y-75137846D02*
X237496883Y-75090227D01*
X237496883Y-75090227D02*
X237401645Y-74994989D01*
X237401645Y-74994989D02*
X237354026Y-74852132D01*
X237354026Y-74852132D02*
X237354026Y-74756894D01*
X237354026Y-74756894D02*
X237401645Y-74614037D01*
X237401645Y-74614037D02*
X237449264Y-74566418D01*
X237354026Y-73709275D02*
X237354026Y-73899751D01*
X237354026Y-73899751D02*
X237401645Y-73994989D01*
X237401645Y-73994989D02*
X237449264Y-74042608D01*
X237449264Y-74042608D02*
X237592121Y-74137846D01*
X237592121Y-74137846D02*
X237782597Y-74185465D01*
X237782597Y-74185465D02*
X238163549Y-74185465D01*
X238163549Y-74185465D02*
X238258787Y-74137846D01*
X238258787Y-74137846D02*
X238306407Y-74090227D01*
X238306407Y-74090227D02*
X238354026Y-73994989D01*
X238354026Y-73994989D02*
X238354026Y-73804513D01*
X238354026Y-73804513D02*
X238306407Y-73709275D01*
X238306407Y-73709275D02*
X238258787Y-73661656D01*
X238258787Y-73661656D02*
X238163549Y-73614037D01*
X238163549Y-73614037D02*
X237925454Y-73614037D01*
X237925454Y-73614037D02*
X237830216Y-73661656D01*
X237830216Y-73661656D02*
X237782597Y-73709275D01*
X237782597Y-73709275D02*
X237734978Y-73804513D01*
X237734978Y-73804513D02*
X237734978Y-73994989D01*
X237734978Y-73994989D02*
X237782597Y-74090227D01*
X237782597Y-74090227D02*
X237830216Y-74137846D01*
X237830216Y-74137846D02*
X237925454Y-74185465D01*
X226054067Y-115666281D02*
X225577876Y-115999614D01*
X226054067Y-116237709D02*
X225054067Y-116237709D01*
X225054067Y-116237709D02*
X225054067Y-115856757D01*
X225054067Y-115856757D02*
X225101686Y-115761519D01*
X225101686Y-115761519D02*
X225149305Y-115713900D01*
X225149305Y-115713900D02*
X225244543Y-115666281D01*
X225244543Y-115666281D02*
X225387400Y-115666281D01*
X225387400Y-115666281D02*
X225482638Y-115713900D01*
X225482638Y-115713900D02*
X225530257Y-115761519D01*
X225530257Y-115761519D02*
X225577876Y-115856757D01*
X225577876Y-115856757D02*
X225577876Y-116237709D01*
X225054067Y-114761519D02*
X225054067Y-115237709D01*
X225054067Y-115237709D02*
X225530257Y-115285328D01*
X225530257Y-115285328D02*
X225482638Y-115237709D01*
X225482638Y-115237709D02*
X225435019Y-115142471D01*
X225435019Y-115142471D02*
X225435019Y-114904376D01*
X225435019Y-114904376D02*
X225482638Y-114809138D01*
X225482638Y-114809138D02*
X225530257Y-114761519D01*
X225530257Y-114761519D02*
X225625495Y-114713900D01*
X225625495Y-114713900D02*
X225863590Y-114713900D01*
X225863590Y-114713900D02*
X225958828Y-114761519D01*
X225958828Y-114761519D02*
X226006448Y-114809138D01*
X226006448Y-114809138D02*
X226054067Y-114904376D01*
X226054067Y-114904376D02*
X226054067Y-115142471D01*
X226054067Y-115142471D02*
X226006448Y-115237709D01*
X226006448Y-115237709D02*
X225958828Y-115285328D01*
X225565913Y-121554412D02*
X225565913Y-122268697D01*
X225565913Y-122268697D02*
X225518294Y-122411554D01*
X225518294Y-122411554D02*
X225423056Y-122506793D01*
X225423056Y-122506793D02*
X225280199Y-122554412D01*
X225280199Y-122554412D02*
X225184961Y-122554412D01*
X226470675Y-121887745D02*
X226470675Y-122554412D01*
X226232580Y-121506793D02*
X225994485Y-122221078D01*
X225994485Y-122221078D02*
X226613532Y-122221078D01*
X220054117Y-95633012D02*
X220768402Y-95633012D01*
X220768402Y-95633012D02*
X220911259Y-95680631D01*
X220911259Y-95680631D02*
X221006498Y-95775869D01*
X221006498Y-95775869D02*
X221054117Y-95918726D01*
X221054117Y-95918726D02*
X221054117Y-96013964D01*
X220054117Y-95252059D02*
X220054117Y-94633012D01*
X220054117Y-94633012D02*
X220435069Y-94966345D01*
X220435069Y-94966345D02*
X220435069Y-94823488D01*
X220435069Y-94823488D02*
X220482688Y-94728250D01*
X220482688Y-94728250D02*
X220530307Y-94680631D01*
X220530307Y-94680631D02*
X220625545Y-94633012D01*
X220625545Y-94633012D02*
X220863640Y-94633012D01*
X220863640Y-94633012D02*
X220958878Y-94680631D01*
X220958878Y-94680631D02*
X221006498Y-94728250D01*
X221006498Y-94728250D02*
X221054117Y-94823488D01*
X221054117Y-94823488D02*
X221054117Y-95109202D01*
X221054117Y-95109202D02*
X221006498Y-95204440D01*
X221006498Y-95204440D02*
X220958878Y-95252059D01*
X228732570Y-60959378D02*
X228684951Y-61006998D01*
X228684951Y-61006998D02*
X228542094Y-61054617D01*
X228542094Y-61054617D02*
X228446856Y-61054617D01*
X228446856Y-61054617D02*
X228303999Y-61006998D01*
X228303999Y-61006998D02*
X228208761Y-60911759D01*
X228208761Y-60911759D02*
X228161142Y-60816521D01*
X228161142Y-60816521D02*
X228113523Y-60626045D01*
X228113523Y-60626045D02*
X228113523Y-60483188D01*
X228113523Y-60483188D02*
X228161142Y-60292712D01*
X228161142Y-60292712D02*
X228208761Y-60197474D01*
X228208761Y-60197474D02*
X228303999Y-60102236D01*
X228303999Y-60102236D02*
X228446856Y-60054617D01*
X228446856Y-60054617D02*
X228542094Y-60054617D01*
X228542094Y-60054617D02*
X228684951Y-60102236D01*
X228684951Y-60102236D02*
X228732570Y-60149855D01*
X229684951Y-61054617D02*
X229113523Y-61054617D01*
X229399237Y-61054617D02*
X229399237Y-60054617D01*
X229399237Y-60054617D02*
X229303999Y-60197474D01*
X229303999Y-60197474D02*
X229208761Y-60292712D01*
X229208761Y-60292712D02*
X229113523Y-60340331D01*
X233758802Y-74442611D02*
X233806422Y-74490230D01*
X233806422Y-74490230D02*
X233854041Y-74633087D01*
X233854041Y-74633087D02*
X233854041Y-74728325D01*
X233854041Y-74728325D02*
X233806422Y-74871182D01*
X233806422Y-74871182D02*
X233711183Y-74966420D01*
X233711183Y-74966420D02*
X233615945Y-75014039D01*
X233615945Y-75014039D02*
X233425469Y-75061658D01*
X233425469Y-75061658D02*
X233282612Y-75061658D01*
X233282612Y-75061658D02*
X233092136Y-75014039D01*
X233092136Y-75014039D02*
X232996898Y-74966420D01*
X232996898Y-74966420D02*
X232901660Y-74871182D01*
X232901660Y-74871182D02*
X232854041Y-74728325D01*
X232854041Y-74728325D02*
X232854041Y-74633087D01*
X232854041Y-74633087D02*
X232901660Y-74490230D01*
X232901660Y-74490230D02*
X232949279Y-74442611D01*
X233854041Y-73490230D02*
X233854041Y-74061658D01*
X233854041Y-73775944D02*
X232854041Y-73775944D01*
X232854041Y-73775944D02*
X232996898Y-73871182D01*
X232996898Y-73871182D02*
X233092136Y-73966420D01*
X233092136Y-73966420D02*
X233139755Y-74061658D01*
X233854041Y-72537849D02*
X233854041Y-73109277D01*
X233854041Y-72823563D02*
X232854041Y-72823563D01*
X232854041Y-72823563D02*
X232996898Y-72918801D01*
X232996898Y-72918801D02*
X233092136Y-73014039D01*
X233092136Y-73014039D02*
X233139755Y-73109277D01*
X210054117Y-77133077D02*
X210768402Y-77133077D01*
X210768402Y-77133077D02*
X210911259Y-77180696D01*
X210911259Y-77180696D02*
X211006498Y-77275934D01*
X211006498Y-77275934D02*
X211054117Y-77418791D01*
X211054117Y-77418791D02*
X211054117Y-77514029D01*
X210054117Y-76180696D02*
X210054117Y-76656886D01*
X210054117Y-76656886D02*
X210530307Y-76704505D01*
X210530307Y-76704505D02*
X210482688Y-76656886D01*
X210482688Y-76656886D02*
X210435069Y-76561648D01*
X210435069Y-76561648D02*
X210435069Y-76323553D01*
X210435069Y-76323553D02*
X210482688Y-76228315D01*
X210482688Y-76228315D02*
X210530307Y-76180696D01*
X210530307Y-76180696D02*
X210625545Y-76133077D01*
X210625545Y-76133077D02*
X210863640Y-76133077D01*
X210863640Y-76133077D02*
X210958878Y-76180696D01*
X210958878Y-76180696D02*
X211006498Y-76228315D01*
X211006498Y-76228315D02*
X211054117Y-76323553D01*
X211054117Y-76323553D02*
X211054117Y-76561648D01*
X211054117Y-76561648D02*
X211006498Y-76656886D01*
X211006498Y-76656886D02*
X210958878Y-76704505D01*
X230254053Y-112966290D02*
X229777862Y-113299623D01*
X230254053Y-113537718D02*
X229254053Y-113537718D01*
X229254053Y-113537718D02*
X229254053Y-113156766D01*
X229254053Y-113156766D02*
X229301672Y-113061528D01*
X229301672Y-113061528D02*
X229349291Y-113013909D01*
X229349291Y-113013909D02*
X229444529Y-112966290D01*
X229444529Y-112966290D02*
X229587386Y-112966290D01*
X229587386Y-112966290D02*
X229682624Y-113013909D01*
X229682624Y-113013909D02*
X229730243Y-113061528D01*
X229730243Y-113061528D02*
X229777862Y-113156766D01*
X229777862Y-113156766D02*
X229777862Y-113537718D01*
X229254053Y-112109147D02*
X229254053Y-112299623D01*
X229254053Y-112299623D02*
X229301672Y-112394861D01*
X229301672Y-112394861D02*
X229349291Y-112442480D01*
X229349291Y-112442480D02*
X229492148Y-112537718D01*
X229492148Y-112537718D02*
X229682624Y-112585337D01*
X229682624Y-112585337D02*
X230063576Y-112585337D01*
X230063576Y-112585337D02*
X230158814Y-112537718D01*
X230158814Y-112537718D02*
X230206434Y-112490099D01*
X230206434Y-112490099D02*
X230254053Y-112394861D01*
X230254053Y-112394861D02*
X230254053Y-112204385D01*
X230254053Y-112204385D02*
X230206434Y-112109147D01*
X230206434Y-112109147D02*
X230158814Y-112061528D01*
X230158814Y-112061528D02*
X230063576Y-112013909D01*
X230063576Y-112013909D02*
X229825481Y-112013909D01*
X229825481Y-112013909D02*
X229730243Y-112061528D01*
X229730243Y-112061528D02*
X229682624Y-112109147D01*
X229682624Y-112109147D02*
X229635005Y-112204385D01*
X229635005Y-112204385D02*
X229635005Y-112394861D01*
X229635005Y-112394861D02*
X229682624Y-112490099D01*
X229682624Y-112490099D02*
X229730243Y-112537718D01*
X229730243Y-112537718D02*
X229825481Y-112585337D01*
X219944114Y-114032954D02*
X220658399Y-114032954D01*
X220658399Y-114032954D02*
X220801256Y-114080573D01*
X220801256Y-114080573D02*
X220896495Y-114175811D01*
X220896495Y-114175811D02*
X220944114Y-114318668D01*
X220944114Y-114318668D02*
X220944114Y-114413906D01*
X220039352Y-113604382D02*
X219991733Y-113556763D01*
X219991733Y-113556763D02*
X219944114Y-113461525D01*
X219944114Y-113461525D02*
X219944114Y-113223430D01*
X219944114Y-113223430D02*
X219991733Y-113128192D01*
X219991733Y-113128192D02*
X220039352Y-113080573D01*
X220039352Y-113080573D02*
X220134590Y-113032954D01*
X220134590Y-113032954D02*
X220229828Y-113032954D01*
X220229828Y-113032954D02*
X220372685Y-113080573D01*
X220372685Y-113080573D02*
X220944114Y-113652001D01*
X220944114Y-113652001D02*
X220944114Y-113032954D01*
X228732570Y-62854611D02*
X228399237Y-62378420D01*
X228161142Y-62854611D02*
X228161142Y-61854611D01*
X228161142Y-61854611D02*
X228542094Y-61854611D01*
X228542094Y-61854611D02*
X228637332Y-61902230D01*
X228637332Y-61902230D02*
X228684951Y-61949849D01*
X228684951Y-61949849D02*
X228732570Y-62045087D01*
X228732570Y-62045087D02*
X228732570Y-62187944D01*
X228732570Y-62187944D02*
X228684951Y-62283182D01*
X228684951Y-62283182D02*
X228637332Y-62330801D01*
X228637332Y-62330801D02*
X228542094Y-62378420D01*
X228542094Y-62378420D02*
X228161142Y-62378420D01*
X229684951Y-62854611D02*
X229113523Y-62854611D01*
X229399237Y-62854611D02*
X229399237Y-61854611D01*
X229399237Y-61854611D02*
X229303999Y-61997468D01*
X229303999Y-61997468D02*
X229208761Y-62092706D01*
X229208761Y-62092706D02*
X229113523Y-62140325D01*
X235258797Y-74442611D02*
X235306417Y-74490230D01*
X235306417Y-74490230D02*
X235354036Y-74633087D01*
X235354036Y-74633087D02*
X235354036Y-74728325D01*
X235354036Y-74728325D02*
X235306417Y-74871182D01*
X235306417Y-74871182D02*
X235211178Y-74966420D01*
X235211178Y-74966420D02*
X235115940Y-75014039D01*
X235115940Y-75014039D02*
X234925464Y-75061658D01*
X234925464Y-75061658D02*
X234782607Y-75061658D01*
X234782607Y-75061658D02*
X234592131Y-75014039D01*
X234592131Y-75014039D02*
X234496893Y-74966420D01*
X234496893Y-74966420D02*
X234401655Y-74871182D01*
X234401655Y-74871182D02*
X234354036Y-74728325D01*
X234354036Y-74728325D02*
X234354036Y-74633087D01*
X234354036Y-74633087D02*
X234401655Y-74490230D01*
X234401655Y-74490230D02*
X234449274Y-74442611D01*
X234782607Y-73871182D02*
X234734988Y-73966420D01*
X234734988Y-73966420D02*
X234687369Y-74014039D01*
X234687369Y-74014039D02*
X234592131Y-74061658D01*
X234592131Y-74061658D02*
X234544512Y-74061658D01*
X234544512Y-74061658D02*
X234449274Y-74014039D01*
X234449274Y-74014039D02*
X234401655Y-73966420D01*
X234401655Y-73966420D02*
X234354036Y-73871182D01*
X234354036Y-73871182D02*
X234354036Y-73680706D01*
X234354036Y-73680706D02*
X234401655Y-73585468D01*
X234401655Y-73585468D02*
X234449274Y-73537849D01*
X234449274Y-73537849D02*
X234544512Y-73490230D01*
X234544512Y-73490230D02*
X234592131Y-73490230D01*
X234592131Y-73490230D02*
X234687369Y-73537849D01*
X234687369Y-73537849D02*
X234734988Y-73585468D01*
X234734988Y-73585468D02*
X234782607Y-73680706D01*
X234782607Y-73680706D02*
X234782607Y-73871182D01*
X234782607Y-73871182D02*
X234830226Y-73966420D01*
X234830226Y-73966420D02*
X234877845Y-74014039D01*
X234877845Y-74014039D02*
X234973083Y-74061658D01*
X234973083Y-74061658D02*
X235163559Y-74061658D01*
X235163559Y-74061658D02*
X235258797Y-74014039D01*
X235258797Y-74014039D02*
X235306417Y-73966420D01*
X235306417Y-73966420D02*
X235354036Y-73871182D01*
X235354036Y-73871182D02*
X235354036Y-73680706D01*
X235354036Y-73680706D02*
X235306417Y-73585468D01*
X235306417Y-73585468D02*
X235258797Y-73537849D01*
X235258797Y-73537849D02*
X235163559Y-73490230D01*
X235163559Y-73490230D02*
X234973083Y-73490230D01*
X234973083Y-73490230D02*
X234877845Y-73537849D01*
X234877845Y-73537849D02*
X234830226Y-73585468D01*
X234830226Y-73585468D02*
X234782607Y-73680706D01*
X236758792Y-74442611D02*
X236806412Y-74490230D01*
X236806412Y-74490230D02*
X236854031Y-74633087D01*
X236854031Y-74633087D02*
X236854031Y-74728325D01*
X236854031Y-74728325D02*
X236806412Y-74871182D01*
X236806412Y-74871182D02*
X236711173Y-74966420D01*
X236711173Y-74966420D02*
X236615935Y-75014039D01*
X236615935Y-75014039D02*
X236425459Y-75061658D01*
X236425459Y-75061658D02*
X236282602Y-75061658D01*
X236282602Y-75061658D02*
X236092126Y-75014039D01*
X236092126Y-75014039D02*
X235996888Y-74966420D01*
X235996888Y-74966420D02*
X235901650Y-74871182D01*
X235901650Y-74871182D02*
X235854031Y-74728325D01*
X235854031Y-74728325D02*
X235854031Y-74633087D01*
X235854031Y-74633087D02*
X235901650Y-74490230D01*
X235901650Y-74490230D02*
X235949269Y-74442611D01*
X236854031Y-73966420D02*
X236854031Y-73775944D01*
X236854031Y-73775944D02*
X236806412Y-73680706D01*
X236806412Y-73680706D02*
X236758792Y-73633087D01*
X236758792Y-73633087D02*
X236615935Y-73537849D01*
X236615935Y-73537849D02*
X236425459Y-73490230D01*
X236425459Y-73490230D02*
X236044507Y-73490230D01*
X236044507Y-73490230D02*
X235949269Y-73537849D01*
X235949269Y-73537849D02*
X235901650Y-73585468D01*
X235901650Y-73585468D02*
X235854031Y-73680706D01*
X235854031Y-73680706D02*
X235854031Y-73871182D01*
X235854031Y-73871182D02*
X235901650Y-73966420D01*
X235901650Y-73966420D02*
X235949269Y-74014039D01*
X235949269Y-74014039D02*
X236044507Y-74061658D01*
X236044507Y-74061658D02*
X236282602Y-74061658D01*
X236282602Y-74061658D02*
X236377840Y-74014039D01*
X236377840Y-74014039D02*
X236425459Y-73966420D01*
X236425459Y-73966420D02*
X236473078Y-73871182D01*
X236473078Y-73871182D02*
X236473078Y-73680706D01*
X236473078Y-73680706D02*
X236425459Y-73585468D01*
X236425459Y-73585468D02*
X236377840Y-73537849D01*
X236377840Y-73537849D02*
X236282602Y-73490230D01*
D13*
%TO.C,C2*%
X222152992Y-109589633D02*
X222445526Y-109589633D01*
X222152992Y-110609633D02*
X222445526Y-110609633D01*
%TO.C,C7*%
X238589203Y-77246010D02*
X238589203Y-76953476D01*
X239609203Y-77246010D02*
X239609203Y-76953476D01*
%TO.C,C5*%
X222152992Y-91189691D02*
X222445526Y-91189691D01*
X222152992Y-92209691D02*
X222445526Y-92209691D01*
D14*
%TO.C,U1*%
X230419215Y-84298324D02*
X230419215Y-85365124D01*
X230419215Y-85365124D02*
X230419215Y-86381124D01*
X230419215Y-86381124D02*
X230419215Y-87447924D01*
D15*
X230419215Y-87473324D02*
X240579215Y-87473324D01*
D14*
X230800215Y-87828924D02*
X240198215Y-87828924D01*
X240198215Y-83917324D02*
X230800215Y-83917324D01*
X240579215Y-87447924D02*
X240579215Y-84298324D01*
X230419215Y-84298324D02*
G75*
G02*
X230800215Y-83917324I380999J1D01*
G01*
X230419215Y-85365124D02*
G75*
G02*
X230419215Y-86381124I0J-508000D01*
G01*
X230800215Y-87828924D02*
G75*
G02*
X230419215Y-87447924I-1J380999D01*
G01*
X240198215Y-83917324D02*
G75*
G02*
X240579215Y-84298324I0J-381000D01*
G01*
X240579215Y-87447924D02*
G75*
G02*
X240198215Y-87828924I-381000J0D01*
G01*
D13*
%TO.C,C10*%
X231089228Y-77246010D02*
X231089228Y-76953476D01*
X232109228Y-77246010D02*
X232109228Y-76953476D01*
%TO.C,J1*%
X240799197Y-58929788D02*
X239099197Y-58929788D01*
X240799197Y-68269788D02*
X239099197Y-68269788D01*
%TO.C,C3*%
X228989235Y-115683379D02*
X228989235Y-115390845D01*
X230009235Y-115683379D02*
X230009235Y-115390845D01*
%TO.C,R2*%
X234541440Y-65477280D02*
X234031992Y-65477280D01*
X234541440Y-66522280D02*
X234031992Y-66522280D01*
%TO.C,C4*%
X222212971Y-72989755D02*
X222505505Y-72989755D01*
X222212971Y-74009755D02*
X222505505Y-74009755D01*
%TO.C,C6*%
X237089208Y-77246010D02*
X237089208Y-76953476D01*
X238109208Y-77246010D02*
X238109208Y-76953476D01*
%TO.C,R5*%
X223576753Y-115282388D02*
X223576753Y-115791836D01*
X224621753Y-115282388D02*
X224621753Y-115791836D01*
%TO.C,J4*%
X221229247Y-121999593D02*
X221229247Y-120299593D01*
X230569247Y-121999593D02*
X230569247Y-120299593D01*
%TO.C,J3*%
X212439298Y-88719679D02*
X205349298Y-88719679D01*
X212439298Y-101879679D02*
X205349298Y-101879679D01*
X217509298Y-88719679D02*
X215859298Y-88719679D01*
X217509298Y-90889679D02*
X217509298Y-88719679D01*
X217509298Y-90889679D02*
X219349298Y-90889679D01*
X217509298Y-99709679D02*
X217509298Y-101879679D01*
X217509298Y-101879679D02*
X215859298Y-101879679D01*
%TO.C,C1*%
X234432983Y-60089798D02*
X234140449Y-60089798D01*
X234432983Y-61109798D02*
X234140449Y-61109798D01*
%TO.C,C11*%
X232589223Y-77246010D02*
X232589223Y-76953476D01*
X233609223Y-77246010D02*
X233609223Y-76953476D01*
%TO.C,J5*%
X212389274Y-70219744D02*
X205299274Y-70219744D01*
X212389274Y-83379744D02*
X205299274Y-83379744D01*
X217459274Y-70219744D02*
X215809274Y-70219744D01*
X217459274Y-72389744D02*
X217459274Y-70219744D01*
X217459274Y-72389744D02*
X219299274Y-72389744D01*
X217459274Y-81209744D02*
X217459274Y-83379744D01*
X217459274Y-83379744D02*
X215809274Y-83379744D01*
%TO.C,R6*%
X227476740Y-115282388D02*
X227476740Y-115791836D01*
X228521740Y-115282388D02*
X228521740Y-115791836D01*
%TO.C,J2*%
X212329295Y-107119621D02*
X205239295Y-107119621D01*
X212329295Y-120279621D02*
X205239295Y-120279621D01*
X217399295Y-107119621D02*
X215749295Y-107119621D01*
X217399295Y-109289621D02*
X217399295Y-107119621D01*
X217399295Y-109289621D02*
X219239295Y-109289621D01*
X217399295Y-118109621D02*
X217399295Y-120279621D01*
X217399295Y-120279621D02*
X215749295Y-120279621D01*
%TO.C,R1*%
X234541440Y-61577293D02*
X234031992Y-61577293D01*
X234541440Y-62622293D02*
X234031992Y-62622293D01*
%TO.C,C8*%
X234089218Y-77246010D02*
X234089218Y-76953476D01*
X235109218Y-77246010D02*
X235109218Y-76953476D01*
%TO.C,C9*%
X235589213Y-77246010D02*
X235589213Y-76953476D01*
X236609213Y-77246010D02*
X236609213Y-76953476D01*
D16*
%TO.C,head*%
G36*
X221281744Y-58994171D02*
G01*
X221539856Y-59042530D01*
X221596021Y-59065955D01*
X221815944Y-59277635D01*
X221973186Y-59638771D01*
X222064959Y-60140435D01*
X222089398Y-60646624D01*
X222091257Y-61429790D01*
X222451091Y-61430946D01*
X222727465Y-61443729D01*
X222961379Y-61473971D01*
X223001424Y-61483154D01*
X223098928Y-61500677D01*
X223155821Y-61466211D01*
X223183073Y-61346859D01*
X223191654Y-61109724D01*
X223192396Y-60910498D01*
X223214072Y-60385467D01*
X223285669Y-59989358D01*
X223418406Y-59686240D01*
X223623503Y-59440185D01*
X223662593Y-59404755D01*
X223807223Y-59284698D01*
X223938755Y-59208574D01*
X224100298Y-59166388D01*
X224334962Y-59148147D01*
X224685858Y-59143855D01*
X224788268Y-59143790D01*
X225171758Y-59146301D01*
X225425190Y-59159658D01*
X225587827Y-59192595D01*
X225698933Y-59253850D01*
X225797769Y-59352158D01*
X225815431Y-59372328D01*
X225961841Y-59615489D01*
X226100261Y-59974864D01*
X226216109Y-60397463D01*
X226294800Y-60830296D01*
X226321820Y-61212398D01*
X226307221Y-61537762D01*
X226265126Y-61954561D01*
X226192507Y-62488201D01*
X226097222Y-63097530D01*
X226098023Y-63312662D01*
X226179417Y-63566438D01*
X226328983Y-63859530D01*
X226490934Y-64136800D01*
X226638040Y-64369803D01*
X226727926Y-64494619D01*
X226793141Y-64669896D01*
X226816461Y-64955613D01*
X226802815Y-65299479D01*
X226757137Y-65649203D01*
X226684355Y-65952494D01*
X226589401Y-66157061D01*
X226568923Y-66180791D01*
X226407349Y-66301698D01*
X226292624Y-66340457D01*
X226143866Y-66400176D01*
X226071793Y-66466008D01*
X225952787Y-66561857D01*
X225754677Y-66644638D01*
X225457036Y-66719015D01*
X225039439Y-66789658D01*
X224481460Y-66861232D01*
X224207924Y-66891870D01*
X223613557Y-66951998D01*
X223131787Y-66987589D01*
X222707770Y-66999356D01*
X222286663Y-66988014D01*
X221813621Y-66954276D01*
X221516245Y-66926896D01*
X220923200Y-66839658D01*
X220452070Y-66692572D01*
X220059776Y-66463873D01*
X219844330Y-66263209D01*
X222768591Y-66263209D01*
X223382424Y-66238333D01*
X223996257Y-66213457D01*
X224020898Y-65460419D01*
X224023416Y-65383472D01*
X224123257Y-65383472D01*
X224123257Y-66088458D01*
X224483091Y-66038065D01*
X224731931Y-65999268D01*
X224915902Y-65963641D01*
X224948757Y-65955055D01*
X225005213Y-65871907D01*
X225039601Y-65654477D01*
X225053911Y-65287771D01*
X225054591Y-65157781D01*
X225053743Y-65112790D01*
X225047095Y-64759854D01*
X225011716Y-64512016D01*
X224929113Y-64395236D01*
X224862816Y-64393124D01*
X225139257Y-64393124D01*
X225139257Y-65112790D01*
X225141601Y-65461498D01*
X225154700Y-65674348D01*
X225187655Y-65784807D01*
X225249567Y-65826343D01*
X225334959Y-65832457D01*
X225539955Y-65776020D01*
X225715959Y-65659825D01*
X225831952Y-65510590D01*
X225887955Y-65306341D01*
X225901257Y-65024825D01*
X225889707Y-64745122D01*
X225849214Y-64601645D01*
X225774257Y-64562457D01*
X225661585Y-64516739D01*
X225647257Y-64477790D01*
X225573685Y-64418343D01*
X225396417Y-64393130D01*
X225393257Y-64393124D01*
X225139257Y-64393124D01*
X224862816Y-64393124D01*
X224779945Y-64390484D01*
X224544873Y-64478731D01*
X224422463Y-64535805D01*
X224123257Y-64678486D01*
X224123257Y-65383472D01*
X224023416Y-65383472D01*
X224045539Y-64707381D01*
X223597565Y-64761183D01*
X223302772Y-64792471D01*
X223050798Y-64812243D01*
X222959091Y-64815721D01*
X222866936Y-64825446D01*
X222810593Y-64876001D01*
X222781278Y-65000767D01*
X222770211Y-65233125D01*
X222768591Y-65539833D01*
X222768591Y-66263209D01*
X219844330Y-66263209D01*
X219703236Y-66131795D01*
X219525741Y-65921232D01*
X219264806Y-65587137D01*
X219080945Y-65326574D01*
X218949241Y-65089032D01*
X218844774Y-64824000D01*
X218814483Y-64722277D01*
X219725255Y-64722277D01*
X219741274Y-64917266D01*
X219816905Y-65262763D01*
X219957673Y-65490946D01*
X220148627Y-65578214D01*
X220160106Y-65578457D01*
X220192841Y-65500710D01*
X220217057Y-65295051D01*
X220227842Y-65014533D01*
X220228291Y-65002853D01*
X220228591Y-64943457D01*
X220224081Y-64639905D01*
X220212154Y-64415366D01*
X220195207Y-64311223D01*
X220191769Y-64308457D01*
X220313257Y-64308457D01*
X220313257Y-65014533D01*
X220319306Y-65383353D01*
X220355101Y-65624439D01*
X220447117Y-65779361D01*
X220621827Y-65889685D01*
X220905705Y-65996982D01*
X220948257Y-66011591D01*
X221152263Y-66074362D01*
X221285857Y-66079228D01*
X221363929Y-66001864D01*
X221401369Y-65817946D01*
X221413067Y-65503149D01*
X221413695Y-65318409D01*
X221498591Y-65318409D01*
X221511563Y-65729293D01*
X221565084Y-66000168D01*
X221681059Y-66159326D01*
X221881393Y-66235063D01*
X222187991Y-66255672D01*
X222224305Y-66255790D01*
X222683924Y-66255790D01*
X222683924Y-65544815D01*
X222683924Y-65539833D01*
X222683924Y-64833840D01*
X222147822Y-64740482D01*
X221862411Y-64692208D01*
X221774904Y-64678486D01*
X221647330Y-64658481D01*
X221555155Y-64647124D01*
X221528780Y-64725068D01*
X221508967Y-64932070D01*
X221499107Y-65227884D01*
X221498591Y-65318409D01*
X221413695Y-65318409D01*
X221413924Y-65250868D01*
X221413924Y-64415279D01*
X221096424Y-64362800D01*
X220815071Y-64326570D01*
X220561034Y-64309545D01*
X220546091Y-64309389D01*
X220313257Y-64308457D01*
X220191769Y-64308457D01*
X220094372Y-64335367D01*
X219927182Y-64395053D01*
X219794499Y-64458428D01*
X219733324Y-64550272D01*
X219725255Y-64722277D01*
X218814483Y-64722277D01*
X218742628Y-64480969D01*
X218657622Y-64161503D01*
X218617960Y-64001735D01*
X222343075Y-64001735D01*
X222375043Y-64216070D01*
X222471782Y-64372390D01*
X222493424Y-64387428D01*
X222686014Y-64433682D01*
X222927219Y-64414552D01*
X223135164Y-64342663D01*
X223211794Y-64276653D01*
X223270496Y-64043616D01*
X223188945Y-63794891D01*
X223037524Y-63672956D01*
X222792867Y-63627705D01*
X222517334Y-63669009D01*
X222479182Y-63682515D01*
X222377311Y-63800258D01*
X222343075Y-64001735D01*
X218617960Y-64001735D01*
X218562994Y-63780323D01*
X218504137Y-63470893D01*
X218475915Y-63175132D01*
X218475725Y-63151419D01*
X219974591Y-63151419D01*
X220036693Y-63339964D01*
X220183467Y-63519754D01*
X220355609Y-63624343D01*
X220402725Y-63631124D01*
X220501651Y-63607343D01*
X220550971Y-63508541D01*
X220566695Y-63293528D01*
X220567192Y-63217665D01*
X220567257Y-63207790D01*
X220547926Y-62921411D01*
X220488774Y-62793218D01*
X220459096Y-62784457D01*
X221244591Y-62784457D01*
X221244591Y-63217665D01*
X221250139Y-63470270D01*
X221279222Y-63591039D01*
X221350496Y-63617397D01*
X221435091Y-63599821D01*
X221656074Y-63557413D01*
X221775572Y-63547613D01*
X221935778Y-63473793D01*
X222036188Y-63297127D01*
X222051225Y-63080611D01*
X222032349Y-63024272D01*
X223460287Y-63024272D01*
X223498889Y-63248605D01*
X223642611Y-63442569D01*
X223840483Y-63543109D01*
X223882379Y-63546457D01*
X223980315Y-63517110D01*
X224026834Y-63401611D01*
X224038330Y-63165457D01*
X224715924Y-63165457D01*
X224724989Y-63400831D01*
X224768370Y-63512347D01*
X224870344Y-63545186D01*
X224920666Y-63546457D01*
X225140041Y-63525490D01*
X225259332Y-63495065D01*
X225362841Y-63373723D01*
X225393257Y-63196636D01*
X225349269Y-62989538D01*
X225190026Y-62872481D01*
X225176079Y-62867028D01*
X224921604Y-62789521D01*
X224781959Y-62816492D01*
X224724580Y-62969061D01*
X224715924Y-63165457D01*
X224038330Y-63165457D01*
X224038591Y-63160092D01*
X224032930Y-62924430D01*
X223994227Y-62815495D01*
X223889902Y-62790683D01*
X223763424Y-62800259D01*
X223559293Y-62849703D01*
X223471487Y-62968786D01*
X223460287Y-63024272D01*
X222032349Y-63024272D01*
X222012322Y-62964500D01*
X221894435Y-62837415D01*
X221689541Y-62787804D01*
X221580278Y-62784457D01*
X221244591Y-62784457D01*
X220459096Y-62784457D01*
X220294842Y-62835649D01*
X220117329Y-62954965D01*
X219994409Y-63091015D01*
X219974591Y-63151419D01*
X218475725Y-63151419D01*
X218473189Y-62834957D01*
X218490822Y-62392288D01*
X218494625Y-62318790D01*
X218542448Y-61670151D01*
X218617163Y-61138790D01*
X218729824Y-60673395D01*
X218891486Y-60222652D01*
X218999595Y-59974815D01*
X219181784Y-59620217D01*
X219365881Y-59384481D01*
X219597330Y-59222824D01*
X219883605Y-59103686D01*
X220177061Y-59033309D01*
X220544880Y-58990782D01*
X220931597Y-58977329D01*
X221281744Y-58994171D01*
G37*
%TD*%
M02*
