%TF.GenerationSoftware,KiCad,Pcbnew,9.0.8-9.0.8~ubuntu24.04.1*%
%TF.CreationDate,2026-04-17T12:05:57+07:00*%
%TF.ProjectId,yohub,796f6875-622e-46b6-9963-61645f706362,rev?*%
%TF.SameCoordinates,Original*%
%TF.FileFunction,Copper,L1,Top*%
%TF.FilePolarity,Positive*%
%FSLAX46Y46*%
G04 Gerber Fmt 4.6, Leading zero omitted, Abs format (unit mm)*
G04 Created by KiCad (PCBNEW 9.0.8-9.0.8~ubuntu24.04.1) date 2026-04-17 12:05:57*
%MOMM*%
%LPD*%
G01*
G04 APERTURE LIST*
G04 Aperture macros list*
%AMRoundRect*
0 Rectangle with rounded corners*
0 $1 Rounding radius*
0 $2 $3 $4 $5 $6 $7 $8 $9 X,Y pos of 4 corners*
0 Add a 4 corners polygon primitive as box body*
4,1,4,$2,$3,$4,$5,$6,$7,$8,$9,$2,$3,0*
0 Add four circle primitives for the rounded corners*
1,1,$1+$1,$2,$3*
1,1,$1+$1,$4,$5*
1,1,$1+$1,$6,$7*
1,1,$1+$1,$8,$9*
0 Add four rect primitives between the rounded corners*
20,1,$1+$1,$2,$3,$4,$5,0*
20,1,$1+$1,$4,$5,$6,$7,0*
20,1,$1+$1,$6,$7,$8,$9,0*
20,1,$1+$1,$8,$9,$2,$3,0*%
G04 Aperture macros list end*
%TA.AperFunction,SMDPad,CuDef*%
%ADD10RoundRect,0.237500X-0.300000X-0.237500X0.300000X-0.237500X0.300000X0.237500X-0.300000X0.237500X0*%
%TD*%
%TA.AperFunction,SMDPad,CuDef*%
%ADD11RoundRect,0.237500X0.237500X-0.300000X0.237500X0.300000X-0.237500X0.300000X-0.237500X-0.300000X0*%
%TD*%
%TA.AperFunction,SMDPad,CuDef*%
%ADD12R,0.660400X2.032000*%
%TD*%
%TA.AperFunction,SMDPad,CuDef*%
%ADD13RoundRect,0.150000X0.425000X-0.150000X0.425000X0.150000X-0.425000X0.150000X-0.425000X-0.150000X0*%
%TD*%
%TA.AperFunction,SMDPad,CuDef*%
%ADD14RoundRect,0.075000X0.500000X-0.075000X0.500000X0.075000X-0.500000X0.075000X-0.500000X-0.075000X0*%
%TD*%
%TA.AperFunction,HeatsinkPad*%
%ADD15O,2.100000X1.000000*%
%TD*%
%TA.AperFunction,HeatsinkPad*%
%ADD16O,1.800000X1.000000*%
%TD*%
%TA.AperFunction,SMDPad,CuDef*%
%ADD17RoundRect,0.237500X0.250000X0.237500X-0.250000X0.237500X-0.250000X-0.237500X0.250000X-0.237500X0*%
%TD*%
%TA.AperFunction,SMDPad,CuDef*%
%ADD18RoundRect,0.237500X-0.237500X0.250000X-0.237500X-0.250000X0.237500X-0.250000X0.237500X0.250000X0*%
%TD*%
%TA.AperFunction,SMDPad,CuDef*%
%ADD19RoundRect,0.150000X-0.150000X-0.425000X0.150000X-0.425000X0.150000X0.425000X-0.150000X0.425000X0*%
%TD*%
%TA.AperFunction,SMDPad,CuDef*%
%ADD20RoundRect,0.075000X-0.075000X-0.500000X0.075000X-0.500000X0.075000X0.500000X-0.075000X0.500000X0*%
%TD*%
%TA.AperFunction,HeatsinkPad*%
%ADD21O,1.000000X2.100000*%
%TD*%
%TA.AperFunction,HeatsinkPad*%
%ADD22O,1.000000X1.800000*%
%TD*%
%TA.AperFunction,SMDPad,CuDef*%
%ADD23RoundRect,0.325000X-1.175000X0.325000X-1.175000X-0.325000X1.175000X-0.325000X1.175000X0.325000X0*%
%TD*%
%TA.AperFunction,HeatsinkPad*%
%ADD24O,2.900000X1.200000*%
%TD*%
%TA.AperFunction,SMDPad,CuDef*%
%ADD25RoundRect,0.237500X0.300000X0.237500X-0.300000X0.237500X-0.300000X-0.237500X0.300000X-0.237500X0*%
%TD*%
%TA.AperFunction,ViaPad*%
%ADD26C,0.600000*%
%TD*%
%TA.AperFunction,Conductor*%
%ADD27C,0.299999*%
%TD*%
%TA.AperFunction,Conductor*%
%ADD28C,0.200000*%
%TD*%
G04 APERTURE END LIST*
D10*
%TO.P,C2,1*%
%TO.N,+5V*%
X221436759Y-110099633D03*
%TO.P,C2,2*%
%TO.N,GND*%
X223161759Y-110099633D03*
%TD*%
D11*
%TO.P,C7,1*%
%TO.N,+5V*%
X239099203Y-77962243D03*
%TO.P,C7,2*%
%TO.N,GND*%
X239099203Y-76237243D03*
%TD*%
D10*
%TO.P,C5,1*%
%TO.N,+5V*%
X221436759Y-91699691D03*
%TO.P,C5,2*%
%TO.N,GND*%
X223161759Y-91699691D03*
%TD*%
D12*
%TO.P,U1,1,DM4*%
%TO.N,/DN4*%
X231054215Y-88946524D03*
%TO.P,U1,2,DP4*%
%TO.N,/DP4*%
X232324215Y-88946524D03*
%TO.P,U1,3,DM3*%
%TO.N,/DN3*%
X233594215Y-88946524D03*
%TO.P,U1,4,DP3*%
%TO.N,/DP3*%
X234864215Y-88946524D03*
%TO.P,U1,5,DM2*%
%TO.N,/DN2*%
X236134215Y-88946524D03*
%TO.P,U1,6,DP2*%
%TO.N,/DP2*%
X237404215Y-88946524D03*
%TO.P,U1,7,DM1*%
%TO.N,/DN*%
X238674215Y-88946524D03*
%TO.P,U1,8,DP1*%
%TO.N,/DP*%
X239944215Y-88946524D03*
%TO.P,U1,9,DM*%
%TO.N,/DN1*%
X239944215Y-82799724D03*
%TO.P,U1,10,DP*%
%TO.N,/DP1*%
X238674215Y-82799724D03*
%TO.P,U1,11,VDD5*%
%TO.N,+5V*%
X237404215Y-82799724D03*
%TO.P,U1,12,GND*%
%TO.N,GND*%
X236134215Y-82799724D03*
%TO.P,U1,13,VDD33*%
%TO.N,Net-(U1-VDD33)*%
X234864215Y-82799724D03*
%TO.P,U1,14,VDD18*%
%TO.N,Net-(U1-VDD18)*%
X233594215Y-82799724D03*
%TO.P,U1,15,XOUT*%
%TO.N,unconnected-(U1-XOUT-Pad15)*%
X232324215Y-82799724D03*
%TO.P,U1,16,XIN*%
%TO.N,GND*%
X231054215Y-82799724D03*
%TD*%
D11*
%TO.P,C10,1*%
%TO.N,Net-(U1-VDD18)*%
X231599228Y-77962243D03*
%TO.P,C10,2*%
%TO.N,GND*%
X231599228Y-76237243D03*
%TD*%
D13*
%TO.P,J1,A1,GND*%
%TO.N,GND*%
X237219197Y-66799788D03*
%TO.P,J1,A4,VBUS*%
%TO.N,+5V*%
X237219197Y-65999788D03*
D14*
%TO.P,J1,A5,CC1*%
%TO.N,Net-(J1-CC1)*%
X237219197Y-64849788D03*
%TO.P,J1,A6,D+*%
%TO.N,/DP*%
X237219197Y-63849788D03*
%TO.P,J1,A7,D-*%
%TO.N,/DN*%
X237219197Y-63349788D03*
%TO.P,J1,A8,SBU1*%
%TO.N,unconnected-(J1-SBU1-PadA8)*%
X237219197Y-62349788D03*
D13*
%TO.P,J1,A9,VBUS*%
%TO.N,+5V*%
X237219197Y-61199788D03*
%TO.P,J1,A12,GND*%
%TO.N,GND*%
X237219197Y-60399788D03*
%TO.P,J1,B1,GND*%
X237219197Y-60399788D03*
%TO.P,J1,B4,VBUS*%
%TO.N,+5V*%
X237219197Y-61199788D03*
D14*
%TO.P,J1,B5,CC2*%
%TO.N,Net-(J1-CC2)*%
X237219197Y-61849788D03*
%TO.P,J1,B6,D+*%
%TO.N,/DP*%
X237219197Y-62849788D03*
%TO.P,J1,B7,D-*%
%TO.N,/DN*%
X237219197Y-64349788D03*
%TO.P,J1,B8,SBU2*%
%TO.N,unconnected-(J1-SBU2-PadB8)*%
X237219197Y-65349788D03*
D13*
%TO.P,J1,B9,VBUS*%
%TO.N,+5V*%
X237219197Y-65999788D03*
%TO.P,J1,B12,GND*%
%TO.N,GND*%
X237219197Y-66799788D03*
D15*
%TO.P,J1,S1,SHIELD*%
X237794197Y-67919788D03*
D16*
X241974197Y-67919788D03*
D15*
X237794197Y-59279788D03*
D16*
X241974197Y-59279788D03*
%TD*%
D11*
%TO.P,C3,1*%
%TO.N,+5V*%
X229499235Y-116399612D03*
%TO.P,C3,2*%
%TO.N,GND*%
X229499235Y-114674612D03*
%TD*%
D17*
%TO.P,R2,1*%
%TO.N,Net-(J1-CC1)*%
X235199216Y-65999780D03*
%TO.P,R2,2*%
%TO.N,GND*%
X233374216Y-65999780D03*
%TD*%
D10*
%TO.P,C4,1*%
%TO.N,+5V*%
X221496738Y-73499755D03*
%TO.P,C4,2*%
%TO.N,GND*%
X223221738Y-73499755D03*
%TD*%
D11*
%TO.P,C6,1*%
%TO.N,+5V*%
X237599208Y-77962243D03*
%TO.P,C6,2*%
%TO.N,GND*%
X237599208Y-76237243D03*
%TD*%
D18*
%TO.P,R5,1*%
%TO.N,+5V*%
X224099253Y-114624612D03*
%TO.P,R5,2*%
%TO.N,Net-(J4-CC1)*%
X224099253Y-116449612D03*
%TD*%
D19*
%TO.P,J4,A1,GND*%
%TO.N,GND*%
X222699247Y-118419593D03*
%TO.P,J4,A4,VBUS*%
%TO.N,+5V*%
X223499247Y-118419593D03*
D20*
%TO.P,J4,A5,CC1*%
%TO.N,Net-(J4-CC1)*%
X224649247Y-118419593D03*
%TO.P,J4,A6,D+*%
%TO.N,/DP2*%
X225649247Y-118419593D03*
%TO.P,J4,A7,D-*%
%TO.N,/DN2*%
X226149247Y-118419593D03*
%TO.P,J4,A8,SBU1*%
%TO.N,unconnected-(J4-SBU1-PadA8)*%
X227149247Y-118419593D03*
D19*
%TO.P,J4,A9,VBUS*%
%TO.N,+5V*%
X228299247Y-118419593D03*
%TO.P,J4,A12,GND*%
%TO.N,GND*%
X229099247Y-118419593D03*
%TO.P,J4,B1,GND*%
X229099247Y-118419593D03*
%TO.P,J4,B4,VBUS*%
%TO.N,+5V*%
X228299247Y-118419593D03*
D20*
%TO.P,J4,B5,CC2*%
%TO.N,Net-(J4-CC2)*%
X227649247Y-118419593D03*
%TO.P,J4,B6,D+*%
%TO.N,/DP2*%
X226649247Y-118419593D03*
%TO.P,J4,B7,D-*%
%TO.N,/DN2*%
X225149247Y-118419593D03*
%TO.P,J4,B8,SBU2*%
%TO.N,unconnected-(J4-SBU2-PadB8)*%
X224149247Y-118419593D03*
D19*
%TO.P,J4,B9,VBUS*%
%TO.N,+5V*%
X223499247Y-118419593D03*
%TO.P,J4,B12,GND*%
%TO.N,GND*%
X222699247Y-118419593D03*
D21*
%TO.P,J4,S1,SHIELD*%
X221579247Y-118994593D03*
D22*
X221579247Y-123174593D03*
D21*
X230219247Y-118994593D03*
D22*
X230219247Y-123174593D03*
%TD*%
D23*
%TO.P,J3,1,VBUS*%
%TO.N,+5V*%
X217849298Y-91799679D03*
%TO.P,J3,2,D-*%
%TO.N,/DN4*%
X217849298Y-94299679D03*
%TO.P,J3,3,D+*%
%TO.N,/DP4*%
X217849298Y-96299679D03*
%TO.P,J3,4,GND*%
%TO.N,GND*%
X217849298Y-98799679D03*
D24*
%TO.P,J3,5,Shield*%
X214149298Y-88899679D03*
X214149298Y-101699679D03*
%TD*%
D25*
%TO.P,C1,1*%
%TO.N,+5V*%
X235149216Y-60599798D03*
%TO.P,C1,2*%
%TO.N,GND*%
X233424216Y-60599798D03*
%TD*%
D11*
%TO.P,C11,1*%
%TO.N,Net-(U1-VDD18)*%
X233099223Y-77962243D03*
%TO.P,C11,2*%
%TO.N,GND*%
X233099223Y-76237243D03*
%TD*%
D23*
%TO.P,J5,1,VBUS*%
%TO.N,+5V*%
X217799274Y-73299744D03*
%TO.P,J5,2,D-*%
%TO.N,/DN1*%
X217799274Y-75799744D03*
%TO.P,J5,3,D+*%
%TO.N,/DP1*%
X217799274Y-77799744D03*
%TO.P,J5,4,GND*%
%TO.N,GND*%
X217799274Y-80299744D03*
D24*
%TO.P,J5,5,Shield*%
X214099274Y-70399744D03*
X214099274Y-83199744D03*
%TD*%
D18*
%TO.P,R6,1*%
%TO.N,+5V*%
X227999240Y-114624612D03*
%TO.P,R6,2*%
%TO.N,Net-(J4-CC2)*%
X227999240Y-116449612D03*
%TD*%
D23*
%TO.P,J2,1,VBUS*%
%TO.N,+5V*%
X217739295Y-110199621D03*
%TO.P,J2,2,D-*%
%TO.N,/DN3*%
X217739295Y-112699621D03*
%TO.P,J2,3,D+*%
%TO.N,/DP3*%
X217739295Y-114699621D03*
%TO.P,J2,4,GND*%
%TO.N,GND*%
X217739295Y-117199621D03*
D24*
%TO.P,J2,5,Shield*%
X214039295Y-107299621D03*
X214039295Y-120099621D03*
%TD*%
D17*
%TO.P,R1,1*%
%TO.N,Net-(J1-CC2)*%
X235199216Y-62099793D03*
%TO.P,R1,2*%
%TO.N,GND*%
X233374216Y-62099793D03*
%TD*%
D11*
%TO.P,C8,1*%
%TO.N,Net-(U1-VDD33)*%
X234599218Y-77962243D03*
%TO.P,C8,2*%
%TO.N,GND*%
X234599218Y-76237243D03*
%TD*%
%TO.P,C9,1*%
%TO.N,Net-(U1-VDD33)*%
X236099213Y-77962243D03*
%TO.P,C9,2*%
%TO.N,GND*%
X236099213Y-76237243D03*
%TD*%
D26*
%TO.N,+5V*%
X227999240Y-113137120D03*
X238199206Y-69899767D03*
X230399232Y-59699801D03*
X225299249Y-73499755D03*
X227099243Y-93299689D03*
X221699261Y-115499615D03*
X227099243Y-103199656D03*
X221699261Y-112199626D03*
X224099253Y-113137120D03*
X236399212Y-79199736D03*
X233699221Y-67499775D03*
X238499205Y-79366370D03*
%TO.N,GND*%
X236099213Y-80699731D03*
X233399222Y-69599768D03*
%TD*%
D27*
%TO.N,+5V*%
X230999230Y-59099803D02*
X234899217Y-59099803D01*
X221436759Y-108862140D02*
X227099243Y-103199656D01*
X224999250Y-72299759D02*
X222696734Y-72299759D01*
X227099243Y-93299689D02*
X223036757Y-93299689D01*
X217849298Y-91799679D02*
X210899312Y-91799679D01*
X221699261Y-116099613D02*
X223499247Y-117899599D01*
X235149216Y-59349802D02*
X235149216Y-60599798D01*
X217799274Y-73299744D02*
X221296727Y-73299744D01*
X238065841Y-79366370D02*
X237599208Y-78899737D01*
X238499205Y-79366370D02*
X238065841Y-79366370D01*
X235749206Y-61199788D02*
X237489200Y-61199788D01*
X210899312Y-91799679D02*
X208199306Y-94499685D01*
X237599208Y-77999740D02*
X237599208Y-77962243D01*
X237404215Y-82799724D02*
X237404215Y-78157236D01*
X238199206Y-69899767D02*
X236399212Y-69899767D01*
X223499247Y-117899599D02*
X223499247Y-118419593D01*
X221699261Y-115499615D02*
X221699261Y-116099613D01*
X221699261Y-112199626D02*
X221699261Y-110362135D01*
X225299249Y-72599758D02*
X224999250Y-72299759D01*
X221099278Y-91799679D02*
X217849298Y-91799679D01*
X221296727Y-73299744D02*
X221496738Y-73499755D01*
X236609201Y-65999788D02*
X237489200Y-65999788D01*
X236399212Y-79199736D02*
X237599208Y-77999740D01*
X224099253Y-114624612D02*
X224099253Y-113137120D01*
X235499215Y-68999770D02*
X235499215Y-67109774D01*
X234899217Y-59099803D02*
X235149216Y-59349802D01*
X237599208Y-77962243D02*
X239099203Y-77962243D01*
X221199266Y-91699691D02*
X221099278Y-91799679D01*
X228299247Y-117599600D02*
X229499235Y-116399612D01*
X221436759Y-110099633D02*
X217839283Y-110099633D01*
X208199306Y-105899647D02*
X212499280Y-110199621D01*
X236399212Y-69899767D02*
X235499215Y-68999770D01*
X235499215Y-67109774D02*
X236609201Y-65999788D01*
X222696734Y-72299759D02*
X221496738Y-73499755D01*
X221699261Y-115499615D02*
X223224250Y-115499615D01*
X234790026Y-86099713D02*
X237404215Y-83485524D01*
X235149216Y-60599798D02*
X235749206Y-61199788D01*
X227999240Y-114624612D02*
X227999240Y-114899617D01*
X237404215Y-83485524D02*
X237404215Y-82799724D01*
X221436759Y-91699691D02*
X221199266Y-91699691D01*
X208199306Y-94499685D02*
X208199306Y-105899647D01*
X237599208Y-78899737D02*
X237599208Y-77962243D01*
X236609201Y-65999788D02*
X235109214Y-67499775D01*
X212499280Y-110199621D02*
X217739295Y-110199621D01*
X228299247Y-118419593D02*
X228299247Y-117599600D01*
X230399232Y-59699801D02*
X230999230Y-59099803D01*
X227999240Y-114899617D02*
X229499235Y-116399612D01*
X227999240Y-113137120D02*
X227999240Y-114624612D01*
X235109214Y-67499775D02*
X233699221Y-67499775D01*
X225299249Y-73499755D02*
X225299249Y-72599758D01*
X230399232Y-86099713D02*
X234790026Y-86099713D01*
X223224250Y-115499615D02*
X224099253Y-114624612D01*
X221436759Y-110099633D02*
X221436759Y-108862140D01*
X223036757Y-93299689D02*
X221436759Y-91699691D01*
X237404215Y-78157236D02*
X237599208Y-77962243D01*
X221699261Y-110362135D02*
X221436759Y-110099633D01*
X227099243Y-89399702D02*
X230399232Y-86099713D01*
X217839283Y-110099633D02*
X217739295Y-110199621D01*
X227099243Y-93299689D02*
X227099243Y-89399702D01*
D28*
%TO.N,Net-(U1-VDD33)*%
X236099213Y-77962243D02*
X234599218Y-77962243D01*
X234864215Y-78227240D02*
X234599218Y-77962243D01*
X234864215Y-82799724D02*
X234864215Y-78227240D01*
%TO.N,Net-(U1-VDD18)*%
X233099223Y-77999740D02*
X233294216Y-78194733D01*
X231599228Y-77962243D02*
X233099223Y-77962243D01*
X233594215Y-82799724D02*
X233594215Y-78457235D01*
X233099223Y-77962243D02*
X233099223Y-77999740D01*
X233594215Y-78457235D02*
X233099223Y-77962243D01*
%TO.N,/DP*%
X236611787Y-63849788D02*
X236344197Y-63582198D01*
X242174192Y-73892952D02*
X239906002Y-71624762D01*
X236611787Y-62849788D02*
X237219197Y-62849788D01*
X239906002Y-71624762D02*
X232706026Y-71624762D01*
X232531025Y-63849788D02*
X237219197Y-63849788D01*
X236344197Y-63582198D02*
X236344197Y-63117378D01*
X236344197Y-63117378D02*
X236611787Y-62849788D01*
X240458298Y-93140590D02*
X241445181Y-93140590D01*
X232706026Y-71624762D02*
X230647267Y-69566003D01*
X239534215Y-90880525D02*
X239534215Y-92216507D01*
X239944215Y-90470525D02*
X239534215Y-90880525D01*
X239534215Y-92216507D02*
X240458298Y-93140590D01*
X239944215Y-88946524D02*
X239944215Y-90470525D01*
X230647267Y-69566003D02*
X230647267Y-65733546D01*
X241445181Y-93140590D02*
X242174192Y-92411579D01*
X242174192Y-92411579D02*
X242174192Y-73892952D01*
X237219197Y-63849788D02*
X236611787Y-63849788D01*
X230647267Y-65733546D02*
X232531025Y-63849788D01*
%TO.N,Net-(J1-CC2)*%
X235199216Y-62099793D02*
X235449221Y-61849788D01*
X235449221Y-61849788D02*
X237489200Y-61849788D01*
%TO.N,/DN*%
X239099203Y-92347180D02*
X240292613Y-93540590D01*
X240292613Y-93540590D02*
X241610867Y-93540590D01*
X240071687Y-71224762D02*
X232871712Y-71224762D01*
X232696711Y-64249788D02*
X232796711Y-64349788D01*
X237826607Y-63349788D02*
X237219197Y-63349788D01*
X238094197Y-63617378D02*
X237826607Y-63349788D01*
X238674215Y-90474709D02*
X239099203Y-90899697D01*
X242574192Y-73727266D02*
X240071687Y-71224762D01*
X242574192Y-92577264D02*
X242574192Y-73727266D01*
X239099203Y-90899697D02*
X239099203Y-92347180D01*
X238674215Y-88946524D02*
X238674215Y-90474709D01*
X231047267Y-69400317D02*
X231047267Y-65899232D01*
X241610867Y-93540590D02*
X242574192Y-92577264D01*
X231047267Y-65899232D02*
X232696711Y-64249788D01*
X238094197Y-64082198D02*
X238094197Y-63617378D01*
X232796711Y-64349788D02*
X237219197Y-64349788D01*
X237826607Y-64349788D02*
X238094197Y-64082198D01*
X232871712Y-71224762D02*
X231047267Y-69400317D01*
X237219197Y-64349788D02*
X237826607Y-64349788D01*
%TO.N,Net-(J1-CC1)*%
X235199216Y-65999780D02*
X236349208Y-64849788D01*
X236349208Y-64849788D02*
X237489200Y-64849788D01*
%TO.N,/DP4*%
X217849298Y-96299679D02*
X220099299Y-96299679D01*
X230292434Y-95524679D02*
X231914215Y-93902898D01*
X220874299Y-95524679D02*
X230292434Y-95524679D01*
X231914215Y-90880525D02*
X232324215Y-90470525D01*
X232324215Y-90470525D02*
X232324215Y-88946524D01*
X231914215Y-93902898D02*
X231914215Y-90880525D01*
X220099299Y-96299679D02*
X220874299Y-95524679D01*
%TO.N,/DN4*%
X220099299Y-94299679D02*
X220874299Y-95074679D01*
X220874299Y-95074679D02*
X230106038Y-95074679D01*
X217849298Y-94299679D02*
X220099299Y-94299679D01*
X230106038Y-95074679D02*
X231464215Y-93716502D01*
X231464215Y-90880525D02*
X231054215Y-90470525D01*
X231054215Y-90470525D02*
X231054215Y-88946524D01*
X231464215Y-93716502D02*
X231464215Y-90880525D01*
%TO.N,/DN2*%
X226174247Y-112506425D02*
X236544215Y-102136457D01*
X225881657Y-117544593D02*
X226149247Y-117812183D01*
X225149247Y-118419593D02*
X225149247Y-117812183D01*
X226149247Y-117557092D02*
X226174247Y-117532092D01*
X226149247Y-117812183D02*
X226149247Y-118419593D01*
X226174247Y-117532092D02*
X226174247Y-112506425D01*
X225149247Y-117812183D02*
X225416837Y-117544593D01*
X225416837Y-117544593D02*
X225881657Y-117544593D01*
X236134215Y-90470525D02*
X236134215Y-88946524D01*
X236544215Y-102136457D02*
X236544215Y-90880525D01*
X226149247Y-118419593D02*
X226149247Y-117557092D01*
X236544215Y-90880525D02*
X236134215Y-90470525D01*
%TO.N,/DP2*%
X236994215Y-102322853D02*
X236994215Y-90880525D01*
X237404215Y-90470525D02*
X237404215Y-88946524D01*
X225649247Y-119027003D02*
X225649247Y-118419593D01*
X226381657Y-119294593D02*
X225916837Y-119294593D01*
X226649247Y-118419593D02*
X226649247Y-119027003D01*
X226649247Y-119027003D02*
X226381657Y-119294593D01*
X226649247Y-118419593D02*
X226649247Y-117557092D01*
X236994215Y-90880525D02*
X237404215Y-90470525D01*
X226624247Y-117532092D02*
X226624247Y-112692821D01*
X225916837Y-119294593D02*
X225649247Y-119027003D01*
X226624247Y-112692821D02*
X236994215Y-102322853D01*
X226649247Y-117557092D02*
X226624247Y-117532092D01*
%TO.N,/DP3*%
X234454215Y-101562864D02*
X222092458Y-113924621D01*
X234864215Y-88946524D02*
X234864215Y-90470525D01*
X219989296Y-114699621D02*
X217739295Y-114699621D01*
X234454215Y-90880525D02*
X234454215Y-101562864D01*
X222092458Y-113924621D02*
X220764296Y-113924621D01*
X220764296Y-113924621D02*
X219989296Y-114699621D01*
X234864215Y-90470525D02*
X234454215Y-90880525D01*
%TO.N,/DN3*%
X221906062Y-113474621D02*
X220764296Y-113474621D01*
X219989296Y-112699621D02*
X217739295Y-112699621D01*
X234004215Y-101376468D02*
X221906062Y-113474621D01*
X234004215Y-90880525D02*
X234004215Y-101376468D01*
X233594215Y-88946524D02*
X233594215Y-90470525D01*
X220764296Y-113474621D02*
X219989296Y-112699621D01*
X233594215Y-90470525D02*
X234004215Y-90880525D01*
%TO.N,Net-(J4-CC1)*%
X224099253Y-116449612D02*
X224649247Y-116999606D01*
X224649247Y-116999606D02*
X224649247Y-118419593D01*
%TO.N,Net-(J4-CC2)*%
X227999240Y-116449612D02*
X227649247Y-116799605D01*
X227999240Y-116449612D02*
X228249245Y-116699617D01*
X227649247Y-116799605D02*
X227649247Y-118419593D01*
%TO.N,/DP1*%
X238674215Y-81275723D02*
X239084215Y-80865723D01*
X220824275Y-77024744D02*
X220049275Y-77799744D01*
X241099195Y-78381541D02*
X241099195Y-75217947D01*
X239084215Y-80865723D02*
X239084215Y-80396521D01*
X230192431Y-73424756D02*
X226592443Y-77024744D01*
X239306004Y-73424756D02*
X230192431Y-73424756D01*
X226592443Y-77024744D02*
X220824275Y-77024744D01*
X238674215Y-82799724D02*
X238674215Y-81275723D01*
X241099195Y-75217947D02*
X239306004Y-73424756D01*
X220049275Y-77799744D02*
X217799274Y-77799744D01*
X239084215Y-80396521D02*
X241099195Y-78381541D01*
%TO.N,/DN1*%
X239944215Y-82799724D02*
X239944215Y-81275723D01*
X220049275Y-75799744D02*
X217799274Y-75799744D01*
X239534215Y-80865723D02*
X239534215Y-80582917D01*
X241499195Y-78617937D02*
X241499195Y-74981551D01*
X239534215Y-80582917D02*
X241499195Y-78617937D01*
X239492400Y-72974756D02*
X230006035Y-72974756D01*
X226406047Y-76574744D02*
X220824275Y-76574744D01*
X230006035Y-72974756D02*
X226406047Y-76574744D01*
X241499195Y-74981551D02*
X239492400Y-72974756D01*
X239944215Y-81275723D02*
X239534215Y-80865723D01*
X220824275Y-76574744D02*
X220049275Y-75799744D01*
%TD*%
%TA.AperFunction,Conductor*%
%TO.N,GND*%
G36*
X233035864Y-90722201D02*
G01*
X233066601Y-90757673D01*
X233113692Y-90839237D01*
X233113694Y-90839240D01*
X233113695Y-90839241D01*
X233225499Y-90951045D01*
X233225500Y-90951046D01*
X233367397Y-91092942D01*
X233400881Y-91154263D01*
X233403715Y-91180622D01*
X233403715Y-101076370D01*
X233384030Y-101143409D01*
X233367396Y-101164051D01*
X222628433Y-111903013D01*
X222605613Y-111915473D01*
X222584909Y-111931203D01*
X222575443Y-111931947D01*
X222567110Y-111936498D01*
X222541174Y-111934643D01*
X222515255Y-111936682D01*
X222506890Y-111932191D01*
X222497418Y-111931514D01*
X222476601Y-111915930D01*
X222453695Y-111903633D01*
X222447109Y-111893852D01*
X222441485Y-111889642D01*
X222432344Y-111875530D01*
X222428907Y-111869341D01*
X222408655Y-111820447D01*
X222367824Y-111759339D01*
X222365352Y-111754887D01*
X222358755Y-111725566D01*
X222349780Y-111696902D01*
X222349760Y-111694689D01*
X222349760Y-110784250D01*
X222368222Y-110719153D01*
X222410165Y-110651152D01*
X222410166Y-110651150D01*
X222410167Y-110651149D01*
X222464433Y-110487386D01*
X222474759Y-110386310D01*
X222474758Y-109812957D01*
X222464433Y-109711880D01*
X222410167Y-109548117D01*
X222319599Y-109401283D01*
X222197609Y-109279293D01*
X222197608Y-109279292D01*
X222185201Y-109271640D01*
X222171473Y-109263172D01*
X222124749Y-109211226D01*
X222113526Y-109142263D01*
X222141369Y-109078181D01*
X222148878Y-109069964D01*
X227202172Y-104016669D01*
X227263493Y-103983186D01*
X227265510Y-103982765D01*
X227332740Y-103969393D01*
X227478422Y-103909050D01*
X227609532Y-103821445D01*
X227721032Y-103709945D01*
X227808637Y-103578835D01*
X227868980Y-103433153D01*
X227899743Y-103278498D01*
X227899743Y-103120814D01*
X227899743Y-103120811D01*
X227899742Y-103120809D01*
X227868981Y-102966166D01*
X227868981Y-102966164D01*
X227868980Y-102966159D01*
X227868978Y-102966154D01*
X227808640Y-102820483D01*
X227808633Y-102820470D01*
X227721032Y-102689367D01*
X227721029Y-102689363D01*
X227609535Y-102577869D01*
X227609531Y-102577866D01*
X227478428Y-102490265D01*
X227478415Y-102490258D01*
X227332744Y-102429920D01*
X227332732Y-102429917D01*
X227178088Y-102399156D01*
X227178085Y-102399156D01*
X227020401Y-102399156D01*
X227020398Y-102399156D01*
X226865753Y-102429917D01*
X226865741Y-102429920D01*
X226720070Y-102490258D01*
X226720057Y-102490265D01*
X226588954Y-102577866D01*
X226588950Y-102577869D01*
X226477456Y-102689363D01*
X226477453Y-102689367D01*
X226389852Y-102820470D01*
X226389845Y-102820483D01*
X226329506Y-102966156D01*
X226329504Y-102966164D01*
X226316162Y-103033238D01*
X226283777Y-103095149D01*
X226282226Y-103096727D01*
X220931487Y-108447465D01*
X220931486Y-108447466D01*
X220860297Y-108554009D01*
X220860293Y-108554016D01*
X220811259Y-108672396D01*
X220811257Y-108672402D01*
X220786260Y-108798068D01*
X220786260Y-109142020D01*
X220766575Y-109209059D01*
X220727358Y-109247558D01*
X220675909Y-109279292D01*
X220553920Y-109401281D01*
X220553320Y-109402041D01*
X220552775Y-109402426D01*
X220548812Y-109406390D01*
X220548134Y-109405712D01*
X220496300Y-109442420D01*
X220456051Y-109449134D01*
X219690829Y-109449134D01*
X219623790Y-109429449D01*
X219594182Y-109402821D01*
X219593864Y-109402426D01*
X219501454Y-109287462D01*
X219491292Y-109279293D01*
X219361504Y-109174967D01*
X219200645Y-109095188D01*
X219026397Y-109051855D01*
X219026398Y-109051855D01*
X219002205Y-109050214D01*
X218986079Y-109049121D01*
X216492511Y-109049121D01*
X216476384Y-109050214D01*
X216452192Y-109051855D01*
X216277944Y-109095188D01*
X216117085Y-109174967D01*
X215977136Y-109287461D01*
X215977135Y-109287462D01*
X215864643Y-109427409D01*
X215864642Y-109427410D01*
X215864642Y-109427411D01*
X215838452Y-109480217D01*
X215791033Y-109531529D01*
X215727365Y-109549122D01*
X212820087Y-109549122D01*
X212753048Y-109529437D01*
X212732406Y-109512803D01*
X208886124Y-105666520D01*
X208852639Y-105605197D01*
X208849805Y-105578839D01*
X208849805Y-102173692D01*
X221598771Y-102173692D01*
X221598771Y-102425625D01*
X221638180Y-102674441D01*
X221638180Y-102674444D01*
X221716026Y-102914029D01*
X221776766Y-103033238D01*
X221830398Y-103138496D01*
X221978474Y-103342305D01*
X222156610Y-103520441D01*
X222360419Y-103668517D01*
X222584883Y-103782887D01*
X222584885Y-103782888D01*
X222808361Y-103855499D01*
X222824475Y-103860735D01*
X222923648Y-103876442D01*
X223073290Y-103900144D01*
X223073295Y-103900144D01*
X223325222Y-103900144D01*
X223445845Y-103881038D01*
X223574037Y-103860735D01*
X223574040Y-103860734D01*
X223574041Y-103860734D01*
X223813626Y-103782888D01*
X223813626Y-103782887D01*
X223813629Y-103782887D01*
X224038093Y-103668517D01*
X224241902Y-103520441D01*
X224420038Y-103342305D01*
X224568114Y-103138496D01*
X224682484Y-102914032D01*
X224688988Y-102894015D01*
X224760331Y-102674444D01*
X224760331Y-102674443D01*
X224760332Y-102674440D01*
X224783356Y-102529072D01*
X224799741Y-102425625D01*
X224799741Y-102173692D01*
X224761890Y-101934716D01*
X224760332Y-101924878D01*
X224760331Y-101924874D01*
X224760331Y-101924873D01*
X224682485Y-101685288D01*
X224568113Y-101460821D01*
X224420038Y-101257013D01*
X224241902Y-101078877D01*
X224038093Y-100930801D01*
X223813626Y-100816429D01*
X223574039Y-100738583D01*
X223325222Y-100699174D01*
X223325217Y-100699174D01*
X223073295Y-100699174D01*
X223073290Y-100699174D01*
X222824473Y-100738583D01*
X222824470Y-100738583D01*
X222584885Y-100816429D01*
X222360418Y-100930801D01*
X222244138Y-101015283D01*
X222156610Y-101078877D01*
X222156608Y-101078879D01*
X222156607Y-101078879D01*
X221978476Y-101257010D01*
X221978476Y-101257011D01*
X221978474Y-101257013D01*
X221914880Y-101344541D01*
X221830398Y-101460821D01*
X221716026Y-101685288D01*
X221638180Y-101924873D01*
X221638180Y-101924876D01*
X221598771Y-102173692D01*
X208849805Y-102173692D01*
X208849805Y-94820493D01*
X208869490Y-94753454D01*
X208886124Y-94732812D01*
X211132439Y-92486497D01*
X211193762Y-92453012D01*
X211220120Y-92450178D01*
X215837368Y-92450178D01*
X215904407Y-92469863D01*
X215948455Y-92519081D01*
X215974645Y-92571889D01*
X215974646Y-92571890D01*
X216086874Y-92711509D01*
X216087139Y-92711838D01*
X216227088Y-92824332D01*
X216387949Y-92904112D01*
X216489411Y-92929344D01*
X216549718Y-92964626D01*
X216581377Y-93026912D01*
X216574336Y-93096426D01*
X216530831Y-93151098D01*
X216489411Y-93170014D01*
X216387947Y-93195246D01*
X216227088Y-93275025D01*
X216087139Y-93387519D01*
X216087138Y-93387520D01*
X215974644Y-93527469D01*
X215894865Y-93688328D01*
X215851532Y-93862576D01*
X215848798Y-93902897D01*
X215848798Y-94696460D01*
X215851532Y-94736781D01*
X215894865Y-94911029D01*
X215974644Y-95071888D01*
X216087138Y-95211837D01*
X216087299Y-95211998D01*
X216087365Y-95212119D01*
X216091351Y-95217078D01*
X216090462Y-95217791D01*
X216120784Y-95273321D01*
X216115800Y-95343013D01*
X216090831Y-95381862D01*
X216091351Y-95382280D01*
X216087424Y-95387165D01*
X216087299Y-95387360D01*
X216087138Y-95387520D01*
X215974644Y-95527469D01*
X215894865Y-95688328D01*
X215851532Y-95862576D01*
X215848798Y-95902897D01*
X215848798Y-96696460D01*
X215851532Y-96736781D01*
X215894865Y-96911029D01*
X215974644Y-97071888D01*
X215974645Y-97071889D01*
X216087139Y-97211838D01*
X216227088Y-97324332D01*
X216387949Y-97404112D01*
X216562198Y-97447445D01*
X216602514Y-97450179D01*
X216602516Y-97450179D01*
X219096080Y-97450179D01*
X219096082Y-97450179D01*
X219136398Y-97447445D01*
X219310647Y-97404112D01*
X219471508Y-97324332D01*
X219611457Y-97211838D01*
X219723951Y-97071889D01*
X219774938Y-96969084D01*
X219785715Y-96957421D01*
X219792313Y-96942976D01*
X219808943Y-96932288D01*
X219822359Y-96917772D01*
X219838450Y-96913325D01*
X219851091Y-96905202D01*
X219886026Y-96900179D01*
X220012630Y-96900179D01*
X220012646Y-96900180D01*
X220020242Y-96900180D01*
X220178353Y-96900180D01*
X220178356Y-96900180D01*
X220331084Y-96859256D01*
X220381203Y-96830318D01*
X220468015Y-96780199D01*
X220579819Y-96668395D01*
X220579820Y-96668392D01*
X221086717Y-96161495D01*
X221148039Y-96128013D01*
X221174397Y-96125179D01*
X230205765Y-96125179D01*
X230205781Y-96125180D01*
X230213377Y-96125180D01*
X230371488Y-96125180D01*
X230371491Y-96125180D01*
X230524219Y-96084256D01*
X230574338Y-96055318D01*
X230661150Y-96005199D01*
X230772954Y-95893395D01*
X230772954Y-95893393D01*
X230783162Y-95883186D01*
X230783163Y-95883183D01*
X232394735Y-94271614D01*
X232473792Y-94134682D01*
X232514716Y-93981955D01*
X232514716Y-93823840D01*
X232514716Y-93816245D01*
X232514715Y-93816227D01*
X232514715Y-91180622D01*
X232534400Y-91113583D01*
X232551034Y-91092941D01*
X232642636Y-91001339D01*
X232804735Y-90839241D01*
X232851827Y-90757673D01*
X232902392Y-90709458D01*
X232970999Y-90696234D01*
X233035864Y-90722201D01*
G37*
%TD.AperFunction*%
%TA.AperFunction,Conductor*%
G36*
X235669918Y-79557085D02*
G01*
X235691817Y-79581907D01*
X235777422Y-79710024D01*
X235777425Y-79710028D01*
X235888919Y-79821522D01*
X235888923Y-79821525D01*
X236020026Y-79909126D01*
X236020039Y-79909133D01*
X236165710Y-79969471D01*
X236165715Y-79969473D01*
X236320365Y-80000235D01*
X236320368Y-80000236D01*
X236320370Y-80000236D01*
X236478056Y-80000236D01*
X236536540Y-79988602D01*
X236605525Y-79974880D01*
X236675115Y-79981107D01*
X236730293Y-80023969D01*
X236753538Y-80089859D01*
X236753716Y-80096497D01*
X236753716Y-81337569D01*
X236734031Y-81404608D01*
X236717397Y-81425250D01*
X236716467Y-81426179D01*
X236630221Y-81541388D01*
X236630217Y-81541395D01*
X236579923Y-81676241D01*
X236573516Y-81735840D01*
X236573516Y-81735847D01*
X236573515Y-81735859D01*
X236573515Y-83344917D01*
X236553830Y-83411956D01*
X236537196Y-83432598D01*
X235878566Y-84091227D01*
X235817243Y-84124712D01*
X235747551Y-84119728D01*
X235691618Y-84077856D01*
X235667201Y-84012392D01*
X235674704Y-83960211D01*
X235688506Y-83923207D01*
X235688506Y-83923206D01*
X235694915Y-83863597D01*
X235694914Y-81735852D01*
X235688506Y-81676241D01*
X235667721Y-81620514D01*
X235638212Y-81541395D01*
X235638208Y-81541388D01*
X235551963Y-81426181D01*
X235551961Y-81426178D01*
X235551959Y-81426176D01*
X235551957Y-81426174D01*
X235514403Y-81398061D01*
X235472532Y-81342127D01*
X235464715Y-81298795D01*
X235464715Y-79650798D01*
X235484400Y-79583759D01*
X235537204Y-79538004D01*
X235606362Y-79528060D01*
X235669918Y-79557085D01*
G37*
%TD.AperFunction*%
%TA.AperFunction,Conductor*%
G36*
X234423784Y-64950623D02*
G01*
X234424934Y-64950309D01*
X234457247Y-64960449D01*
X234489681Y-64969973D01*
X234490459Y-64970871D01*
X234491598Y-64971229D01*
X234513303Y-64997234D01*
X234535436Y-65022777D01*
X234535605Y-65023955D01*
X234536369Y-65024870D01*
X234540566Y-65058455D01*
X234545380Y-65091935D01*
X234544885Y-65093018D01*
X234545033Y-65094200D01*
X234530414Y-65124705D01*
X234516355Y-65155491D01*
X234515184Y-65156486D01*
X234514838Y-65157209D01*
X234493849Y-65174727D01*
X234494033Y-65174959D01*
X234488365Y-65179440D01*
X234366377Y-65301428D01*
X234275809Y-65448261D01*
X234275808Y-65448264D01*
X234221542Y-65612027D01*
X234221542Y-65612028D01*
X234221541Y-65612028D01*
X234211216Y-65713095D01*
X234211216Y-66286449D01*
X234211217Y-66286467D01*
X234221541Y-66387532D01*
X234257825Y-66497029D01*
X234275808Y-66551296D01*
X234338899Y-66653583D01*
X234342968Y-66660179D01*
X234345052Y-66667798D01*
X234350223Y-66673765D01*
X234354140Y-66701012D01*
X234361408Y-66727572D01*
X234359043Y-66735106D01*
X234360167Y-66742923D01*
X234348728Y-66767968D01*
X234340485Y-66794235D01*
X234334423Y-66799294D01*
X234331142Y-66806479D01*
X234307978Y-66821365D01*
X234286843Y-66839005D01*
X234277512Y-66840944D01*
X234272364Y-66844253D01*
X234237429Y-66849276D01*
X234204157Y-66849276D01*
X234137118Y-66829591D01*
X234135265Y-66828377D01*
X234078408Y-66790385D01*
X234078393Y-66790377D01*
X233932722Y-66730039D01*
X233932710Y-66730036D01*
X233778066Y-66699275D01*
X233778063Y-66699275D01*
X233620379Y-66699275D01*
X233620376Y-66699275D01*
X233465731Y-66730036D01*
X233465719Y-66730039D01*
X233320048Y-66790377D01*
X233320035Y-66790384D01*
X233188932Y-66877985D01*
X233188928Y-66877988D01*
X233077434Y-66989482D01*
X233077431Y-66989486D01*
X232989830Y-67120589D01*
X232989823Y-67120602D01*
X232929485Y-67266273D01*
X232929482Y-67266285D01*
X232898721Y-67420928D01*
X232898721Y-67578621D01*
X232929482Y-67733264D01*
X232929485Y-67733276D01*
X232989823Y-67878947D01*
X232989830Y-67878960D01*
X233077431Y-68010063D01*
X233077434Y-68010067D01*
X233188928Y-68121561D01*
X233188932Y-68121564D01*
X233320035Y-68209165D01*
X233320048Y-68209172D01*
X233465719Y-68269510D01*
X233465724Y-68269512D01*
X233620374Y-68300274D01*
X233620377Y-68300275D01*
X233620379Y-68300275D01*
X233778065Y-68300275D01*
X233778066Y-68300274D01*
X233932718Y-68269512D01*
X234078400Y-68209169D01*
X234078405Y-68209165D01*
X234078408Y-68209164D01*
X234135265Y-68171173D01*
X234201942Y-68150294D01*
X234204157Y-68150274D01*
X234724716Y-68150274D01*
X234791755Y-68169959D01*
X234837510Y-68222763D01*
X234848716Y-68274274D01*
X234848716Y-69063839D01*
X234848716Y-69063841D01*
X234848715Y-69063841D01*
X234873713Y-69189507D01*
X234873715Y-69189513D01*
X234922749Y-69307893D01*
X234922753Y-69307900D01*
X234993942Y-69414443D01*
X235988850Y-70409351D01*
X235987830Y-70410370D01*
X236023103Y-70462151D01*
X236024976Y-70531996D01*
X235988790Y-70591765D01*
X235926035Y-70622483D01*
X235905105Y-70624262D01*
X233171809Y-70624262D01*
X233104770Y-70604577D01*
X233084128Y-70587943D01*
X231684086Y-69187901D01*
X231650601Y-69126578D01*
X231647767Y-69100220D01*
X231647767Y-66199329D01*
X231667452Y-66132290D01*
X231684086Y-66111648D01*
X232809127Y-64986607D01*
X232870450Y-64953122D01*
X232896808Y-64950288D01*
X234422642Y-64950288D01*
X234423784Y-64950623D01*
G37*
%TD.AperFunction*%
%TA.AperFunction,Conductor*%
G36*
X243808267Y-57213277D02*
G01*
X243856769Y-57220964D01*
X243893655Y-57232952D01*
X243928591Y-57250755D01*
X243959972Y-57273556D01*
X243987696Y-57301280D01*
X244010497Y-57332661D01*
X244028299Y-57367595D01*
X244040289Y-57404486D01*
X244047972Y-57452965D01*
X244049500Y-57472374D01*
X244049500Y-112155072D01*
X244029815Y-112222111D01*
X244013181Y-112242753D01*
X231101252Y-125154682D01*
X231039929Y-125188167D01*
X231013571Y-125191001D01*
X206068325Y-125191001D01*
X206052140Y-125189940D01*
X206038672Y-125188167D01*
X205958686Y-125177636D01*
X205927419Y-125169258D01*
X205847905Y-125136322D01*
X205819873Y-125120138D01*
X205763836Y-125077140D01*
X205751591Y-125067744D01*
X205728705Y-125044858D01*
X205676311Y-124976576D01*
X205660127Y-124948544D01*
X205627191Y-124869030D01*
X205618813Y-124837762D01*
X205606511Y-124744317D01*
X205605450Y-124728132D01*
X205605450Y-105963717D01*
X207548806Y-105963717D01*
X207573804Y-106089384D01*
X207573806Y-106089390D01*
X207622840Y-106207770D01*
X207622844Y-106207777D01*
X207694033Y-106314320D01*
X207694034Y-106314321D01*
X211994005Y-110614290D01*
X212084611Y-110704896D01*
X212084612Y-110704897D01*
X212191146Y-110776081D01*
X212191150Y-110776083D01*
X212191153Y-110776085D01*
X212216903Y-110786751D01*
X212309537Y-110825122D01*
X212414360Y-110845972D01*
X212430291Y-110849141D01*
X212435209Y-110850120D01*
X212435211Y-110850120D01*
X212435212Y-110850120D01*
X212563348Y-110850120D01*
X215727365Y-110850120D01*
X215794404Y-110869805D01*
X215838452Y-110919023D01*
X215864642Y-110971831D01*
X215977136Y-111111780D01*
X216117085Y-111224274D01*
X216277946Y-111304054D01*
X216379408Y-111329286D01*
X216439715Y-111364568D01*
X216471374Y-111426854D01*
X216464333Y-111496368D01*
X216420828Y-111551040D01*
X216379408Y-111569956D01*
X216277944Y-111595188D01*
X216117085Y-111674967D01*
X215977136Y-111787461D01*
X215977135Y-111787462D01*
X215864641Y-111927411D01*
X215784862Y-112088270D01*
X215741529Y-112262518D01*
X215738795Y-112302839D01*
X215738795Y-113096402D01*
X215741529Y-113136723D01*
X215784862Y-113310971D01*
X215864641Y-113471830D01*
X215977135Y-113611779D01*
X215977296Y-113611940D01*
X215977362Y-113612061D01*
X215981348Y-113617020D01*
X215980459Y-113617733D01*
X216010781Y-113673263D01*
X216005797Y-113742955D01*
X215980828Y-113781804D01*
X215981348Y-113782222D01*
X215977421Y-113787107D01*
X215977296Y-113787302D01*
X215977135Y-113787462D01*
X215864641Y-113927411D01*
X215784862Y-114088270D01*
X215741529Y-114262518D01*
X215738795Y-114302839D01*
X215738795Y-115096402D01*
X215741529Y-115136723D01*
X215784862Y-115310971D01*
X215864641Y-115471830D01*
X215900767Y-115516772D01*
X215977136Y-115611780D01*
X216117085Y-115724274D01*
X216277946Y-115804054D01*
X216452195Y-115847387D01*
X216492511Y-115850121D01*
X216492513Y-115850121D01*
X218986077Y-115850121D01*
X218986079Y-115850121D01*
X219026395Y-115847387D01*
X219200644Y-115804054D01*
X219361505Y-115724274D01*
X219501454Y-115611780D01*
X219613948Y-115471831D01*
X219664935Y-115369026D01*
X219675712Y-115357363D01*
X219682310Y-115342918D01*
X219698940Y-115332230D01*
X219712356Y-115317714D01*
X219728447Y-115313267D01*
X219741088Y-115305144D01*
X219776023Y-115300121D01*
X219902627Y-115300121D01*
X219902643Y-115300122D01*
X219910239Y-115300122D01*
X220068350Y-115300122D01*
X220068353Y-115300122D01*
X220221081Y-115259198D01*
X220292325Y-115218065D01*
X220358012Y-115180141D01*
X220469816Y-115068337D01*
X220469816Y-115068335D01*
X220480017Y-115058135D01*
X220480020Y-115058130D01*
X220976714Y-114561437D01*
X221038036Y-114527955D01*
X221064394Y-114525121D01*
X221336700Y-114525121D01*
X221403739Y-114544806D01*
X221449494Y-114597610D01*
X221459438Y-114666768D01*
X221430413Y-114730324D01*
X221384152Y-114763682D01*
X221320088Y-114790217D01*
X221320075Y-114790224D01*
X221188972Y-114877825D01*
X221188968Y-114877828D01*
X221077474Y-114989322D01*
X221077471Y-114989326D01*
X220989870Y-115120429D01*
X220989863Y-115120442D01*
X220929525Y-115266113D01*
X220929522Y-115266125D01*
X220898761Y-115420768D01*
X220898761Y-115578461D01*
X220929522Y-115733104D01*
X220929525Y-115733116D01*
X220989863Y-115878787D01*
X220989871Y-115878802D01*
X221027863Y-115935659D01*
X221048742Y-116002336D01*
X221048762Y-116004551D01*
X221048762Y-116163683D01*
X221063949Y-116240027D01*
X221063949Y-116240029D01*
X221073759Y-116289348D01*
X221073761Y-116289356D01*
X221122795Y-116407736D01*
X221122799Y-116407743D01*
X221193988Y-116514286D01*
X221193989Y-116514287D01*
X222662428Y-117982724D01*
X222695913Y-118044047D01*
X222698747Y-118070405D01*
X222698747Y-118910294D01*
X222700211Y-118928891D01*
X222685846Y-118997268D01*
X222660449Y-119027151D01*
X222661629Y-119028331D01*
X222548732Y-119141228D01*
X222472966Y-119272456D01*
X222433747Y-119418827D01*
X222433747Y-119570358D01*
X222472966Y-119716729D01*
X222506674Y-119775112D01*
X222548732Y-119847958D01*
X222655882Y-119955108D01*
X222787112Y-120030874D01*
X222933481Y-120070093D01*
X222933483Y-120070093D01*
X223085011Y-120070093D01*
X223085013Y-120070093D01*
X223231382Y-120030874D01*
X223362612Y-119955108D01*
X223469762Y-119847958D01*
X223545528Y-119716728D01*
X223580288Y-119586999D01*
X223616653Y-119527339D01*
X223677576Y-119497149D01*
X223688725Y-119495093D01*
X223714941Y-119495093D01*
X223751816Y-119492191D01*
X223834096Y-119468285D01*
X223840216Y-119467157D01*
X223869019Y-119470141D01*
X223897975Y-119470224D01*
X223909612Y-119474347D01*
X223909713Y-119474358D01*
X223909769Y-119474403D01*
X223910145Y-119474536D01*
X223924011Y-119480280D01*
X224036527Y-119495093D01*
X224036534Y-119495093D01*
X224261960Y-119495093D01*
X224261967Y-119495093D01*
X224374483Y-119480280D01*
X224374483Y-119480279D01*
X224382542Y-119479219D01*
X224382945Y-119482282D01*
X224415549Y-119482282D01*
X224415952Y-119479219D01*
X224424010Y-119480279D01*
X224424011Y-119480280D01*
X224536527Y-119495093D01*
X224536534Y-119495093D01*
X224761960Y-119495093D01*
X224761967Y-119495093D01*
X224874483Y-119480280D01*
X224874483Y-119480279D01*
X224882542Y-119479219D01*
X224882945Y-119482282D01*
X224915549Y-119482282D01*
X224915952Y-119479219D01*
X224924010Y-119480279D01*
X224924011Y-119480280D01*
X225036527Y-119495093D01*
X225036534Y-119495093D01*
X225216740Y-119495093D01*
X225246180Y-119503737D01*
X225276167Y-119510261D01*
X225281182Y-119514015D01*
X225283779Y-119514778D01*
X225304420Y-119531411D01*
X225431976Y-119658967D01*
X225431986Y-119658978D01*
X225436316Y-119663308D01*
X225436317Y-119663309D01*
X225548121Y-119775113D01*
X225548123Y-119775114D01*
X225548127Y-119775117D01*
X225674292Y-119847957D01*
X225685053Y-119854170D01*
X225796856Y-119884127D01*
X225837779Y-119895093D01*
X225837780Y-119895093D01*
X226294988Y-119895093D01*
X226295004Y-119895094D01*
X226302600Y-119895094D01*
X226460711Y-119895094D01*
X226460714Y-119895094D01*
X226613442Y-119854170D01*
X226663561Y-119825232D01*
X226750373Y-119775113D01*
X226862177Y-119663309D01*
X226862178Y-119663306D01*
X226994074Y-119531409D01*
X227055395Y-119497927D01*
X227081753Y-119495093D01*
X227261960Y-119495093D01*
X227261967Y-119495093D01*
X227374483Y-119480280D01*
X227374483Y-119480279D01*
X227382542Y-119479219D01*
X227382945Y-119482282D01*
X227415549Y-119482282D01*
X227415952Y-119479219D01*
X227424010Y-119480279D01*
X227424011Y-119480280D01*
X227536527Y-119495093D01*
X227536534Y-119495093D01*
X227761960Y-119495093D01*
X227761967Y-119495093D01*
X227874483Y-119480280D01*
X227888333Y-119474542D01*
X227906293Y-119472610D01*
X227923012Y-119465761D01*
X227948578Y-119468062D01*
X227957800Y-119467070D01*
X227958278Y-119467157D01*
X227964395Y-119468285D01*
X228046678Y-119492191D01*
X228083553Y-119495093D01*
X228109769Y-119495093D01*
X228120918Y-119497149D01*
X228142389Y-119508000D01*
X228165470Y-119514778D01*
X228173005Y-119523474D01*
X228183276Y-119528665D01*
X228195472Y-119549402D01*
X228211225Y-119567582D01*
X228218206Y-119587000D01*
X228252966Y-119716729D01*
X228286674Y-119775112D01*
X228328732Y-119847958D01*
X228435882Y-119955108D01*
X228567112Y-120030874D01*
X228713481Y-120070093D01*
X228713483Y-120070093D01*
X228865011Y-120070093D01*
X228865013Y-120070093D01*
X229011382Y-120030874D01*
X229142612Y-119955108D01*
X229249762Y-119847958D01*
X229325528Y-119716728D01*
X229364747Y-119570359D01*
X229364747Y-119418827D01*
X229325528Y-119272458D01*
X229249762Y-119141228D01*
X229142612Y-119034078D01*
X229142611Y-119034077D01*
X229136865Y-119028331D01*
X229138727Y-119026468D01*
X229105212Y-118980570D01*
X229098283Y-118928885D01*
X229099747Y-118910287D01*
X229099747Y-117928899D01*
X229096845Y-117892024D01*
X229079015Y-117830653D01*
X229079213Y-117760789D01*
X229110408Y-117708382D01*
X229344861Y-117473930D01*
X229406184Y-117440445D01*
X229432542Y-117437611D01*
X229785905Y-117437611D01*
X229785911Y-117437611D01*
X229886988Y-117427286D01*
X230050751Y-117373020D01*
X230197585Y-117282452D01*
X230319575Y-117160462D01*
X230410143Y-117013628D01*
X230464409Y-116849865D01*
X230474735Y-116748789D01*
X230474734Y-116050436D01*
X230466204Y-115966936D01*
X230464409Y-115949359D01*
X230451947Y-115911751D01*
X230410143Y-115785596D01*
X230319575Y-115638762D01*
X230197585Y-115516772D01*
X230050751Y-115426204D01*
X229886988Y-115371938D01*
X229886986Y-115371937D01*
X229785919Y-115361612D01*
X229785912Y-115361612D01*
X229432542Y-115361612D01*
X229365503Y-115341927D01*
X229344861Y-115325293D01*
X229011058Y-114991490D01*
X228977573Y-114930167D01*
X228974739Y-114903817D01*
X228974739Y-114325436D01*
X228964414Y-114224359D01*
X228910148Y-114060596D01*
X228819580Y-113913762D01*
X228697590Y-113791772D01*
X228697587Y-113791769D01*
X228696823Y-113791165D01*
X228696435Y-113790617D01*
X228694188Y-113788370D01*
X228692536Y-113787616D01*
X228675091Y-113760471D01*
X228656449Y-113734141D01*
X228655845Y-113730524D01*
X228654762Y-113728838D01*
X228649739Y-113693903D01*
X228649739Y-113642056D01*
X228669424Y-113575017D01*
X228670638Y-113573164D01*
X228708629Y-113516307D01*
X228708630Y-113516304D01*
X228708634Y-113516299D01*
X228768977Y-113370617D01*
X228799740Y-113215962D01*
X228799740Y-113058278D01*
X228799740Y-113058275D01*
X228799739Y-113058273D01*
X228768978Y-112903630D01*
X228768977Y-112903623D01*
X228734926Y-112821415D01*
X228708637Y-112757947D01*
X228708630Y-112757934D01*
X228621029Y-112626831D01*
X228621026Y-112626827D01*
X228509532Y-112515333D01*
X228509528Y-112515330D01*
X228434704Y-112465334D01*
X228378425Y-112427729D01*
X228378412Y-112427722D01*
X228239923Y-112370359D01*
X233379449Y-112370359D01*
X233379449Y-112502143D01*
X233382983Y-112515331D01*
X233413557Y-112629438D01*
X233415364Y-112632567D01*
X233479449Y-112743565D01*
X236454449Y-115718565D01*
X236547635Y-115811751D01*
X236547637Y-115811752D01*
X236547641Y-115811755D01*
X236614093Y-115850121D01*
X236614095Y-115850122D01*
X236661757Y-115877640D01*
X236661758Y-115877640D01*
X236661763Y-115877643D01*
X236789056Y-115911751D01*
X236789057Y-115911751D01*
X236789058Y-115911751D01*
X236920839Y-115911751D01*
X236920841Y-115911751D01*
X237048135Y-115877643D01*
X237162263Y-115811751D01*
X242380449Y-110593565D01*
X242429995Y-110507748D01*
X242446341Y-110479437D01*
X242480449Y-110352143D01*
X242480449Y-110220358D01*
X242446341Y-110093065D01*
X242380449Y-109978936D01*
X242287264Y-109885751D01*
X242287263Y-109885750D01*
X242282933Y-109881420D01*
X242282922Y-109881410D01*
X239412519Y-107011007D01*
X239412517Y-107011004D01*
X239312265Y-106910752D01*
X239312260Y-106910748D01*
X239198137Y-106844860D01*
X239198136Y-106844859D01*
X239198135Y-106844859D01*
X239070842Y-106810751D01*
X239070841Y-106810751D01*
X238939057Y-106810751D01*
X238811761Y-106844859D01*
X238697635Y-106910751D01*
X238697632Y-106910753D01*
X233479451Y-112128934D01*
X233479449Y-112128937D01*
X233413557Y-112243063D01*
X233390020Y-112330907D01*
X233379449Y-112370359D01*
X228239923Y-112370359D01*
X228232741Y-112367384D01*
X228232731Y-112367381D01*
X228098423Y-112340665D01*
X228036512Y-112308280D01*
X228001938Y-112247564D01*
X228005679Y-112177794D01*
X228034932Y-112131369D01*
X237352721Y-102813581D01*
X237352726Y-102813577D01*
X237362929Y-102803373D01*
X237362931Y-102803373D01*
X237474735Y-102691569D01*
X237553792Y-102554637D01*
X237594715Y-102401910D01*
X237594715Y-91180622D01*
X237614400Y-91113583D01*
X237631034Y-91092941D01*
X237722636Y-91001339D01*
X237884735Y-90839241D01*
X237930621Y-90759762D01*
X237981186Y-90711549D01*
X238049792Y-90698325D01*
X238114657Y-90724292D01*
X238145395Y-90759765D01*
X238191278Y-90839240D01*
X238193695Y-90843425D01*
X238305499Y-90955229D01*
X238305500Y-90955230D01*
X238462385Y-91112114D01*
X238495869Y-91173436D01*
X238498703Y-91199794D01*
X238498703Y-92260510D01*
X238498702Y-92260528D01*
X238498702Y-92426234D01*
X238498701Y-92426234D01*
X238539627Y-92578969D01*
X238539628Y-92578970D01*
X238557889Y-92610598D01*
X238557890Y-92610599D01*
X238618680Y-92715892D01*
X238618684Y-92715897D01*
X238737552Y-92834765D01*
X238737557Y-92834769D01*
X239923897Y-94021110D01*
X239923899Y-94021111D01*
X239923903Y-94021114D01*
X240060822Y-94100163D01*
X240060825Y-94100165D01*
X240060829Y-94100167D01*
X240213556Y-94141091D01*
X240213558Y-94141091D01*
X240379267Y-94141091D01*
X240379283Y-94141090D01*
X241531806Y-94141090D01*
X241531810Y-94141091D01*
X241689925Y-94141090D01*
X241842652Y-94100167D01*
X241895897Y-94069426D01*
X241898549Y-94067895D01*
X241898550Y-94067894D01*
X241979583Y-94021110D01*
X242091387Y-93909306D01*
X242091387Y-93909304D01*
X242101591Y-93899101D01*
X242101594Y-93899096D01*
X243054712Y-92945980D01*
X243133769Y-92809048D01*
X243174693Y-92656321D01*
X243174693Y-92498206D01*
X243174693Y-92490611D01*
X243174692Y-92490593D01*
X243174692Y-73816325D01*
X243174693Y-73816312D01*
X243174693Y-73648211D01*
X243174693Y-73648209D01*
X243133769Y-73495481D01*
X243090717Y-73420913D01*
X243054712Y-73358550D01*
X242942908Y-73246746D01*
X242942907Y-73246745D01*
X242938577Y-73242415D01*
X242938566Y-73242405D01*
X240559277Y-70863117D01*
X240559275Y-70863114D01*
X240440404Y-70744243D01*
X240440403Y-70744242D01*
X240353591Y-70694122D01*
X240353591Y-70694121D01*
X240353587Y-70694120D01*
X240303472Y-70665185D01*
X240150744Y-70624261D01*
X239992630Y-70624261D01*
X239985034Y-70624261D01*
X239985018Y-70624262D01*
X238906152Y-70624262D01*
X238839113Y-70604577D01*
X238793358Y-70551773D01*
X238783414Y-70482615D01*
X238812439Y-70419059D01*
X238818471Y-70412581D01*
X238820992Y-70410059D01*
X238820995Y-70410056D01*
X238908600Y-70278946D01*
X238968943Y-70133264D01*
X238999706Y-69978609D01*
X238999706Y-69820925D01*
X238999706Y-69820922D01*
X238999705Y-69820920D01*
X238968944Y-69666277D01*
X238968943Y-69666270D01*
X238910300Y-69524691D01*
X238908603Y-69520594D01*
X238908596Y-69520581D01*
X238820995Y-69389478D01*
X238820992Y-69389474D01*
X238709498Y-69277980D01*
X238709494Y-69277977D01*
X238578391Y-69190376D01*
X238578378Y-69190369D01*
X238432707Y-69130031D01*
X238432695Y-69130028D01*
X238278051Y-69099267D01*
X238278048Y-69099267D01*
X238120364Y-69099267D01*
X238120361Y-69099267D01*
X237965716Y-69130028D01*
X237965704Y-69130031D01*
X237820033Y-69190369D01*
X237820018Y-69190377D01*
X237763162Y-69228369D01*
X237696485Y-69249248D01*
X237694270Y-69249268D01*
X236720020Y-69249268D01*
X236652981Y-69229583D01*
X236632339Y-69212949D01*
X236186033Y-68766643D01*
X236152548Y-68705320D01*
X236149714Y-68678962D01*
X236149714Y-67430582D01*
X236169399Y-67363543D01*
X236186033Y-67342901D01*
X236692327Y-66836607D01*
X236753650Y-66803122D01*
X236780008Y-66800288D01*
X237709883Y-66800288D01*
X237709891Y-66800288D01*
X237728490Y-66798824D01*
X237796867Y-66813185D01*
X237826753Y-66838587D01*
X237827935Y-66837406D01*
X237833681Y-66843152D01*
X237833682Y-66843153D01*
X237940832Y-66950303D01*
X238072062Y-67026069D01*
X238218431Y-67065288D01*
X238218433Y-67065288D01*
X238369961Y-67065288D01*
X238369963Y-67065288D01*
X238516332Y-67026069D01*
X238647562Y-66950303D01*
X238754712Y-66843153D01*
X238830478Y-66711923D01*
X238869697Y-66565554D01*
X238869697Y-66414022D01*
X238830478Y-66267653D01*
X238754712Y-66136423D01*
X238647562Y-66029273D01*
X238581947Y-65991390D01*
X238516333Y-65953507D01*
X238386604Y-65918747D01*
X238326943Y-65882382D01*
X238296753Y-65821459D01*
X238294697Y-65810309D01*
X238294697Y-65784094D01*
X238291795Y-65747219D01*
X238267889Y-65664936D01*
X238266761Y-65658819D01*
X238269745Y-65630015D01*
X238269828Y-65601060D01*
X238273951Y-65589423D01*
X238273962Y-65589322D01*
X238274007Y-65589264D01*
X238274142Y-65588883D01*
X238279884Y-65575024D01*
X238294697Y-65462508D01*
X238294697Y-65237068D01*
X238279884Y-65124552D01*
X238279883Y-65124551D01*
X238278823Y-65116493D01*
X238281886Y-65116089D01*
X238281886Y-65083486D01*
X238278823Y-65083083D01*
X238285205Y-65034606D01*
X238294697Y-64962508D01*
X238294697Y-64782294D01*
X238303342Y-64752850D01*
X238309865Y-64722868D01*
X238313619Y-64717852D01*
X238314382Y-64715255D01*
X238331010Y-64694618D01*
X238452706Y-64572922D01*
X238452711Y-64572919D01*
X238462911Y-64562718D01*
X238462913Y-64562718D01*
X238574717Y-64450914D01*
X238653774Y-64313982D01*
X238684506Y-64199288D01*
X238694697Y-64161256D01*
X238694697Y-64003141D01*
X238694697Y-63538321D01*
X238694547Y-63537763D01*
X238690490Y-63522622D01*
X238690489Y-63522618D01*
X238687086Y-63509919D01*
X238674383Y-63462508D01*
X238653774Y-63385594D01*
X238618856Y-63325114D01*
X238574721Y-63248668D01*
X238574718Y-63248664D01*
X238574717Y-63248662D01*
X238462913Y-63136858D01*
X238462912Y-63136857D01*
X238458582Y-63132527D01*
X238458571Y-63132517D01*
X238331016Y-63004962D01*
X238297531Y-62943639D01*
X238294697Y-62917281D01*
X238294697Y-62737074D01*
X238294697Y-62737068D01*
X238279884Y-62624552D01*
X238279883Y-62624551D01*
X238278823Y-62616493D01*
X238281886Y-62616089D01*
X238281886Y-62583486D01*
X238278823Y-62583083D01*
X238285240Y-62534341D01*
X238294697Y-62462508D01*
X238294697Y-62237068D01*
X238279884Y-62124552D01*
X238279883Y-62124551D01*
X238278823Y-62116493D01*
X238281886Y-62116089D01*
X238281886Y-62083486D01*
X238278823Y-62083083D01*
X238280497Y-62070368D01*
X238294697Y-61962508D01*
X238294697Y-61737068D01*
X238279884Y-61624552D01*
X238274145Y-61610698D01*
X238272214Y-61592740D01*
X238265365Y-61576023D01*
X238267666Y-61550456D01*
X238266674Y-61541233D01*
X238266761Y-61540757D01*
X238267889Y-61534637D01*
X238291795Y-61452357D01*
X238294697Y-61415482D01*
X238294697Y-61389265D01*
X238296753Y-61378116D01*
X238307604Y-61356644D01*
X238314382Y-61333564D01*
X238323078Y-61326028D01*
X238328269Y-61315758D01*
X238349006Y-61303561D01*
X238367186Y-61287809D01*
X238386591Y-61280832D01*
X238516332Y-61246069D01*
X238647562Y-61170303D01*
X238754712Y-61063153D01*
X238830478Y-60931923D01*
X238869697Y-60785554D01*
X238869697Y-60634022D01*
X238830478Y-60487653D01*
X238754712Y-60356423D01*
X238647562Y-60249273D01*
X238579694Y-60210089D01*
X238516333Y-60173507D01*
X238443147Y-60153897D01*
X238369963Y-60134288D01*
X238218431Y-60134288D01*
X238072060Y-60173507D01*
X237940832Y-60249273D01*
X237827935Y-60362170D01*
X237826074Y-60360309D01*
X237780153Y-60393830D01*
X237728495Y-60400752D01*
X237709898Y-60399288D01*
X237709891Y-60399288D01*
X236728503Y-60399288D01*
X236728495Y-60399288D01*
X236691629Y-60402189D01*
X236691623Y-60402190D01*
X236533803Y-60448042D01*
X236533800Y-60448043D01*
X236391801Y-60532021D01*
X236375899Y-60536371D01*
X236363615Y-60544266D01*
X236328680Y-60549289D01*
X236311215Y-60549289D01*
X236244176Y-60529604D01*
X236198421Y-60476800D01*
X236187215Y-60425289D01*
X236187215Y-60313128D01*
X236187214Y-60313111D01*
X236176890Y-60212045D01*
X236176242Y-60210089D01*
X236122624Y-60048282D01*
X236032056Y-59901448D01*
X235910066Y-59779458D01*
X235910065Y-59779457D01*
X235858617Y-59747723D01*
X235811893Y-59695774D01*
X235799715Y-59642185D01*
X235799715Y-59285730D01*
X235774717Y-59160064D01*
X235774716Y-59160063D01*
X235774716Y-59160059D01*
X235774714Y-59160054D01*
X235725681Y-59041677D01*
X235725680Y-59041675D01*
X235691424Y-58990407D01*
X235691423Y-58990405D01*
X235691422Y-58990403D01*
X235654495Y-58935138D01*
X235654492Y-58935133D01*
X235602144Y-58882785D01*
X235313891Y-58594531D01*
X235313890Y-58594530D01*
X235207347Y-58523341D01*
X235207346Y-58523340D01*
X235207344Y-58523339D01*
X235207342Y-58523338D01*
X235207340Y-58523337D01*
X235088960Y-58474303D01*
X235088954Y-58474301D01*
X234963288Y-58449304D01*
X234963286Y-58449304D01*
X230935161Y-58449304D01*
X230935159Y-58449304D01*
X230809492Y-58474301D01*
X230809486Y-58474303D01*
X230691106Y-58523337D01*
X230691099Y-58523341D01*
X230584561Y-58594527D01*
X230296302Y-58882785D01*
X230234979Y-58916269D01*
X230232814Y-58916720D01*
X230165738Y-58930062D01*
X230165732Y-58930064D01*
X230020059Y-58990403D01*
X230020051Y-58990408D01*
X229888943Y-59078011D01*
X229888939Y-59078014D01*
X229777445Y-59189508D01*
X229777442Y-59189512D01*
X229689841Y-59320615D01*
X229689834Y-59320628D01*
X229629496Y-59466299D01*
X229629493Y-59466311D01*
X229598732Y-59620954D01*
X229598732Y-59778647D01*
X229629493Y-59933290D01*
X229629496Y-59933302D01*
X229689834Y-60078973D01*
X229689841Y-60078986D01*
X229777442Y-60210089D01*
X229777445Y-60210093D01*
X229888939Y-60321587D01*
X229888943Y-60321590D01*
X230020046Y-60409191D01*
X230020059Y-60409198D01*
X230113841Y-60448043D01*
X230165735Y-60469538D01*
X230256795Y-60487651D01*
X230320385Y-60500300D01*
X230320388Y-60500301D01*
X230320390Y-60500301D01*
X230478076Y-60500301D01*
X230478077Y-60500300D01*
X230632729Y-60469538D01*
X230778411Y-60409195D01*
X230909521Y-60321590D01*
X231021021Y-60210090D01*
X231108626Y-60078980D01*
X231168969Y-59933298D01*
X231182311Y-59866218D01*
X231191076Y-59849461D01*
X231195099Y-59830977D01*
X231213834Y-59805952D01*
X231214694Y-59804310D01*
X231216177Y-59802799D01*
X231232363Y-59786615D01*
X231293688Y-59753134D01*
X231320039Y-59750302D01*
X234137429Y-59750302D01*
X234204468Y-59769987D01*
X234250223Y-59822791D01*
X234260167Y-59891949D01*
X234242968Y-59939399D01*
X234175809Y-60048279D01*
X234175807Y-60048284D01*
X234148435Y-60130886D01*
X234121542Y-60212045D01*
X234121542Y-60212046D01*
X234121541Y-60212046D01*
X234111216Y-60313113D01*
X234111216Y-60886467D01*
X234111217Y-60886485D01*
X234121541Y-60987550D01*
X234175808Y-61151313D01*
X234175809Y-61151316D01*
X234210111Y-61206927D01*
X234264740Y-61295496D01*
X234266377Y-61298149D01*
X234298303Y-61330075D01*
X234331788Y-61391398D01*
X234326804Y-61461090D01*
X234316162Y-61482851D01*
X234275810Y-61548272D01*
X234275808Y-61548277D01*
X234221542Y-61712040D01*
X234221542Y-61712041D01*
X234221541Y-61712041D01*
X234211216Y-61813108D01*
X234211216Y-62386462D01*
X234211217Y-62386480D01*
X234221541Y-62487545D01*
X234257825Y-62597042D01*
X234275808Y-62651309D01*
X234366376Y-62798143D01*
X234488366Y-62920133D01*
X234635200Y-63010701D01*
X234635206Y-63010703D01*
X234639927Y-63012905D01*
X234692367Y-63059077D01*
X234711520Y-63126270D01*
X234691305Y-63193152D01*
X234638140Y-63238487D01*
X234587524Y-63249288D01*
X232610082Y-63249288D01*
X232451968Y-63249288D01*
X232299240Y-63290211D01*
X232299239Y-63290211D01*
X232299237Y-63290212D01*
X232299234Y-63290213D01*
X232249121Y-63319147D01*
X232249120Y-63319148D01*
X232238787Y-63325114D01*
X232162310Y-63369267D01*
X232162307Y-63369269D01*
X230166746Y-65364830D01*
X230143009Y-65405945D01*
X230132976Y-65423324D01*
X230087690Y-65501761D01*
X230046766Y-65654489D01*
X230046766Y-65654491D01*
X230046766Y-65822592D01*
X230046767Y-65822605D01*
X230046767Y-69479333D01*
X230046766Y-69479351D01*
X230046766Y-69645057D01*
X230046765Y-69645057D01*
X230087690Y-69797788D01*
X230109576Y-69835694D01*
X230109577Y-69835698D01*
X230166742Y-69934712D01*
X230166748Y-69934720D01*
X230285616Y-70053588D01*
X230285622Y-70053593D01*
X232221165Y-71989136D01*
X232221175Y-71989147D01*
X232225505Y-71993477D01*
X232225506Y-71993478D01*
X232337310Y-72105282D01*
X232402412Y-72142868D01*
X232450628Y-72193435D01*
X232463852Y-72262042D01*
X232437884Y-72326907D01*
X232380970Y-72367436D01*
X232340413Y-72374256D01*
X230092704Y-72374256D01*
X230092688Y-72374255D01*
X230085092Y-72374255D01*
X229926978Y-72374255D01*
X229819622Y-72403021D01*
X229774245Y-72415180D01*
X229774244Y-72415181D01*
X229724131Y-72444115D01*
X229724130Y-72444116D01*
X229680724Y-72469176D01*
X229637320Y-72494235D01*
X229637317Y-72494237D01*
X229525513Y-72606042D01*
X226193631Y-75937925D01*
X226132308Y-75971410D01*
X226105950Y-75974244D01*
X221124373Y-75974244D01*
X221057334Y-75954559D01*
X221036692Y-75937925D01*
X220536865Y-75438099D01*
X220536863Y-75438096D01*
X220417992Y-75319225D01*
X220417991Y-75319224D01*
X220331179Y-75269104D01*
X220331179Y-75269103D01*
X220331175Y-75269102D01*
X220281060Y-75240167D01*
X220128332Y-75199243D01*
X219970218Y-75199243D01*
X219962622Y-75199243D01*
X219962606Y-75199244D01*
X219836002Y-75199244D01*
X219768963Y-75179559D01*
X219724914Y-75130339D01*
X219673927Y-75027534D01*
X219561433Y-74887585D01*
X219561432Y-74887584D01*
X219421483Y-74775090D01*
X219260624Y-74695311D01*
X219211079Y-74682990D01*
X219159159Y-74670078D01*
X219098853Y-74634797D01*
X219067194Y-74572511D01*
X219074235Y-74502997D01*
X219117740Y-74448325D01*
X219159158Y-74429409D01*
X219260623Y-74404177D01*
X219421484Y-74324397D01*
X219561433Y-74211903D01*
X219673927Y-74071954D01*
X219700116Y-74019147D01*
X219747536Y-73967836D01*
X219811204Y-73950243D01*
X220400311Y-73950243D01*
X220467350Y-73969928D01*
X220513105Y-74022732D01*
X220518016Y-74035236D01*
X220523330Y-74051271D01*
X220613898Y-74198105D01*
X220735888Y-74320095D01*
X220882722Y-74410663D01*
X221046485Y-74464929D01*
X221147561Y-74475255D01*
X221845914Y-74475254D01*
X221845922Y-74475253D01*
X221845925Y-74475253D01*
X221901268Y-74469599D01*
X221946991Y-74464929D01*
X222110754Y-74410663D01*
X222257588Y-74320095D01*
X222379578Y-74198105D01*
X222470146Y-74051271D01*
X222524412Y-73887508D01*
X222534738Y-73786432D01*
X222534737Y-73433060D01*
X222554421Y-73366022D01*
X222571051Y-73345385D01*
X222929860Y-72986577D01*
X222991183Y-72953092D01*
X223017541Y-72950258D01*
X224474824Y-72950258D01*
X224541863Y-72969943D01*
X224587618Y-73022747D01*
X224597562Y-73091905D01*
X224589385Y-73121710D01*
X224529513Y-73266253D01*
X224529510Y-73266265D01*
X224498749Y-73420908D01*
X224498749Y-73578601D01*
X224529510Y-73733244D01*
X224529513Y-73733256D01*
X224589851Y-73878927D01*
X224589858Y-73878940D01*
X224677459Y-74010043D01*
X224677462Y-74010047D01*
X224788956Y-74121541D01*
X224788960Y-74121544D01*
X224920063Y-74209145D01*
X224920076Y-74209152D01*
X225065747Y-74269490D01*
X225065752Y-74269492D01*
X225220402Y-74300254D01*
X225220405Y-74300255D01*
X225220407Y-74300255D01*
X225378093Y-74300255D01*
X225378094Y-74300254D01*
X225532746Y-74269492D01*
X225678428Y-74209149D01*
X225809538Y-74121544D01*
X225921038Y-74010044D01*
X226008643Y-73878934D01*
X226068986Y-73733252D01*
X226099749Y-73578597D01*
X226099749Y-73420913D01*
X226099749Y-73420912D01*
X226099749Y-73420910D01*
X226099748Y-73420908D01*
X226088830Y-73366022D01*
X226068986Y-73266258D01*
X226008643Y-73120576D01*
X225989486Y-73091905D01*
X225970646Y-73063708D01*
X225949768Y-72997031D01*
X225949748Y-72994818D01*
X225949748Y-72535688D01*
X225945600Y-72514839D01*
X225945600Y-72514835D01*
X225931533Y-72444115D01*
X225924750Y-72410015D01*
X225878042Y-72297256D01*
X225876394Y-72292650D01*
X225804527Y-72185093D01*
X225804526Y-72185092D01*
X225804524Y-72185089D01*
X225713918Y-72094483D01*
X225413919Y-71794483D01*
X225307377Y-71723295D01*
X225260358Y-71703819D01*
X225188996Y-71674260D01*
X225188987Y-71674257D01*
X225188925Y-71674245D01*
X225188925Y-71674244D01*
X225063321Y-71649260D01*
X225063319Y-71649260D01*
X222632665Y-71649260D01*
X222632659Y-71649260D01*
X222611815Y-71653405D01*
X222611816Y-71653406D01*
X222506996Y-71674256D01*
X222506987Y-71674259D01*
X222435625Y-71703819D01*
X222388607Y-71723294D01*
X222345933Y-71751808D01*
X222317419Y-71770861D01*
X222289266Y-71789671D01*
X222282061Y-71794486D01*
X221588611Y-72487936D01*
X221527288Y-72521421D01*
X221500930Y-72524255D01*
X221147568Y-72524255D01*
X221147550Y-72524256D01*
X221046485Y-72534580D01*
X220882722Y-72588847D01*
X220882715Y-72588850D01*
X220814730Y-72630784D01*
X220749634Y-72649245D01*
X219811204Y-72649245D01*
X219744165Y-72629560D01*
X219700116Y-72580341D01*
X219673927Y-72527534D01*
X219561433Y-72387585D01*
X219536367Y-72367436D01*
X219421483Y-72275090D01*
X219260624Y-72195311D01*
X219086376Y-72151978D01*
X219086377Y-72151978D01*
X219062184Y-72150337D01*
X219046058Y-72149244D01*
X216552490Y-72149244D01*
X216536363Y-72150337D01*
X216512171Y-72151978D01*
X216337923Y-72195311D01*
X216177064Y-72275090D01*
X216037115Y-72387584D01*
X216037114Y-72387585D01*
X215924620Y-72527534D01*
X215844841Y-72688393D01*
X215801508Y-72862641D01*
X215798774Y-72902962D01*
X215798774Y-73696525D01*
X215801508Y-73736846D01*
X215844841Y-73911094D01*
X215924620Y-74071953D01*
X216034904Y-74209152D01*
X216037115Y-74211903D01*
X216177064Y-74324397D01*
X216337925Y-74404177D01*
X216439387Y-74429409D01*
X216499694Y-74464691D01*
X216531353Y-74526977D01*
X216524312Y-74596491D01*
X216480807Y-74651163D01*
X216439387Y-74670079D01*
X216337923Y-74695311D01*
X216177064Y-74775090D01*
X216037115Y-74887584D01*
X216037114Y-74887585D01*
X215924620Y-75027534D01*
X215844841Y-75188393D01*
X215801508Y-75362641D01*
X215798774Y-75402962D01*
X215798774Y-76196525D01*
X215801508Y-76236846D01*
X215844841Y-76411094D01*
X215924620Y-76571953D01*
X216037114Y-76711902D01*
X216037275Y-76712063D01*
X216037341Y-76712184D01*
X216041327Y-76717143D01*
X216040438Y-76717856D01*
X216070760Y-76773386D01*
X216065776Y-76843078D01*
X216040807Y-76881927D01*
X216041327Y-76882345D01*
X216037400Y-76887230D01*
X216037275Y-76887425D01*
X216037114Y-76887585D01*
X215924620Y-77027534D01*
X215844841Y-77188393D01*
X215801508Y-77362641D01*
X215798774Y-77402962D01*
X215798774Y-78196525D01*
X215801508Y-78236846D01*
X215844841Y-78411094D01*
X215924620Y-78571953D01*
X216022752Y-78694034D01*
X216037115Y-78711903D01*
X216177064Y-78824397D01*
X216337925Y-78904177D01*
X216512174Y-78947510D01*
X216552490Y-78950244D01*
X216552492Y-78950244D01*
X219046056Y-78950244D01*
X219046058Y-78950244D01*
X219086374Y-78947510D01*
X219260623Y-78904177D01*
X219421484Y-78824397D01*
X219561433Y-78711903D01*
X219673927Y-78571954D01*
X219724914Y-78469149D01*
X219735691Y-78457486D01*
X219742289Y-78443041D01*
X219758919Y-78432353D01*
X219772335Y-78417837D01*
X219788426Y-78413390D01*
X219801067Y-78405267D01*
X219836002Y-78400244D01*
X219962606Y-78400244D01*
X219962622Y-78400245D01*
X219970218Y-78400245D01*
X220128329Y-78400245D01*
X220128332Y-78400245D01*
X220281060Y-78359321D01*
X220331179Y-78330383D01*
X220417991Y-78280264D01*
X220529795Y-78168460D01*
X220529796Y-78168457D01*
X221036693Y-77661560D01*
X221098015Y-77628078D01*
X221124373Y-77625244D01*
X226505774Y-77625244D01*
X226505790Y-77625245D01*
X226513386Y-77625245D01*
X226671497Y-77625245D01*
X226671500Y-77625245D01*
X226824228Y-77584321D01*
X226887875Y-77547574D01*
X226961159Y-77505264D01*
X227072963Y-77393460D01*
X227072963Y-77393458D01*
X227083167Y-77383255D01*
X227083170Y-77383250D01*
X230404847Y-74061575D01*
X230466170Y-74028090D01*
X230492528Y-74025256D01*
X239005907Y-74025256D01*
X239072946Y-74044941D01*
X239093588Y-74061575D01*
X240462376Y-75430363D01*
X240495861Y-75491686D01*
X240498695Y-75518044D01*
X240498695Y-78081443D01*
X240490050Y-78110883D01*
X240483527Y-78140870D01*
X240479772Y-78145885D01*
X240479010Y-78148482D01*
X240462376Y-78169124D01*
X240286383Y-78345116D01*
X240225060Y-78378601D01*
X240155368Y-78373617D01*
X240099435Y-78331745D01*
X240075018Y-78266281D01*
X240074702Y-78257460D01*
X240074702Y-77613067D01*
X240071765Y-77584320D01*
X240064377Y-77511990D01*
X240028248Y-77402962D01*
X240010111Y-77348227D01*
X239919543Y-77201393D01*
X239797553Y-77079403D01*
X239650719Y-76988835D01*
X239486956Y-76934569D01*
X239486954Y-76934568D01*
X239385881Y-76924243D01*
X238812533Y-76924243D01*
X238812515Y-76924244D01*
X238711450Y-76934568D01*
X238547687Y-76988835D01*
X238547680Y-76988838D01*
X238414301Y-77071107D01*
X238346909Y-77089547D01*
X238284108Y-77071107D01*
X238150726Y-76988836D01*
X238150721Y-76988834D01*
X238149277Y-76988355D01*
X237986961Y-76934569D01*
X237986959Y-76934568D01*
X237885886Y-76924243D01*
X237312538Y-76924243D01*
X237312520Y-76924244D01*
X237211455Y-76934568D01*
X237047692Y-76988835D01*
X237047685Y-76988838D01*
X236914306Y-77071107D01*
X236846914Y-77089547D01*
X236784113Y-77071107D01*
X236650731Y-76988836D01*
X236650726Y-76988834D01*
X236649282Y-76988355D01*
X236486966Y-76934569D01*
X236486964Y-76934568D01*
X236385891Y-76924243D01*
X235812543Y-76924243D01*
X235812525Y-76924244D01*
X235711460Y-76934568D01*
X235547697Y-76988835D01*
X235547690Y-76988838D01*
X235414311Y-77071107D01*
X235346919Y-77089547D01*
X235284118Y-77071107D01*
X235150736Y-76988836D01*
X235150731Y-76988834D01*
X235149287Y-76988355D01*
X234986971Y-76934569D01*
X234986969Y-76934568D01*
X234885896Y-76924243D01*
X234312548Y-76924243D01*
X234312530Y-76924244D01*
X234211465Y-76934568D01*
X234047702Y-76988835D01*
X234047695Y-76988838D01*
X233914316Y-77071107D01*
X233846924Y-77089547D01*
X233784123Y-77071107D01*
X233650741Y-76988836D01*
X233650736Y-76988834D01*
X233649292Y-76988355D01*
X233486976Y-76934569D01*
X233486974Y-76934568D01*
X233385901Y-76924243D01*
X232812553Y-76924243D01*
X232812535Y-76924244D01*
X232711470Y-76934568D01*
X232547707Y-76988835D01*
X232547700Y-76988838D01*
X232414321Y-77071107D01*
X232346929Y-77089547D01*
X232284128Y-77071107D01*
X232150746Y-76988836D01*
X232150741Y-76988834D01*
X232149297Y-76988355D01*
X231986981Y-76934569D01*
X231986979Y-76934568D01*
X231885906Y-76924243D01*
X231312558Y-76924243D01*
X231312540Y-76924244D01*
X231211475Y-76934568D01*
X231047712Y-76988835D01*
X231047709Y-76988836D01*
X230900876Y-77079404D01*
X230778889Y-77201391D01*
X230688321Y-77348224D01*
X230688319Y-77348229D01*
X230660947Y-77430831D01*
X230634054Y-77511990D01*
X230634054Y-77511991D01*
X230634053Y-77511991D01*
X230623728Y-77613058D01*
X230623728Y-78311412D01*
X230623729Y-78311430D01*
X230634053Y-78412495D01*
X230648962Y-78457486D01*
X230688320Y-78576259D01*
X230778888Y-78723093D01*
X230900878Y-78845083D01*
X231047712Y-78935651D01*
X231211475Y-78989917D01*
X231312551Y-79000243D01*
X231885904Y-79000242D01*
X231885912Y-79000241D01*
X231885915Y-79000241D01*
X231941258Y-78994587D01*
X231986981Y-78989917D01*
X232150744Y-78935651D01*
X232284128Y-78853378D01*
X232351520Y-78834938D01*
X232414320Y-78853377D01*
X232547707Y-78935651D01*
X232711470Y-78989917D01*
X232812546Y-79000243D01*
X232869715Y-79000242D01*
X232936753Y-79019925D01*
X232982509Y-79072729D01*
X232993715Y-79124242D01*
X232993715Y-81197501D01*
X232974030Y-81264540D01*
X232921226Y-81310295D01*
X232852068Y-81320239D01*
X232826383Y-81313683D01*
X232761903Y-81289634D01*
X232761899Y-81289633D01*
X232761898Y-81289633D01*
X232702288Y-81283224D01*
X232702278Y-81283224D01*
X231946144Y-81283224D01*
X231946138Y-81283225D01*
X231886531Y-81289632D01*
X231751686Y-81339926D01*
X231751679Y-81339930D01*
X231636470Y-81426176D01*
X231636467Y-81426179D01*
X231550221Y-81541388D01*
X231550217Y-81541395D01*
X231499923Y-81676241D01*
X231493516Y-81735840D01*
X231493516Y-81735847D01*
X231493515Y-81735859D01*
X231493515Y-83863594D01*
X231493516Y-83863600D01*
X231499923Y-83923207D01*
X231550217Y-84058052D01*
X231550221Y-84058059D01*
X231636467Y-84173268D01*
X231636470Y-84173271D01*
X231751679Y-84259517D01*
X231751686Y-84259521D01*
X231796633Y-84276285D01*
X231886532Y-84309815D01*
X231946142Y-84316224D01*
X232702287Y-84316223D01*
X232761898Y-84309815D01*
X232896746Y-84259520D01*
X232896749Y-84259517D01*
X232899784Y-84257861D01*
X232903170Y-84257124D01*
X232905056Y-84256421D01*
X232905157Y-84256691D01*
X232968056Y-84243007D01*
X233018646Y-84257861D01*
X233021686Y-84259521D01*
X233066633Y-84276285D01*
X233156532Y-84309815D01*
X233216142Y-84316224D01*
X233972287Y-84316223D01*
X234031898Y-84309815D01*
X234166746Y-84259520D01*
X234166749Y-84259517D01*
X234169784Y-84257861D01*
X234173170Y-84257124D01*
X234175056Y-84256421D01*
X234175157Y-84256691D01*
X234238056Y-84243007D01*
X234288646Y-84257861D01*
X234291686Y-84259521D01*
X234336633Y-84276285D01*
X234426532Y-84309815D01*
X234486142Y-84316224D01*
X235242287Y-84316223D01*
X235301898Y-84309815D01*
X235338903Y-84296012D01*
X235408594Y-84291027D01*
X235469917Y-84324512D01*
X235503403Y-84385834D01*
X235498419Y-84455526D01*
X235469918Y-84499875D01*
X234556899Y-85412895D01*
X234495576Y-85446380D01*
X234469218Y-85449214D01*
X230335161Y-85449214D01*
X230209494Y-85474211D01*
X230209488Y-85474213D01*
X230091108Y-85523247D01*
X230091101Y-85523251D01*
X229984558Y-85594440D01*
X226593970Y-88985028D01*
X226522781Y-89091571D01*
X226522777Y-89091578D01*
X226473743Y-89209958D01*
X226473741Y-89209964D01*
X226448744Y-89335630D01*
X226448744Y-92525190D01*
X226429059Y-92592229D01*
X226376255Y-92637984D01*
X226324744Y-92649190D01*
X223357565Y-92649190D01*
X223290526Y-92629505D01*
X223269884Y-92612871D01*
X222511077Y-91854064D01*
X222477592Y-91792741D01*
X222474758Y-91766383D01*
X222474758Y-91413021D01*
X222474757Y-91413004D01*
X222464433Y-91311938D01*
X222458622Y-91294403D01*
X222410167Y-91148175D01*
X222319599Y-91001341D01*
X222197609Y-90879351D01*
X222050775Y-90788783D01*
X221887012Y-90734517D01*
X221887010Y-90734516D01*
X221785937Y-90724191D01*
X221087589Y-90724191D01*
X221087571Y-90724192D01*
X220986506Y-90734516D01*
X220822743Y-90788783D01*
X220822740Y-90788784D01*
X220675907Y-90879352D01*
X220553918Y-91001341D01*
X220537804Y-91027467D01*
X220499062Y-91090277D01*
X220447116Y-91137001D01*
X220393525Y-91149180D01*
X219861228Y-91149180D01*
X219794189Y-91129495D01*
X219750140Y-91080276D01*
X219723951Y-91027469D01*
X219611457Y-90887520D01*
X219601295Y-90879351D01*
X219471507Y-90775025D01*
X219310648Y-90695246D01*
X219136400Y-90651913D01*
X219136401Y-90651913D01*
X219112208Y-90650272D01*
X219096082Y-90649179D01*
X216602514Y-90649179D01*
X216586387Y-90650272D01*
X216562195Y-90651913D01*
X216387947Y-90695246D01*
X216227088Y-90775025D01*
X216087139Y-90887519D01*
X216087138Y-90887520D01*
X215974646Y-91027467D01*
X215974645Y-91027468D01*
X215974645Y-91027469D01*
X215948455Y-91080275D01*
X215901036Y-91131587D01*
X215837368Y-91149180D01*
X210835241Y-91149180D01*
X210709574Y-91174177D01*
X210709568Y-91174179D01*
X210591188Y-91223213D01*
X210591181Y-91223217D01*
X210484638Y-91294406D01*
X207694033Y-94085011D01*
X207622844Y-94191554D01*
X207622840Y-94191561D01*
X207573806Y-94309941D01*
X207573804Y-94309947D01*
X207548807Y-94435613D01*
X207548807Y-94435616D01*
X207548807Y-105835579D01*
X207548807Y-105963715D01*
X207548807Y-105963717D01*
X207548806Y-105963717D01*
X205605450Y-105963717D01*
X205605450Y-80273765D01*
X221598771Y-80273765D01*
X221598771Y-80525698D01*
X221638180Y-80774514D01*
X221638180Y-80774517D01*
X221716026Y-81014102D01*
X221731229Y-81043939D01*
X221830398Y-81238569D01*
X221978474Y-81442378D01*
X222156610Y-81620514D01*
X222360419Y-81768590D01*
X222560152Y-81870359D01*
X222584885Y-81882961D01*
X222808361Y-81955572D01*
X222824475Y-81960808D01*
X222923648Y-81976515D01*
X223073290Y-82000217D01*
X223073295Y-82000217D01*
X223325222Y-82000217D01*
X223445845Y-81981111D01*
X223574037Y-81960808D01*
X223574040Y-81960807D01*
X223574041Y-81960807D01*
X223813626Y-81882961D01*
X223813626Y-81882960D01*
X223813629Y-81882960D01*
X224038093Y-81768590D01*
X224241902Y-81620514D01*
X224420038Y-81442378D01*
X224568114Y-81238569D01*
X224682484Y-81014105D01*
X224688988Y-80994088D01*
X224760331Y-80774517D01*
X224760331Y-80774516D01*
X224760332Y-80774513D01*
X224793417Y-80565624D01*
X224799741Y-80525698D01*
X224799741Y-80273765D01*
X224773961Y-80111000D01*
X224760332Y-80024951D01*
X224760331Y-80024947D01*
X224760331Y-80024946D01*
X224682485Y-79785361D01*
X224644099Y-79710024D01*
X224568114Y-79560895D01*
X224420038Y-79357086D01*
X224241902Y-79178950D01*
X224038093Y-79030874D01*
X223977974Y-79000242D01*
X223813626Y-78916502D01*
X223574039Y-78838656D01*
X223325222Y-78799247D01*
X223325217Y-78799247D01*
X223073295Y-78799247D01*
X223073290Y-78799247D01*
X222824473Y-78838656D01*
X222824470Y-78838656D01*
X222584885Y-78916502D01*
X222360418Y-79030874D01*
X222244138Y-79115356D01*
X222156610Y-79178950D01*
X222156608Y-79178952D01*
X222156607Y-79178952D01*
X221978476Y-79357083D01*
X221978476Y-79357084D01*
X221978474Y-79357086D01*
X221952617Y-79392675D01*
X221830398Y-79560894D01*
X221716026Y-79785361D01*
X221638180Y-80024946D01*
X221638180Y-80024949D01*
X221598771Y-80273765D01*
X205605450Y-80273765D01*
X205605450Y-69460494D01*
X205605499Y-69457016D01*
X205624618Y-68775561D01*
X205625006Y-68768652D01*
X205682166Y-68090996D01*
X205682938Y-68084148D01*
X205778004Y-67410764D01*
X205779161Y-67403953D01*
X205911833Y-66736967D01*
X205913365Y-66730249D01*
X206083236Y-66071717D01*
X206085147Y-66065085D01*
X206291663Y-65417148D01*
X206293942Y-65410634D01*
X206536472Y-64775274D01*
X206539111Y-64768905D01*
X206816878Y-64148155D01*
X206819873Y-64141937D01*
X206828274Y-64125676D01*
X210107288Y-64125676D01*
X210107288Y-64474323D01*
X210141460Y-64821290D01*
X210141463Y-64821307D01*
X210209475Y-65163234D01*
X210209478Y-65163245D01*
X210310690Y-65496896D01*
X210444115Y-65819011D01*
X210444117Y-65819016D01*
X210608461Y-66126481D01*
X210608478Y-66126509D01*
X210802166Y-66416386D01*
X210802170Y-66416391D01*
X211023356Y-66685906D01*
X211269881Y-66932431D01*
X211539396Y-67153617D01*
X211539401Y-67153621D01*
X211829278Y-67347309D01*
X211829283Y-67347312D01*
X211829295Y-67347320D01*
X211829304Y-67347324D01*
X211829306Y-67347326D01*
X212136771Y-67511670D01*
X212136773Y-67511670D01*
X212136779Y-67511674D01*
X212458893Y-67645098D01*
X212792533Y-67746307D01*
X212792539Y-67746308D01*
X212792542Y-67746309D01*
X212792553Y-67746312D01*
X213006970Y-67788961D01*
X213134487Y-67814326D01*
X213481461Y-67848500D01*
X213481464Y-67848500D01*
X213830112Y-67848500D01*
X213830115Y-67848500D01*
X214177089Y-67814326D01*
X214346347Y-67780658D01*
X214519022Y-67746312D01*
X214519033Y-67746309D01*
X214519033Y-67746308D01*
X214519043Y-67746307D01*
X214852683Y-67645098D01*
X215174797Y-67511674D01*
X215482281Y-67347320D01*
X215603577Y-67266273D01*
X215772174Y-67153621D01*
X215772179Y-67153617D01*
X215879809Y-67065287D01*
X216041689Y-66932436D01*
X216288224Y-66685901D01*
X216509407Y-66416388D01*
X216509409Y-66416386D01*
X216654441Y-66199329D01*
X216703108Y-66126493D01*
X216867462Y-65819009D01*
X217000886Y-65496895D01*
X217102095Y-65163255D01*
X217102097Y-65163245D01*
X217102100Y-65163234D01*
X217142026Y-64962508D01*
X217170114Y-64821301D01*
X217204288Y-64474327D01*
X217204288Y-64125673D01*
X217170114Y-63778699D01*
X217121574Y-63534671D01*
X217102100Y-63436765D01*
X217102097Y-63436754D01*
X217102096Y-63436751D01*
X217102095Y-63436745D01*
X217000886Y-63103105D01*
X216867462Y-62780991D01*
X216843979Y-62737058D01*
X216703114Y-62473518D01*
X216703112Y-62473516D01*
X216703108Y-62473507D01*
X216695754Y-62462501D01*
X216509409Y-62183613D01*
X216509405Y-62183608D01*
X216288219Y-61914093D01*
X216041694Y-61667568D01*
X215772179Y-61446382D01*
X215772174Y-61446378D01*
X215482297Y-61252690D01*
X215482269Y-61252673D01*
X215174804Y-61088329D01*
X215174799Y-61088327D01*
X215114021Y-61063152D01*
X214931505Y-60987551D01*
X214852684Y-60954902D01*
X214519033Y-60853690D01*
X214519022Y-60853687D01*
X214177095Y-60785675D01*
X214177078Y-60785672D01*
X213914694Y-60759830D01*
X213830115Y-60751500D01*
X213481461Y-60751500D01*
X213403237Y-60759204D01*
X213134497Y-60785672D01*
X213134480Y-60785675D01*
X212792553Y-60853687D01*
X212792542Y-60853690D01*
X212458891Y-60954902D01*
X212136776Y-61088327D01*
X212136771Y-61088329D01*
X211829306Y-61252673D01*
X211829278Y-61252690D01*
X211539401Y-61446378D01*
X211539396Y-61446382D01*
X211269881Y-61667568D01*
X211023356Y-61914093D01*
X210802170Y-62183608D01*
X210802166Y-62183613D01*
X210608478Y-62473490D01*
X210608461Y-62473518D01*
X210444117Y-62780983D01*
X210444115Y-62780988D01*
X210310690Y-63103103D01*
X210209478Y-63436754D01*
X210209475Y-63436765D01*
X210141463Y-63778692D01*
X210141460Y-63778709D01*
X210107288Y-64125676D01*
X206828274Y-64125676D01*
X207132005Y-63537745D01*
X207135349Y-63531695D01*
X207480869Y-62945954D01*
X207484547Y-62940100D01*
X207862366Y-62374654D01*
X207866369Y-62369013D01*
X208275282Y-61825664D01*
X208279598Y-61820251D01*
X208718353Y-61300659D01*
X208722947Y-61295518D01*
X209190171Y-60801320D01*
X209195018Y-60796473D01*
X209689216Y-60329249D01*
X209694357Y-60324655D01*
X210213949Y-59885900D01*
X210219362Y-59881584D01*
X210762711Y-59472671D01*
X210768352Y-59468668D01*
X211333798Y-59090849D01*
X211339652Y-59087171D01*
X211925393Y-58741651D01*
X211931443Y-58738307D01*
X212535635Y-58426175D01*
X212541853Y-58423180D01*
X213162603Y-58145413D01*
X213168972Y-58142774D01*
X213804332Y-57900244D01*
X213810846Y-57897965D01*
X214458783Y-57691449D01*
X214465415Y-57689538D01*
X215123947Y-57519667D01*
X215130665Y-57518135D01*
X215797651Y-57385463D01*
X215804462Y-57384306D01*
X216477846Y-57289240D01*
X216484694Y-57288468D01*
X217162350Y-57231308D01*
X217169259Y-57230920D01*
X217850751Y-57211800D01*
X217854229Y-57211751D01*
X217918389Y-57211751D01*
X237664057Y-57211751D01*
X243779818Y-57211751D01*
X243788883Y-57211751D01*
X243808267Y-57213277D01*
G37*
%TD.AperFunction*%
%TD*%
M02*
