M48
; DRILL file {KiCad 9.0.8-9.0.8~ubuntu24.04.1} date 2026-04-17T12:06:03+0700
; FORMAT={-:-/ absolute / metric / decimal}
; #@! TF.CreationDate,2026-04-17T12:06:03+07:00
; #@! TF.GenerationSoftware,Kicad,Pcbnew,9.0.8-9.0.8~ubuntu24.04.1
; #@! TF.FileFunction,Plated,1,2,PTH
FMAT,2
METRIC
; #@! TA.AperFunction,Plated,PTH,ViaDrill
T1C0.300
; #@! TA.AperFunction,Plated,PTH,ComponentDrill
T2C0.600
%
G90
G05
T1
X221.699Y-112.2
X221.699Y-115.5
X224.099Y-113.137
X225.299Y-73.5
X227.099Y-93.3
X227.099Y-103.2
X227.999Y-113.137
X230.399Y-59.7
X233.399Y-69.6
X233.699Y-67.5
X236.099Y-80.7
X236.399Y-79.2
X238.199Y-69.9
X238.499Y-79.366
T2
G00X214.889Y-107.3
M15
G01X213.189Y-107.3
M16
G05
G00X214.889Y-120.1
M15
G01X213.189Y-120.1
M16
G05
G00X214.949Y-70.4
M15
G01X213.249Y-70.4
M16
G05
G00X214.949Y-83.2
M15
G01X213.249Y-83.2
M16
G05
G00X214.999Y-88.9
M15
G01X213.299Y-88.9
M16
G05
G00X214.999Y-101.7
M15
G01X213.299Y-101.7
M16
G05
G00X221.579Y-118.445
M15
G01X221.579Y-119.545
M16
G05
G00X221.579Y-122.775
M15
G01X221.579Y-123.575
M16
G05
G00X230.219Y-118.445
M15
G01X230.219Y-119.545
M16
G05
G00X230.219Y-122.775
M15
G01X230.219Y-123.575
M16
G05
G00X237.244Y-59.28
M15
G01X238.344Y-59.28
M16
G05
G00X237.244Y-67.92
M15
G01X238.344Y-67.92
M16
G05
G00X241.574Y-59.28
M15
G01X242.374Y-59.28
M16
G05
G00X241.574Y-67.92
M15
G01X242.374Y-67.92
M16
G05
M30
