%TF.GenerationSoftware,KiCad,Pcbnew,9.0.8-9.0.8~ubuntu24.04.1*%
%TF.CreationDate,2026-04-17T12:06:03+07:00*%
%TF.ProjectId,yohub,796f6875-622e-46b6-9963-61645f706362,rev?*%
%TF.SameCoordinates,Original*%
%TF.FileFunction,Drillmap*%
%TF.FilePolarity,Positive*%
%FSLAX45Y45*%
G04 Gerber Fmt 4.5, Leading zero omitted, Abs format (unit mm)*
G04 Created by KiCad (PCBNEW 9.0.8-9.0.8~ubuntu24.04.1) date 2026-04-17 12:06:03*
%MOMM*%
%LPD*%
G01*
G04 APERTURE LIST*
%ADD10C,0.050000*%
%ADD11C,0.200000*%
%ADD12C,0.100000*%
G04 APERTURE END LIST*
D10*
X20510495Y-6945880D02*
X20510495Y-12473625D01*
X20510495Y-6945880D02*
G75*
G02*
X21785250Y-5671125I1274755J0D01*
G01*
X20605495Y-12569150D02*
X23127750Y-12569150D01*
X20606020Y-12569150D02*
G75*
G02*
X20510500Y-12473625I0J95520D01*
G01*
X21670379Y-6430000D02*
G75*
G02*
X21060779Y-6430000I-304800J0D01*
G01*
X21060779Y-6430000D02*
G75*
G02*
X21670379Y-6430000I304800J0D01*
G01*
X21785250Y-5671125D02*
X23772995Y-5671125D01*
X22429924Y-8039973D02*
G75*
G02*
X22209927Y-8039973I-109999J0D01*
G01*
X22209927Y-8039973D02*
G75*
G02*
X22429924Y-8039973I109999J0D01*
G01*
X22429924Y-10229966D02*
G75*
G02*
X22209927Y-10229966I-109999J0D01*
G01*
X22209927Y-10229966D02*
G75*
G02*
X22429924Y-10229966I109999J0D01*
G01*
X23127750Y-12568625D02*
X24455000Y-11241375D01*
X23387995Y-11243625D02*
X23900495Y-10731125D01*
X23685495Y-11541125D02*
X23387995Y-11243625D01*
X23772995Y-5671125D02*
X24380495Y-5671125D01*
X23900495Y-10731125D02*
X24197995Y-11028625D01*
X24197995Y-11028625D02*
X23685495Y-11541125D01*
X24379870Y-5671125D02*
G75*
G02*
X24454995Y-5746255I-10J-75135D01*
G01*
X24455000Y-5746255D02*
X24455000Y-8193625D01*
X24455000Y-8618625D02*
X24455000Y-8193625D01*
X24455000Y-11241375D02*
X24455000Y-8618625D01*
D11*
D12*
X22268425Y-11916959D02*
X22333425Y-11981959D01*
X22333425Y-11916959D02*
X22268425Y-11981959D01*
X22846425Y-11916959D02*
X22911425Y-11981959D01*
X22911425Y-11916959D02*
X22846425Y-11981959D01*
X23796920Y-6038479D02*
X23861920Y-6103479D01*
X23861920Y-6038479D02*
X23796920Y-6103479D01*
X23796920Y-6616479D02*
X23861920Y-6681479D01*
X23861920Y-6616479D02*
X23796920Y-6681479D01*
D11*
X20768772Y-12883134D02*
X20768772Y-12683134D01*
X20768772Y-12683134D02*
X20816391Y-12683134D01*
X20816391Y-12683134D02*
X20844962Y-12692658D01*
X20844962Y-12692658D02*
X20864010Y-12711705D01*
X20864010Y-12711705D02*
X20873534Y-12730753D01*
X20873534Y-12730753D02*
X20883057Y-12768848D01*
X20883057Y-12768848D02*
X20883057Y-12797420D01*
X20883057Y-12797420D02*
X20873534Y-12835515D01*
X20873534Y-12835515D02*
X20864010Y-12854562D01*
X20864010Y-12854562D02*
X20844962Y-12873610D01*
X20844962Y-12873610D02*
X20816391Y-12883134D01*
X20816391Y-12883134D02*
X20768772Y-12883134D01*
X20968772Y-12883134D02*
X20968772Y-12749800D01*
X20968772Y-12787896D02*
X20978296Y-12768848D01*
X20978296Y-12768848D02*
X20987819Y-12759324D01*
X20987819Y-12759324D02*
X21006867Y-12749800D01*
X21006867Y-12749800D02*
X21025915Y-12749800D01*
X21092581Y-12883134D02*
X21092581Y-12749800D01*
X21092581Y-12683134D02*
X21083057Y-12692658D01*
X21083057Y-12692658D02*
X21092581Y-12702181D01*
X21092581Y-12702181D02*
X21102105Y-12692658D01*
X21102105Y-12692658D02*
X21092581Y-12683134D01*
X21092581Y-12683134D02*
X21092581Y-12702181D01*
X21216391Y-12883134D02*
X21197343Y-12873610D01*
X21197343Y-12873610D02*
X21187819Y-12854562D01*
X21187819Y-12854562D02*
X21187819Y-12683134D01*
X21321153Y-12883134D02*
X21302105Y-12873610D01*
X21302105Y-12873610D02*
X21292581Y-12854562D01*
X21292581Y-12854562D02*
X21292581Y-12683134D01*
X21549724Y-12883134D02*
X21549724Y-12683134D01*
X21549724Y-12683134D02*
X21616391Y-12825991D01*
X21616391Y-12825991D02*
X21683057Y-12683134D01*
X21683057Y-12683134D02*
X21683057Y-12883134D01*
X21864010Y-12883134D02*
X21864010Y-12778372D01*
X21864010Y-12778372D02*
X21854486Y-12759324D01*
X21854486Y-12759324D02*
X21835438Y-12749800D01*
X21835438Y-12749800D02*
X21797343Y-12749800D01*
X21797343Y-12749800D02*
X21778296Y-12759324D01*
X21864010Y-12873610D02*
X21844962Y-12883134D01*
X21844962Y-12883134D02*
X21797343Y-12883134D01*
X21797343Y-12883134D02*
X21778296Y-12873610D01*
X21778296Y-12873610D02*
X21768772Y-12854562D01*
X21768772Y-12854562D02*
X21768772Y-12835515D01*
X21768772Y-12835515D02*
X21778296Y-12816467D01*
X21778296Y-12816467D02*
X21797343Y-12806943D01*
X21797343Y-12806943D02*
X21844962Y-12806943D01*
X21844962Y-12806943D02*
X21864010Y-12797420D01*
X21959248Y-12749800D02*
X21959248Y-12949800D01*
X21959248Y-12759324D02*
X21978296Y-12749800D01*
X21978296Y-12749800D02*
X22016391Y-12749800D01*
X22016391Y-12749800D02*
X22035438Y-12759324D01*
X22035438Y-12759324D02*
X22044962Y-12768848D01*
X22044962Y-12768848D02*
X22054486Y-12787896D01*
X22054486Y-12787896D02*
X22054486Y-12845039D01*
X22054486Y-12845039D02*
X22044962Y-12864086D01*
X22044962Y-12864086D02*
X22035438Y-12873610D01*
X22035438Y-12873610D02*
X22016391Y-12883134D01*
X22016391Y-12883134D02*
X21978296Y-12883134D01*
X21978296Y-12883134D02*
X21959248Y-12873610D01*
X22140200Y-12864086D02*
X22149724Y-12873610D01*
X22149724Y-12873610D02*
X22140200Y-12883134D01*
X22140200Y-12883134D02*
X22130677Y-12873610D01*
X22130677Y-12873610D02*
X22140200Y-12864086D01*
X22140200Y-12864086D02*
X22140200Y-12883134D01*
X22140200Y-12759324D02*
X22149724Y-12768848D01*
X22149724Y-12768848D02*
X22140200Y-12778372D01*
X22140200Y-12778372D02*
X22130677Y-12768848D01*
X22130677Y-12768848D02*
X22140200Y-12759324D01*
X22140200Y-12759324D02*
X22140200Y-12778372D01*
D12*
X20442995Y-13179150D02*
X20507995Y-13244150D01*
X20507995Y-13179150D02*
X20442995Y-13244150D01*
D11*
X20806867Y-13103134D02*
X20825915Y-13103134D01*
X20825915Y-13103134D02*
X20844962Y-13112658D01*
X20844962Y-13112658D02*
X20854486Y-13122181D01*
X20854486Y-13122181D02*
X20864010Y-13141229D01*
X20864010Y-13141229D02*
X20873534Y-13179324D01*
X20873534Y-13179324D02*
X20873534Y-13226943D01*
X20873534Y-13226943D02*
X20864010Y-13265039D01*
X20864010Y-13265039D02*
X20854486Y-13284086D01*
X20854486Y-13284086D02*
X20844962Y-13293610D01*
X20844962Y-13293610D02*
X20825915Y-13303134D01*
X20825915Y-13303134D02*
X20806867Y-13303134D01*
X20806867Y-13303134D02*
X20787819Y-13293610D01*
X20787819Y-13293610D02*
X20778296Y-13284086D01*
X20778296Y-13284086D02*
X20768772Y-13265039D01*
X20768772Y-13265039D02*
X20759248Y-13226943D01*
X20759248Y-13226943D02*
X20759248Y-13179324D01*
X20759248Y-13179324D02*
X20768772Y-13141229D01*
X20768772Y-13141229D02*
X20778296Y-13122181D01*
X20778296Y-13122181D02*
X20787819Y-13112658D01*
X20787819Y-13112658D02*
X20806867Y-13103134D01*
X20959248Y-13284086D02*
X20968772Y-13293610D01*
X20968772Y-13293610D02*
X20959248Y-13303134D01*
X20959248Y-13303134D02*
X20949724Y-13293610D01*
X20949724Y-13293610D02*
X20959248Y-13284086D01*
X20959248Y-13284086D02*
X20959248Y-13303134D01*
X21140200Y-13103134D02*
X21102105Y-13103134D01*
X21102105Y-13103134D02*
X21083057Y-13112658D01*
X21083057Y-13112658D02*
X21073534Y-13122181D01*
X21073534Y-13122181D02*
X21054486Y-13150753D01*
X21054486Y-13150753D02*
X21044962Y-13188848D01*
X21044962Y-13188848D02*
X21044962Y-13265039D01*
X21044962Y-13265039D02*
X21054486Y-13284086D01*
X21054486Y-13284086D02*
X21064010Y-13293610D01*
X21064010Y-13293610D02*
X21083057Y-13303134D01*
X21083057Y-13303134D02*
X21121153Y-13303134D01*
X21121153Y-13303134D02*
X21140200Y-13293610D01*
X21140200Y-13293610D02*
X21149724Y-13284086D01*
X21149724Y-13284086D02*
X21159248Y-13265039D01*
X21159248Y-13265039D02*
X21159248Y-13217420D01*
X21159248Y-13217420D02*
X21149724Y-13198372D01*
X21149724Y-13198372D02*
X21140200Y-13188848D01*
X21140200Y-13188848D02*
X21121153Y-13179324D01*
X21121153Y-13179324D02*
X21083057Y-13179324D01*
X21083057Y-13179324D02*
X21064010Y-13188848D01*
X21064010Y-13188848D02*
X21054486Y-13198372D01*
X21054486Y-13198372D02*
X21044962Y-13217420D01*
X21340200Y-13103134D02*
X21244962Y-13103134D01*
X21244962Y-13103134D02*
X21235438Y-13198372D01*
X21235438Y-13198372D02*
X21244962Y-13188848D01*
X21244962Y-13188848D02*
X21264010Y-13179324D01*
X21264010Y-13179324D02*
X21311629Y-13179324D01*
X21311629Y-13179324D02*
X21330677Y-13188848D01*
X21330677Y-13188848D02*
X21340200Y-13198372D01*
X21340200Y-13198372D02*
X21349724Y-13217420D01*
X21349724Y-13217420D02*
X21349724Y-13265039D01*
X21349724Y-13265039D02*
X21340200Y-13284086D01*
X21340200Y-13284086D02*
X21330677Y-13293610D01*
X21330677Y-13293610D02*
X21311629Y-13303134D01*
X21311629Y-13303134D02*
X21264010Y-13303134D01*
X21264010Y-13303134D02*
X21244962Y-13293610D01*
X21244962Y-13293610D02*
X21235438Y-13284086D01*
X21473534Y-13103134D02*
X21492581Y-13103134D01*
X21492581Y-13103134D02*
X21511629Y-13112658D01*
X21511629Y-13112658D02*
X21521153Y-13122181D01*
X21521153Y-13122181D02*
X21530677Y-13141229D01*
X21530677Y-13141229D02*
X21540200Y-13179324D01*
X21540200Y-13179324D02*
X21540200Y-13226943D01*
X21540200Y-13226943D02*
X21530677Y-13265039D01*
X21530677Y-13265039D02*
X21521153Y-13284086D01*
X21521153Y-13284086D02*
X21511629Y-13293610D01*
X21511629Y-13293610D02*
X21492581Y-13303134D01*
X21492581Y-13303134D02*
X21473534Y-13303134D01*
X21473534Y-13303134D02*
X21454486Y-13293610D01*
X21454486Y-13293610D02*
X21444962Y-13284086D01*
X21444962Y-13284086D02*
X21435438Y-13265039D01*
X21435438Y-13265039D02*
X21425915Y-13226943D01*
X21425915Y-13226943D02*
X21425915Y-13179324D01*
X21425915Y-13179324D02*
X21435438Y-13141229D01*
X21435438Y-13141229D02*
X21444962Y-13122181D01*
X21444962Y-13122181D02*
X21454486Y-13112658D01*
X21454486Y-13112658D02*
X21473534Y-13103134D01*
X21625915Y-13303134D02*
X21625915Y-13169800D01*
X21625915Y-13188848D02*
X21635438Y-13179324D01*
X21635438Y-13179324D02*
X21654486Y-13169800D01*
X21654486Y-13169800D02*
X21683058Y-13169800D01*
X21683058Y-13169800D02*
X21702105Y-13179324D01*
X21702105Y-13179324D02*
X21711629Y-13198372D01*
X21711629Y-13198372D02*
X21711629Y-13303134D01*
X21711629Y-13198372D02*
X21721153Y-13179324D01*
X21721153Y-13179324D02*
X21740200Y-13169800D01*
X21740200Y-13169800D02*
X21768772Y-13169800D01*
X21768772Y-13169800D02*
X21787819Y-13179324D01*
X21787819Y-13179324D02*
X21797343Y-13198372D01*
X21797343Y-13198372D02*
X21797343Y-13303134D01*
X21892581Y-13303134D02*
X21892581Y-13169800D01*
X21892581Y-13188848D02*
X21902105Y-13179324D01*
X21902105Y-13179324D02*
X21921153Y-13169800D01*
X21921153Y-13169800D02*
X21949724Y-13169800D01*
X21949724Y-13169800D02*
X21968772Y-13179324D01*
X21968772Y-13179324D02*
X21978296Y-13198372D01*
X21978296Y-13198372D02*
X21978296Y-13303134D01*
X21978296Y-13198372D02*
X21987819Y-13179324D01*
X21987819Y-13179324D02*
X22006867Y-13169800D01*
X22006867Y-13169800D02*
X22035438Y-13169800D01*
X22035438Y-13169800D02*
X22054486Y-13179324D01*
X22054486Y-13179324D02*
X22064010Y-13198372D01*
X22064010Y-13198372D02*
X22064010Y-13303134D01*
X22454486Y-13093610D02*
X22283058Y-13350753D01*
X22711629Y-13103134D02*
X22730677Y-13103134D01*
X22730677Y-13103134D02*
X22749724Y-13112658D01*
X22749724Y-13112658D02*
X22759248Y-13122181D01*
X22759248Y-13122181D02*
X22768772Y-13141229D01*
X22768772Y-13141229D02*
X22778296Y-13179324D01*
X22778296Y-13179324D02*
X22778296Y-13226943D01*
X22778296Y-13226943D02*
X22768772Y-13265039D01*
X22768772Y-13265039D02*
X22759248Y-13284086D01*
X22759248Y-13284086D02*
X22749724Y-13293610D01*
X22749724Y-13293610D02*
X22730677Y-13303134D01*
X22730677Y-13303134D02*
X22711629Y-13303134D01*
X22711629Y-13303134D02*
X22692581Y-13293610D01*
X22692581Y-13293610D02*
X22683058Y-13284086D01*
X22683058Y-13284086D02*
X22673534Y-13265039D01*
X22673534Y-13265039D02*
X22664010Y-13226943D01*
X22664010Y-13226943D02*
X22664010Y-13179324D01*
X22664010Y-13179324D02*
X22673534Y-13141229D01*
X22673534Y-13141229D02*
X22683058Y-13122181D01*
X22683058Y-13122181D02*
X22692581Y-13112658D01*
X22692581Y-13112658D02*
X22711629Y-13103134D01*
X22864010Y-13284086D02*
X22873534Y-13293610D01*
X22873534Y-13293610D02*
X22864010Y-13303134D01*
X22864010Y-13303134D02*
X22854486Y-13293610D01*
X22854486Y-13293610D02*
X22864010Y-13284086D01*
X22864010Y-13284086D02*
X22864010Y-13303134D01*
X22997343Y-13103134D02*
X23016391Y-13103134D01*
X23016391Y-13103134D02*
X23035439Y-13112658D01*
X23035439Y-13112658D02*
X23044962Y-13122181D01*
X23044962Y-13122181D02*
X23054486Y-13141229D01*
X23054486Y-13141229D02*
X23064010Y-13179324D01*
X23064010Y-13179324D02*
X23064010Y-13226943D01*
X23064010Y-13226943D02*
X23054486Y-13265039D01*
X23054486Y-13265039D02*
X23044962Y-13284086D01*
X23044962Y-13284086D02*
X23035439Y-13293610D01*
X23035439Y-13293610D02*
X23016391Y-13303134D01*
X23016391Y-13303134D02*
X22997343Y-13303134D01*
X22997343Y-13303134D02*
X22978296Y-13293610D01*
X22978296Y-13293610D02*
X22968772Y-13284086D01*
X22968772Y-13284086D02*
X22959248Y-13265039D01*
X22959248Y-13265039D02*
X22949724Y-13226943D01*
X22949724Y-13226943D02*
X22949724Y-13179324D01*
X22949724Y-13179324D02*
X22959248Y-13141229D01*
X22959248Y-13141229D02*
X22968772Y-13122181D01*
X22968772Y-13122181D02*
X22978296Y-13112658D01*
X22978296Y-13112658D02*
X22997343Y-13103134D01*
X23140200Y-13122181D02*
X23149724Y-13112658D01*
X23149724Y-13112658D02*
X23168772Y-13103134D01*
X23168772Y-13103134D02*
X23216391Y-13103134D01*
X23216391Y-13103134D02*
X23235439Y-13112658D01*
X23235439Y-13112658D02*
X23244962Y-13122181D01*
X23244962Y-13122181D02*
X23254486Y-13141229D01*
X23254486Y-13141229D02*
X23254486Y-13160277D01*
X23254486Y-13160277D02*
X23244962Y-13188848D01*
X23244962Y-13188848D02*
X23130677Y-13303134D01*
X23130677Y-13303134D02*
X23254486Y-13303134D01*
X23435439Y-13103134D02*
X23340200Y-13103134D01*
X23340200Y-13103134D02*
X23330677Y-13198372D01*
X23330677Y-13198372D02*
X23340200Y-13188848D01*
X23340200Y-13188848D02*
X23359248Y-13179324D01*
X23359248Y-13179324D02*
X23406867Y-13179324D01*
X23406867Y-13179324D02*
X23425915Y-13188848D01*
X23425915Y-13188848D02*
X23435439Y-13198372D01*
X23435439Y-13198372D02*
X23444962Y-13217420D01*
X23444962Y-13217420D02*
X23444962Y-13265039D01*
X23444962Y-13265039D02*
X23435439Y-13284086D01*
X23435439Y-13284086D02*
X23425915Y-13293610D01*
X23425915Y-13293610D02*
X23406867Y-13303134D01*
X23406867Y-13303134D02*
X23359248Y-13303134D01*
X23359248Y-13303134D02*
X23340200Y-13293610D01*
X23340200Y-13293610D02*
X23330677Y-13284086D01*
X23616391Y-13103134D02*
X23578296Y-13103134D01*
X23578296Y-13103134D02*
X23559248Y-13112658D01*
X23559248Y-13112658D02*
X23549724Y-13122181D01*
X23549724Y-13122181D02*
X23530677Y-13150753D01*
X23530677Y-13150753D02*
X23521153Y-13188848D01*
X23521153Y-13188848D02*
X23521153Y-13265039D01*
X23521153Y-13265039D02*
X23530677Y-13284086D01*
X23530677Y-13284086D02*
X23540200Y-13293610D01*
X23540200Y-13293610D02*
X23559248Y-13303134D01*
X23559248Y-13303134D02*
X23597343Y-13303134D01*
X23597343Y-13303134D02*
X23616391Y-13293610D01*
X23616391Y-13293610D02*
X23625915Y-13284086D01*
X23625915Y-13284086D02*
X23635439Y-13265039D01*
X23635439Y-13265039D02*
X23635439Y-13217420D01*
X23635439Y-13217420D02*
X23625915Y-13198372D01*
X23625915Y-13198372D02*
X23616391Y-13188848D01*
X23616391Y-13188848D02*
X23597343Y-13179324D01*
X23597343Y-13179324D02*
X23559248Y-13179324D01*
X23559248Y-13179324D02*
X23540200Y-13188848D01*
X23540200Y-13188848D02*
X23530677Y-13198372D01*
X23530677Y-13198372D02*
X23521153Y-13217420D01*
X23711629Y-13103134D02*
X23711629Y-13141229D01*
X23787820Y-13103134D02*
X23787820Y-13141229D01*
X24083058Y-13379324D02*
X24073534Y-13369800D01*
X24073534Y-13369800D02*
X24054486Y-13341229D01*
X24054486Y-13341229D02*
X24044962Y-13322181D01*
X24044962Y-13322181D02*
X24035439Y-13293610D01*
X24035439Y-13293610D02*
X24025915Y-13245991D01*
X24025915Y-13245991D02*
X24025915Y-13207896D01*
X24025915Y-13207896D02*
X24035439Y-13160277D01*
X24035439Y-13160277D02*
X24044962Y-13131705D01*
X24044962Y-13131705D02*
X24054486Y-13112658D01*
X24054486Y-13112658D02*
X24073534Y-13084086D01*
X24073534Y-13084086D02*
X24083058Y-13074562D01*
X24244962Y-13169800D02*
X24244962Y-13303134D01*
X24197343Y-13093610D02*
X24149724Y-13236467D01*
X24149724Y-13236467D02*
X24273534Y-13236467D01*
X24502105Y-13303134D02*
X24502105Y-13103134D01*
X24587820Y-13303134D02*
X24587820Y-13198372D01*
X24587820Y-13198372D02*
X24578296Y-13179324D01*
X24578296Y-13179324D02*
X24559248Y-13169800D01*
X24559248Y-13169800D02*
X24530677Y-13169800D01*
X24530677Y-13169800D02*
X24511629Y-13179324D01*
X24511629Y-13179324D02*
X24502105Y-13188848D01*
X24711629Y-13303134D02*
X24692582Y-13293610D01*
X24692582Y-13293610D02*
X24683058Y-13284086D01*
X24683058Y-13284086D02*
X24673534Y-13265039D01*
X24673534Y-13265039D02*
X24673534Y-13207896D01*
X24673534Y-13207896D02*
X24683058Y-13188848D01*
X24683058Y-13188848D02*
X24692582Y-13179324D01*
X24692582Y-13179324D02*
X24711629Y-13169800D01*
X24711629Y-13169800D02*
X24740201Y-13169800D01*
X24740201Y-13169800D02*
X24759248Y-13179324D01*
X24759248Y-13179324D02*
X24768772Y-13188848D01*
X24768772Y-13188848D02*
X24778296Y-13207896D01*
X24778296Y-13207896D02*
X24778296Y-13265039D01*
X24778296Y-13265039D02*
X24768772Y-13284086D01*
X24768772Y-13284086D02*
X24759248Y-13293610D01*
X24759248Y-13293610D02*
X24740201Y-13303134D01*
X24740201Y-13303134D02*
X24711629Y-13303134D01*
X24892582Y-13303134D02*
X24873534Y-13293610D01*
X24873534Y-13293610D02*
X24864010Y-13274562D01*
X24864010Y-13274562D02*
X24864010Y-13103134D01*
X25044963Y-13293610D02*
X25025915Y-13303134D01*
X25025915Y-13303134D02*
X24987820Y-13303134D01*
X24987820Y-13303134D02*
X24968772Y-13293610D01*
X24968772Y-13293610D02*
X24959248Y-13274562D01*
X24959248Y-13274562D02*
X24959248Y-13198372D01*
X24959248Y-13198372D02*
X24968772Y-13179324D01*
X24968772Y-13179324D02*
X24987820Y-13169800D01*
X24987820Y-13169800D02*
X25025915Y-13169800D01*
X25025915Y-13169800D02*
X25044963Y-13179324D01*
X25044963Y-13179324D02*
X25054486Y-13198372D01*
X25054486Y-13198372D02*
X25054486Y-13217420D01*
X25054486Y-13217420D02*
X24959248Y-13236467D01*
X25130677Y-13293610D02*
X25149724Y-13303134D01*
X25149724Y-13303134D02*
X25187820Y-13303134D01*
X25187820Y-13303134D02*
X25206867Y-13293610D01*
X25206867Y-13293610D02*
X25216391Y-13274562D01*
X25216391Y-13274562D02*
X25216391Y-13265039D01*
X25216391Y-13265039D02*
X25206867Y-13245991D01*
X25206867Y-13245991D02*
X25187820Y-13236467D01*
X25187820Y-13236467D02*
X25159248Y-13236467D01*
X25159248Y-13236467D02*
X25140201Y-13226943D01*
X25140201Y-13226943D02*
X25130677Y-13207896D01*
X25130677Y-13207896D02*
X25130677Y-13198372D01*
X25130677Y-13198372D02*
X25140201Y-13179324D01*
X25140201Y-13179324D02*
X25159248Y-13169800D01*
X25159248Y-13169800D02*
X25187820Y-13169800D01*
X25187820Y-13169800D02*
X25206867Y-13179324D01*
X25283058Y-13379324D02*
X25292582Y-13369800D01*
X25292582Y-13369800D02*
X25311629Y-13341229D01*
X25311629Y-13341229D02*
X25321153Y-13322181D01*
X25321153Y-13322181D02*
X25330677Y-13293610D01*
X25330677Y-13293610D02*
X25340201Y-13245991D01*
X25340201Y-13245991D02*
X25340201Y-13207896D01*
X25340201Y-13207896D02*
X25330677Y-13160277D01*
X25330677Y-13160277D02*
X25321153Y-13131705D01*
X25321153Y-13131705D02*
X25311629Y-13112658D01*
X25311629Y-13112658D02*
X25292582Y-13084086D01*
X25292582Y-13084086D02*
X25283058Y-13074562D01*
X25644963Y-13379324D02*
X25635439Y-13369800D01*
X25635439Y-13369800D02*
X25616391Y-13341229D01*
X25616391Y-13341229D02*
X25606867Y-13322181D01*
X25606867Y-13322181D02*
X25597344Y-13293610D01*
X25597344Y-13293610D02*
X25587820Y-13245991D01*
X25587820Y-13245991D02*
X25587820Y-13207896D01*
X25587820Y-13207896D02*
X25597344Y-13160277D01*
X25597344Y-13160277D02*
X25606867Y-13131705D01*
X25606867Y-13131705D02*
X25616391Y-13112658D01*
X25616391Y-13112658D02*
X25635439Y-13084086D01*
X25635439Y-13084086D02*
X25644963Y-13074562D01*
X25721153Y-13169800D02*
X25721153Y-13303134D01*
X25721153Y-13188848D02*
X25730677Y-13179324D01*
X25730677Y-13179324D02*
X25749724Y-13169800D01*
X25749724Y-13169800D02*
X25778296Y-13169800D01*
X25778296Y-13169800D02*
X25797344Y-13179324D01*
X25797344Y-13179324D02*
X25806867Y-13198372D01*
X25806867Y-13198372D02*
X25806867Y-13303134D01*
X25930677Y-13303134D02*
X25911629Y-13293610D01*
X25911629Y-13293610D02*
X25902105Y-13284086D01*
X25902105Y-13284086D02*
X25892582Y-13265039D01*
X25892582Y-13265039D02*
X25892582Y-13207896D01*
X25892582Y-13207896D02*
X25902105Y-13188848D01*
X25902105Y-13188848D02*
X25911629Y-13179324D01*
X25911629Y-13179324D02*
X25930677Y-13169800D01*
X25930677Y-13169800D02*
X25959248Y-13169800D01*
X25959248Y-13169800D02*
X25978296Y-13179324D01*
X25978296Y-13179324D02*
X25987820Y-13188848D01*
X25987820Y-13188848D02*
X25997344Y-13207896D01*
X25997344Y-13207896D02*
X25997344Y-13265039D01*
X25997344Y-13265039D02*
X25987820Y-13284086D01*
X25987820Y-13284086D02*
X25978296Y-13293610D01*
X25978296Y-13293610D02*
X25959248Y-13303134D01*
X25959248Y-13303134D02*
X25930677Y-13303134D01*
X26054486Y-13169800D02*
X26130677Y-13169800D01*
X26083058Y-13103134D02*
X26083058Y-13274562D01*
X26083058Y-13274562D02*
X26092582Y-13293610D01*
X26092582Y-13293610D02*
X26111629Y-13303134D01*
X26111629Y-13303134D02*
X26130677Y-13303134D01*
X26349725Y-13169800D02*
X26349725Y-13369800D01*
X26349725Y-13179324D02*
X26368772Y-13169800D01*
X26368772Y-13169800D02*
X26406867Y-13169800D01*
X26406867Y-13169800D02*
X26425915Y-13179324D01*
X26425915Y-13179324D02*
X26435439Y-13188848D01*
X26435439Y-13188848D02*
X26444963Y-13207896D01*
X26444963Y-13207896D02*
X26444963Y-13265039D01*
X26444963Y-13265039D02*
X26435439Y-13284086D01*
X26435439Y-13284086D02*
X26425915Y-13293610D01*
X26425915Y-13293610D02*
X26406867Y-13303134D01*
X26406867Y-13303134D02*
X26368772Y-13303134D01*
X26368772Y-13303134D02*
X26349725Y-13293610D01*
X26559248Y-13303134D02*
X26540201Y-13293610D01*
X26540201Y-13293610D02*
X26530677Y-13274562D01*
X26530677Y-13274562D02*
X26530677Y-13103134D01*
X26721153Y-13303134D02*
X26721153Y-13198372D01*
X26721153Y-13198372D02*
X26711629Y-13179324D01*
X26711629Y-13179324D02*
X26692582Y-13169800D01*
X26692582Y-13169800D02*
X26654486Y-13169800D01*
X26654486Y-13169800D02*
X26635439Y-13179324D01*
X26721153Y-13293610D02*
X26702106Y-13303134D01*
X26702106Y-13303134D02*
X26654486Y-13303134D01*
X26654486Y-13303134D02*
X26635439Y-13293610D01*
X26635439Y-13293610D02*
X26625915Y-13274562D01*
X26625915Y-13274562D02*
X26625915Y-13255515D01*
X26625915Y-13255515D02*
X26635439Y-13236467D01*
X26635439Y-13236467D02*
X26654486Y-13226943D01*
X26654486Y-13226943D02*
X26702106Y-13226943D01*
X26702106Y-13226943D02*
X26721153Y-13217420D01*
X26787820Y-13169800D02*
X26864010Y-13169800D01*
X26816391Y-13103134D02*
X26816391Y-13274562D01*
X26816391Y-13274562D02*
X26825915Y-13293610D01*
X26825915Y-13293610D02*
X26844963Y-13303134D01*
X26844963Y-13303134D02*
X26864010Y-13303134D01*
X27006867Y-13293610D02*
X26987820Y-13303134D01*
X26987820Y-13303134D02*
X26949725Y-13303134D01*
X26949725Y-13303134D02*
X26930677Y-13293610D01*
X26930677Y-13293610D02*
X26921153Y-13274562D01*
X26921153Y-13274562D02*
X26921153Y-13198372D01*
X26921153Y-13198372D02*
X26930677Y-13179324D01*
X26930677Y-13179324D02*
X26949725Y-13169800D01*
X26949725Y-13169800D02*
X26987820Y-13169800D01*
X26987820Y-13169800D02*
X27006867Y-13179324D01*
X27006867Y-13179324D02*
X27016391Y-13198372D01*
X27016391Y-13198372D02*
X27016391Y-13217420D01*
X27016391Y-13217420D02*
X26921153Y-13236467D01*
X27187820Y-13303134D02*
X27187820Y-13103134D01*
X27187820Y-13293610D02*
X27168772Y-13303134D01*
X27168772Y-13303134D02*
X27130677Y-13303134D01*
X27130677Y-13303134D02*
X27111629Y-13293610D01*
X27111629Y-13293610D02*
X27102106Y-13284086D01*
X27102106Y-13284086D02*
X27092582Y-13265039D01*
X27092582Y-13265039D02*
X27092582Y-13207896D01*
X27092582Y-13207896D02*
X27102106Y-13188848D01*
X27102106Y-13188848D02*
X27111629Y-13179324D01*
X27111629Y-13179324D02*
X27130677Y-13169800D01*
X27130677Y-13169800D02*
X27168772Y-13169800D01*
X27168772Y-13169800D02*
X27187820Y-13179324D01*
X27264010Y-13379324D02*
X27273534Y-13369800D01*
X27273534Y-13369800D02*
X27292582Y-13341229D01*
X27292582Y-13341229D02*
X27302106Y-13322181D01*
X27302106Y-13322181D02*
X27311629Y-13293610D01*
X27311629Y-13293610D02*
X27321153Y-13245991D01*
X27321153Y-13245991D02*
X27321153Y-13207896D01*
X27321153Y-13207896D02*
X27311629Y-13160277D01*
X27311629Y-13160277D02*
X27302106Y-13131705D01*
X27302106Y-13131705D02*
X27292582Y-13112658D01*
X27292582Y-13112658D02*
X27273534Y-13084086D01*
X27273534Y-13084086D02*
X27264010Y-13074562D01*
M02*
