%TF.GenerationSoftware,KiCad,Pcbnew,9.0.8-9.0.8~ubuntu24.04.1*%
%TF.CreationDate,2026-04-17T12:06:03+07:00*%
%TF.ProjectId,yohub,796f6875-622e-46b6-9963-61645f706362,rev?*%
%TF.SameCoordinates,Original*%
%TF.FileFunction,Drillmap*%
%TF.FilePolarity,Positive*%
%FSLAX45Y45*%
G04 Gerber Fmt 4.5, Leading zero omitted, Abs format (unit mm)*
G04 Created by KiCad (PCBNEW 9.0.8-9.0.8~ubuntu24.04.1) date 2026-04-17 12:06:03*
%MOMM*%
%LPD*%
G01*
G04 APERTURE LIST*
%ADD10C,0.050000*%
%ADD11C,0.200000*%
%ADD12C,0.100000*%
G04 APERTURE END LIST*
D10*
X20510495Y-6945880D02*
X20510495Y-12473625D01*
X20510495Y-6945880D02*
G75*
G02*
X21785250Y-5671125I1274755J0D01*
G01*
X20605495Y-12569150D02*
X23127750Y-12569150D01*
X20606020Y-12569150D02*
G75*
G02*
X20510500Y-12473625I0J95520D01*
G01*
X21670379Y-6430000D02*
G75*
G02*
X21060779Y-6430000I-304800J0D01*
G01*
X21060779Y-6430000D02*
G75*
G02*
X21670379Y-6430000I304800J0D01*
G01*
X21785250Y-5671125D02*
X23772995Y-5671125D01*
X22429924Y-8039973D02*
G75*
G02*
X22209927Y-8039973I-109999J0D01*
G01*
X22209927Y-8039973D02*
G75*
G02*
X22429924Y-8039973I109999J0D01*
G01*
X22429924Y-10229966D02*
G75*
G02*
X22209927Y-10229966I-109999J0D01*
G01*
X22209927Y-10229966D02*
G75*
G02*
X22429924Y-10229966I109999J0D01*
G01*
X23127750Y-12568625D02*
X24455000Y-11241375D01*
X23387995Y-11243625D02*
X23900495Y-10731125D01*
X23685495Y-11541125D02*
X23387995Y-11243625D01*
X23772995Y-5671125D02*
X24380495Y-5671125D01*
X23900495Y-10731125D02*
X24197995Y-11028625D01*
X24197995Y-11028625D02*
X23685495Y-11541125D01*
X24379870Y-5671125D02*
G75*
G02*
X24454995Y-5746255I-10J-75135D01*
G01*
X24455000Y-5746255D02*
X24455000Y-8193625D01*
X24455000Y-8618625D02*
X24455000Y-8193625D01*
X24455000Y-11241375D02*
X24455000Y-8618625D01*
D11*
D12*
X22154926Y-11204963D02*
X22184926Y-11234963D01*
X22184926Y-11204963D02*
X22154926Y-11234963D01*
X22154926Y-11534961D02*
X22184926Y-11564961D01*
X22184926Y-11534961D02*
X22154926Y-11564961D01*
X22394925Y-11298712D02*
X22424925Y-11328712D01*
X22424925Y-11298712D02*
X22394925Y-11328712D01*
X22514925Y-7334975D02*
X22544925Y-7364975D01*
X22544925Y-7334975D02*
X22514925Y-7364975D01*
X22694924Y-9314969D02*
X22724924Y-9344969D01*
X22724924Y-9314969D02*
X22694924Y-9344969D01*
X22694924Y-10304966D02*
X22724924Y-10334966D01*
X22724924Y-10304966D02*
X22694924Y-10334966D01*
X22784924Y-11298712D02*
X22814924Y-11328712D01*
X22814924Y-11298712D02*
X22784924Y-11328712D01*
X23024923Y-5954980D02*
X23054923Y-5984980D01*
X23054923Y-5954980D02*
X23024923Y-5984980D01*
X23324922Y-6944977D02*
X23354922Y-6974977D01*
X23354922Y-6944977D02*
X23324922Y-6974977D01*
X23354922Y-6734977D02*
X23384922Y-6764977D01*
X23384922Y-6734977D02*
X23354922Y-6764977D01*
X23594921Y-8054973D02*
X23624921Y-8084973D01*
X23624921Y-8054973D02*
X23594921Y-8084973D01*
X23624921Y-7904974D02*
X23654921Y-7934974D01*
X23654921Y-7904974D02*
X23624921Y-7934974D01*
X23804921Y-6974977D02*
X23834921Y-7004977D01*
X23834921Y-6974977D02*
X23804921Y-7004977D01*
X23834920Y-7921637D02*
X23864920Y-7951637D01*
X23864920Y-7921637D02*
X23834920Y-7951637D01*
X21433930Y-10729962D02*
G75*
G02*
X21373930Y-10729962I-30000J0D01*
G01*
X21373930Y-10729962D02*
G75*
G02*
X21433930Y-10729962I30000J0D01*
G01*
X21488930Y-10699962D02*
X21318930Y-10699962D01*
X21318930Y-10759962D02*
G75*
G02*
X21318930Y-10699962I0J30000D01*
G01*
X21318930Y-10759962D02*
X21488930Y-10759962D01*
X21488930Y-10759962D02*
G75*
G03*
X21488930Y-10699962I0J30000D01*
G01*
X21433930Y-12009962D02*
G75*
G02*
X21373930Y-12009962I-30000J0D01*
G01*
X21373930Y-12009962D02*
G75*
G02*
X21433930Y-12009962I30000J0D01*
G01*
X21488930Y-11979962D02*
X21318930Y-11979962D01*
X21318930Y-12039962D02*
G75*
G02*
X21318930Y-11979962I0J30000D01*
G01*
X21318930Y-12039962D02*
X21488930Y-12039962D01*
X21488930Y-12039962D02*
G75*
G03*
X21488930Y-11979962I0J30000D01*
G01*
X21439927Y-7039974D02*
G75*
G02*
X21379927Y-7039974I-30000J0D01*
G01*
X21379927Y-7039974D02*
G75*
G02*
X21439927Y-7039974I30000J0D01*
G01*
X21494927Y-7009974D02*
X21324927Y-7009974D01*
X21324927Y-7069974D02*
G75*
G02*
X21324927Y-7009974I0J30000D01*
G01*
X21324927Y-7069974D02*
X21494927Y-7069974D01*
X21494927Y-7069974D02*
G75*
G03*
X21494927Y-7009974I0J30000D01*
G01*
X21439927Y-8319974D02*
G75*
G02*
X21379927Y-8319974I-30000J0D01*
G01*
X21379927Y-8319974D02*
G75*
G02*
X21439927Y-8319974I30000J0D01*
G01*
X21494927Y-8289974D02*
X21324927Y-8289974D01*
X21324927Y-8349974D02*
G75*
G02*
X21324927Y-8289974I0J30000D01*
G01*
X21324927Y-8349974D02*
X21494927Y-8349974D01*
X21494927Y-8349974D02*
G75*
G03*
X21494927Y-8289974I0J30000D01*
G01*
X21444930Y-8889968D02*
G75*
G02*
X21384930Y-8889968I-30000J0D01*
G01*
X21384930Y-8889968D02*
G75*
G02*
X21444930Y-8889968I30000J0D01*
G01*
X21499930Y-8859968D02*
X21329930Y-8859968D01*
X21329930Y-8919968D02*
G75*
G02*
X21329930Y-8859968I0J30000D01*
G01*
X21329930Y-8919968D02*
X21499930Y-8919968D01*
X21499930Y-8919968D02*
G75*
G03*
X21499930Y-8859968I0J30000D01*
G01*
X21444930Y-10169968D02*
G75*
G02*
X21384930Y-10169968I-30000J0D01*
G01*
X21384930Y-10169968D02*
G75*
G02*
X21444930Y-10169968I30000J0D01*
G01*
X21499930Y-10139968D02*
X21329930Y-10139968D01*
X21329930Y-10199968D02*
G75*
G02*
X21329930Y-10139968I0J30000D01*
G01*
X21329930Y-10199968D02*
X21499930Y-10199968D01*
X21499930Y-10199968D02*
G75*
G03*
X21499930Y-10139968I0J30000D01*
G01*
X22187925Y-11899459D02*
G75*
G02*
X22127925Y-11899459I-30000J0D01*
G01*
X22127925Y-11899459D02*
G75*
G02*
X22187925Y-11899459I30000J0D01*
G01*
X22127925Y-11844459D02*
X22127925Y-11954459D01*
X22187925Y-11954459D02*
G75*
G02*
X22127925Y-11954459I-30000J0D01*
G01*
X22187925Y-11954459D02*
X22187925Y-11844459D01*
X22187925Y-11844459D02*
G75*
G03*
X22127925Y-11844459I-30000J0D01*
G01*
X22187925Y-12317459D02*
G75*
G02*
X22127925Y-12317459I-30000J0D01*
G01*
X22127925Y-12317459D02*
G75*
G02*
X22187925Y-12317459I30000J0D01*
G01*
X22127925Y-12277459D02*
X22127925Y-12357459D01*
X22187925Y-12357459D02*
G75*
G02*
X22127925Y-12357459I-30000J0D01*
G01*
X22187925Y-12357459D02*
X22187925Y-12277459D01*
X22187925Y-12277459D02*
G75*
G03*
X22127925Y-12277459I-30000J0D01*
G01*
X23051925Y-11899459D02*
G75*
G02*
X22991925Y-11899459I-30000J0D01*
G01*
X22991925Y-11899459D02*
G75*
G02*
X23051925Y-11899459I30000J0D01*
G01*
X22991925Y-11844459D02*
X22991925Y-11954459D01*
X23051925Y-11954459D02*
G75*
G02*
X22991925Y-11954459I-30000J0D01*
G01*
X23051925Y-11954459D02*
X23051925Y-11844459D01*
X23051925Y-11844459D02*
G75*
G03*
X22991925Y-11844459I-30000J0D01*
G01*
X23051925Y-12317459D02*
G75*
G02*
X22991925Y-12317459I-30000J0D01*
G01*
X22991925Y-12317459D02*
G75*
G02*
X23051925Y-12317459I30000J0D01*
G01*
X22991925Y-12277459D02*
X22991925Y-12357459D01*
X23051925Y-12357459D02*
G75*
G02*
X22991925Y-12357459I-30000J0D01*
G01*
X23051925Y-12357459D02*
X23051925Y-12277459D01*
X23051925Y-12277459D02*
G75*
G03*
X22991925Y-12277459I-30000J0D01*
G01*
X23809420Y-5927979D02*
G75*
G02*
X23749420Y-5927979I-30000J0D01*
G01*
X23749420Y-5927979D02*
G75*
G02*
X23809420Y-5927979I30000J0D01*
G01*
X23724420Y-5957979D02*
X23834420Y-5957979D01*
X23834420Y-5897979D02*
G75*
G02*
X23834420Y-5957979I0J-30000D01*
G01*
X23834420Y-5897979D02*
X23724420Y-5897979D01*
X23724420Y-5897979D02*
G75*
G03*
X23724420Y-5957979I0J-30000D01*
G01*
X23809420Y-6791979D02*
G75*
G02*
X23749420Y-6791979I-30000J0D01*
G01*
X23749420Y-6791979D02*
G75*
G02*
X23809420Y-6791979I30000J0D01*
G01*
X23724420Y-6821979D02*
X23834420Y-6821979D01*
X23834420Y-6761979D02*
G75*
G02*
X23834420Y-6821979I0J-30000D01*
G01*
X23834420Y-6761979D02*
X23724420Y-6761979D01*
X23724420Y-6761979D02*
G75*
G03*
X23724420Y-6821979I0J-30000D01*
G01*
X24227420Y-5927979D02*
G75*
G02*
X24167420Y-5927979I-30000J0D01*
G01*
X24167420Y-5927979D02*
G75*
G02*
X24227420Y-5927979I30000J0D01*
G01*
X24157420Y-5957979D02*
X24237420Y-5957979D01*
X24237420Y-5897979D02*
G75*
G02*
X24237420Y-5957979I0J-30000D01*
G01*
X24237420Y-5897979D02*
X24157420Y-5897979D01*
X24157420Y-5897979D02*
G75*
G03*
X24157420Y-5957979I0J-30000D01*
G01*
X24227420Y-6791979D02*
G75*
G02*
X24167420Y-6791979I-30000J0D01*
G01*
X24167420Y-6791979D02*
G75*
G02*
X24227420Y-6791979I30000J0D01*
G01*
X24157420Y-6821979D02*
X24237420Y-6821979D01*
X24237420Y-6761979D02*
G75*
G02*
X24237420Y-6821979I0J-30000D01*
G01*
X24237420Y-6761979D02*
X24157420Y-6761979D01*
X24157420Y-6761979D02*
G75*
G03*
X24157420Y-6821979I0J-30000D01*
G01*
D11*
X20768772Y-12883134D02*
X20768772Y-12683134D01*
X20768772Y-12683134D02*
X20816391Y-12683134D01*
X20816391Y-12683134D02*
X20844962Y-12692658D01*
X20844962Y-12692658D02*
X20864010Y-12711705D01*
X20864010Y-12711705D02*
X20873534Y-12730753D01*
X20873534Y-12730753D02*
X20883057Y-12768848D01*
X20883057Y-12768848D02*
X20883057Y-12797420D01*
X20883057Y-12797420D02*
X20873534Y-12835515D01*
X20873534Y-12835515D02*
X20864010Y-12854562D01*
X20864010Y-12854562D02*
X20844962Y-12873610D01*
X20844962Y-12873610D02*
X20816391Y-12883134D01*
X20816391Y-12883134D02*
X20768772Y-12883134D01*
X20968772Y-12883134D02*
X20968772Y-12749800D01*
X20968772Y-12787896D02*
X20978296Y-12768848D01*
X20978296Y-12768848D02*
X20987819Y-12759324D01*
X20987819Y-12759324D02*
X21006867Y-12749800D01*
X21006867Y-12749800D02*
X21025915Y-12749800D01*
X21092581Y-12883134D02*
X21092581Y-12749800D01*
X21092581Y-12683134D02*
X21083057Y-12692658D01*
X21083057Y-12692658D02*
X21092581Y-12702181D01*
X21092581Y-12702181D02*
X21102105Y-12692658D01*
X21102105Y-12692658D02*
X21092581Y-12683134D01*
X21092581Y-12683134D02*
X21092581Y-12702181D01*
X21216391Y-12883134D02*
X21197343Y-12873610D01*
X21197343Y-12873610D02*
X21187819Y-12854562D01*
X21187819Y-12854562D02*
X21187819Y-12683134D01*
X21321153Y-12883134D02*
X21302105Y-12873610D01*
X21302105Y-12873610D02*
X21292581Y-12854562D01*
X21292581Y-12854562D02*
X21292581Y-12683134D01*
X21549724Y-12883134D02*
X21549724Y-12683134D01*
X21549724Y-12683134D02*
X21616391Y-12825991D01*
X21616391Y-12825991D02*
X21683057Y-12683134D01*
X21683057Y-12683134D02*
X21683057Y-12883134D01*
X21864010Y-12883134D02*
X21864010Y-12778372D01*
X21864010Y-12778372D02*
X21854486Y-12759324D01*
X21854486Y-12759324D02*
X21835438Y-12749800D01*
X21835438Y-12749800D02*
X21797343Y-12749800D01*
X21797343Y-12749800D02*
X21778296Y-12759324D01*
X21864010Y-12873610D02*
X21844962Y-12883134D01*
X21844962Y-12883134D02*
X21797343Y-12883134D01*
X21797343Y-12883134D02*
X21778296Y-12873610D01*
X21778296Y-12873610D02*
X21768772Y-12854562D01*
X21768772Y-12854562D02*
X21768772Y-12835515D01*
X21768772Y-12835515D02*
X21778296Y-12816467D01*
X21778296Y-12816467D02*
X21797343Y-12806943D01*
X21797343Y-12806943D02*
X21844962Y-12806943D01*
X21844962Y-12806943D02*
X21864010Y-12797420D01*
X21959248Y-12749800D02*
X21959248Y-12949800D01*
X21959248Y-12759324D02*
X21978296Y-12749800D01*
X21978296Y-12749800D02*
X22016391Y-12749800D01*
X22016391Y-12749800D02*
X22035438Y-12759324D01*
X22035438Y-12759324D02*
X22044962Y-12768848D01*
X22044962Y-12768848D02*
X22054486Y-12787896D01*
X22054486Y-12787896D02*
X22054486Y-12845039D01*
X22054486Y-12845039D02*
X22044962Y-12864086D01*
X22044962Y-12864086D02*
X22035438Y-12873610D01*
X22035438Y-12873610D02*
X22016391Y-12883134D01*
X22016391Y-12883134D02*
X21978296Y-12883134D01*
X21978296Y-12883134D02*
X21959248Y-12873610D01*
X22140200Y-12864086D02*
X22149724Y-12873610D01*
X22149724Y-12873610D02*
X22140200Y-12883134D01*
X22140200Y-12883134D02*
X22130677Y-12873610D01*
X22130677Y-12873610D02*
X22140200Y-12864086D01*
X22140200Y-12864086D02*
X22140200Y-12883134D01*
X22140200Y-12759324D02*
X22149724Y-12768848D01*
X22149724Y-12768848D02*
X22140200Y-12778372D01*
X22140200Y-12778372D02*
X22130677Y-12768848D01*
X22130677Y-12768848D02*
X22140200Y-12759324D01*
X22140200Y-12759324D02*
X22140200Y-12778372D01*
D12*
X20477995Y-13196650D02*
X20507995Y-13226650D01*
X20507995Y-13196650D02*
X20477995Y-13226650D01*
D11*
X20806867Y-13103134D02*
X20825915Y-13103134D01*
X20825915Y-13103134D02*
X20844962Y-13112658D01*
X20844962Y-13112658D02*
X20854486Y-13122181D01*
X20854486Y-13122181D02*
X20864010Y-13141229D01*
X20864010Y-13141229D02*
X20873534Y-13179324D01*
X20873534Y-13179324D02*
X20873534Y-13226943D01*
X20873534Y-13226943D02*
X20864010Y-13265039D01*
X20864010Y-13265039D02*
X20854486Y-13284086D01*
X20854486Y-13284086D02*
X20844962Y-13293610D01*
X20844962Y-13293610D02*
X20825915Y-13303134D01*
X20825915Y-13303134D02*
X20806867Y-13303134D01*
X20806867Y-13303134D02*
X20787819Y-13293610D01*
X20787819Y-13293610D02*
X20778296Y-13284086D01*
X20778296Y-13284086D02*
X20768772Y-13265039D01*
X20768772Y-13265039D02*
X20759248Y-13226943D01*
X20759248Y-13226943D02*
X20759248Y-13179324D01*
X20759248Y-13179324D02*
X20768772Y-13141229D01*
X20768772Y-13141229D02*
X20778296Y-13122181D01*
X20778296Y-13122181D02*
X20787819Y-13112658D01*
X20787819Y-13112658D02*
X20806867Y-13103134D01*
X20959248Y-13284086D02*
X20968772Y-13293610D01*
X20968772Y-13293610D02*
X20959248Y-13303134D01*
X20959248Y-13303134D02*
X20949724Y-13293610D01*
X20949724Y-13293610D02*
X20959248Y-13284086D01*
X20959248Y-13284086D02*
X20959248Y-13303134D01*
X21035438Y-13103134D02*
X21159248Y-13103134D01*
X21159248Y-13103134D02*
X21092581Y-13179324D01*
X21092581Y-13179324D02*
X21121153Y-13179324D01*
X21121153Y-13179324D02*
X21140200Y-13188848D01*
X21140200Y-13188848D02*
X21149724Y-13198372D01*
X21149724Y-13198372D02*
X21159248Y-13217420D01*
X21159248Y-13217420D02*
X21159248Y-13265039D01*
X21159248Y-13265039D02*
X21149724Y-13284086D01*
X21149724Y-13284086D02*
X21140200Y-13293610D01*
X21140200Y-13293610D02*
X21121153Y-13303134D01*
X21121153Y-13303134D02*
X21064010Y-13303134D01*
X21064010Y-13303134D02*
X21044962Y-13293610D01*
X21044962Y-13293610D02*
X21035438Y-13284086D01*
X21283057Y-13103134D02*
X21302105Y-13103134D01*
X21302105Y-13103134D02*
X21321153Y-13112658D01*
X21321153Y-13112658D02*
X21330677Y-13122181D01*
X21330677Y-13122181D02*
X21340200Y-13141229D01*
X21340200Y-13141229D02*
X21349724Y-13179324D01*
X21349724Y-13179324D02*
X21349724Y-13226943D01*
X21349724Y-13226943D02*
X21340200Y-13265039D01*
X21340200Y-13265039D02*
X21330677Y-13284086D01*
X21330677Y-13284086D02*
X21321153Y-13293610D01*
X21321153Y-13293610D02*
X21302105Y-13303134D01*
X21302105Y-13303134D02*
X21283057Y-13303134D01*
X21283057Y-13303134D02*
X21264010Y-13293610D01*
X21264010Y-13293610D02*
X21254486Y-13284086D01*
X21254486Y-13284086D02*
X21244962Y-13265039D01*
X21244962Y-13265039D02*
X21235438Y-13226943D01*
X21235438Y-13226943D02*
X21235438Y-13179324D01*
X21235438Y-13179324D02*
X21244962Y-13141229D01*
X21244962Y-13141229D02*
X21254486Y-13122181D01*
X21254486Y-13122181D02*
X21264010Y-13112658D01*
X21264010Y-13112658D02*
X21283057Y-13103134D01*
X21473534Y-13103134D02*
X21492581Y-13103134D01*
X21492581Y-13103134D02*
X21511629Y-13112658D01*
X21511629Y-13112658D02*
X21521153Y-13122181D01*
X21521153Y-13122181D02*
X21530677Y-13141229D01*
X21530677Y-13141229D02*
X21540200Y-13179324D01*
X21540200Y-13179324D02*
X21540200Y-13226943D01*
X21540200Y-13226943D02*
X21530677Y-13265039D01*
X21530677Y-13265039D02*
X21521153Y-13284086D01*
X21521153Y-13284086D02*
X21511629Y-13293610D01*
X21511629Y-13293610D02*
X21492581Y-13303134D01*
X21492581Y-13303134D02*
X21473534Y-13303134D01*
X21473534Y-13303134D02*
X21454486Y-13293610D01*
X21454486Y-13293610D02*
X21444962Y-13284086D01*
X21444962Y-13284086D02*
X21435438Y-13265039D01*
X21435438Y-13265039D02*
X21425915Y-13226943D01*
X21425915Y-13226943D02*
X21425915Y-13179324D01*
X21425915Y-13179324D02*
X21435438Y-13141229D01*
X21435438Y-13141229D02*
X21444962Y-13122181D01*
X21444962Y-13122181D02*
X21454486Y-13112658D01*
X21454486Y-13112658D02*
X21473534Y-13103134D01*
X21625915Y-13303134D02*
X21625915Y-13169800D01*
X21625915Y-13188848D02*
X21635438Y-13179324D01*
X21635438Y-13179324D02*
X21654486Y-13169800D01*
X21654486Y-13169800D02*
X21683058Y-13169800D01*
X21683058Y-13169800D02*
X21702105Y-13179324D01*
X21702105Y-13179324D02*
X21711629Y-13198372D01*
X21711629Y-13198372D02*
X21711629Y-13303134D01*
X21711629Y-13198372D02*
X21721153Y-13179324D01*
X21721153Y-13179324D02*
X21740200Y-13169800D01*
X21740200Y-13169800D02*
X21768772Y-13169800D01*
X21768772Y-13169800D02*
X21787819Y-13179324D01*
X21787819Y-13179324D02*
X21797343Y-13198372D01*
X21797343Y-13198372D02*
X21797343Y-13303134D01*
X21892581Y-13303134D02*
X21892581Y-13169800D01*
X21892581Y-13188848D02*
X21902105Y-13179324D01*
X21902105Y-13179324D02*
X21921153Y-13169800D01*
X21921153Y-13169800D02*
X21949724Y-13169800D01*
X21949724Y-13169800D02*
X21968772Y-13179324D01*
X21968772Y-13179324D02*
X21978296Y-13198372D01*
X21978296Y-13198372D02*
X21978296Y-13303134D01*
X21978296Y-13198372D02*
X21987819Y-13179324D01*
X21987819Y-13179324D02*
X22006867Y-13169800D01*
X22006867Y-13169800D02*
X22035438Y-13169800D01*
X22035438Y-13169800D02*
X22054486Y-13179324D01*
X22054486Y-13179324D02*
X22064010Y-13198372D01*
X22064010Y-13198372D02*
X22064010Y-13303134D01*
X22454486Y-13093610D02*
X22283058Y-13350753D01*
X22711629Y-13103134D02*
X22730677Y-13103134D01*
X22730677Y-13103134D02*
X22749724Y-13112658D01*
X22749724Y-13112658D02*
X22759248Y-13122181D01*
X22759248Y-13122181D02*
X22768772Y-13141229D01*
X22768772Y-13141229D02*
X22778296Y-13179324D01*
X22778296Y-13179324D02*
X22778296Y-13226943D01*
X22778296Y-13226943D02*
X22768772Y-13265039D01*
X22768772Y-13265039D02*
X22759248Y-13284086D01*
X22759248Y-13284086D02*
X22749724Y-13293610D01*
X22749724Y-13293610D02*
X22730677Y-13303134D01*
X22730677Y-13303134D02*
X22711629Y-13303134D01*
X22711629Y-13303134D02*
X22692581Y-13293610D01*
X22692581Y-13293610D02*
X22683058Y-13284086D01*
X22683058Y-13284086D02*
X22673534Y-13265039D01*
X22673534Y-13265039D02*
X22664010Y-13226943D01*
X22664010Y-13226943D02*
X22664010Y-13179324D01*
X22664010Y-13179324D02*
X22673534Y-13141229D01*
X22673534Y-13141229D02*
X22683058Y-13122181D01*
X22683058Y-13122181D02*
X22692581Y-13112658D01*
X22692581Y-13112658D02*
X22711629Y-13103134D01*
X22864010Y-13284086D02*
X22873534Y-13293610D01*
X22873534Y-13293610D02*
X22864010Y-13303134D01*
X22864010Y-13303134D02*
X22854486Y-13293610D01*
X22854486Y-13293610D02*
X22864010Y-13284086D01*
X22864010Y-13284086D02*
X22864010Y-13303134D01*
X22997343Y-13103134D02*
X23016391Y-13103134D01*
X23016391Y-13103134D02*
X23035439Y-13112658D01*
X23035439Y-13112658D02*
X23044962Y-13122181D01*
X23044962Y-13122181D02*
X23054486Y-13141229D01*
X23054486Y-13141229D02*
X23064010Y-13179324D01*
X23064010Y-13179324D02*
X23064010Y-13226943D01*
X23064010Y-13226943D02*
X23054486Y-13265039D01*
X23054486Y-13265039D02*
X23044962Y-13284086D01*
X23044962Y-13284086D02*
X23035439Y-13293610D01*
X23035439Y-13293610D02*
X23016391Y-13303134D01*
X23016391Y-13303134D02*
X22997343Y-13303134D01*
X22997343Y-13303134D02*
X22978296Y-13293610D01*
X22978296Y-13293610D02*
X22968772Y-13284086D01*
X22968772Y-13284086D02*
X22959248Y-13265039D01*
X22959248Y-13265039D02*
X22949724Y-13226943D01*
X22949724Y-13226943D02*
X22949724Y-13179324D01*
X22949724Y-13179324D02*
X22959248Y-13141229D01*
X22959248Y-13141229D02*
X22968772Y-13122181D01*
X22968772Y-13122181D02*
X22978296Y-13112658D01*
X22978296Y-13112658D02*
X22997343Y-13103134D01*
X23254486Y-13303134D02*
X23140200Y-13303134D01*
X23197343Y-13303134D02*
X23197343Y-13103134D01*
X23197343Y-13103134D02*
X23178296Y-13131705D01*
X23178296Y-13131705D02*
X23159248Y-13150753D01*
X23159248Y-13150753D02*
X23140200Y-13160277D01*
X23444962Y-13303134D02*
X23330677Y-13303134D01*
X23387819Y-13303134D02*
X23387819Y-13103134D01*
X23387819Y-13103134D02*
X23368772Y-13131705D01*
X23368772Y-13131705D02*
X23349724Y-13150753D01*
X23349724Y-13150753D02*
X23330677Y-13160277D01*
X23559248Y-13188848D02*
X23540200Y-13179324D01*
X23540200Y-13179324D02*
X23530677Y-13169800D01*
X23530677Y-13169800D02*
X23521153Y-13150753D01*
X23521153Y-13150753D02*
X23521153Y-13141229D01*
X23521153Y-13141229D02*
X23530677Y-13122181D01*
X23530677Y-13122181D02*
X23540200Y-13112658D01*
X23540200Y-13112658D02*
X23559248Y-13103134D01*
X23559248Y-13103134D02*
X23597343Y-13103134D01*
X23597343Y-13103134D02*
X23616391Y-13112658D01*
X23616391Y-13112658D02*
X23625915Y-13122181D01*
X23625915Y-13122181D02*
X23635439Y-13141229D01*
X23635439Y-13141229D02*
X23635439Y-13150753D01*
X23635439Y-13150753D02*
X23625915Y-13169800D01*
X23625915Y-13169800D02*
X23616391Y-13179324D01*
X23616391Y-13179324D02*
X23597343Y-13188848D01*
X23597343Y-13188848D02*
X23559248Y-13188848D01*
X23559248Y-13188848D02*
X23540200Y-13198372D01*
X23540200Y-13198372D02*
X23530677Y-13207896D01*
X23530677Y-13207896D02*
X23521153Y-13226943D01*
X23521153Y-13226943D02*
X23521153Y-13265039D01*
X23521153Y-13265039D02*
X23530677Y-13284086D01*
X23530677Y-13284086D02*
X23540200Y-13293610D01*
X23540200Y-13293610D02*
X23559248Y-13303134D01*
X23559248Y-13303134D02*
X23597343Y-13303134D01*
X23597343Y-13303134D02*
X23616391Y-13293610D01*
X23616391Y-13293610D02*
X23625915Y-13284086D01*
X23625915Y-13284086D02*
X23635439Y-13265039D01*
X23635439Y-13265039D02*
X23635439Y-13226943D01*
X23635439Y-13226943D02*
X23625915Y-13207896D01*
X23625915Y-13207896D02*
X23616391Y-13198372D01*
X23616391Y-13198372D02*
X23597343Y-13188848D01*
X23711629Y-13103134D02*
X23711629Y-13141229D01*
X23787820Y-13103134D02*
X23787820Y-13141229D01*
X24083058Y-13379324D02*
X24073534Y-13369800D01*
X24073534Y-13369800D02*
X24054486Y-13341229D01*
X24054486Y-13341229D02*
X24044962Y-13322181D01*
X24044962Y-13322181D02*
X24035439Y-13293610D01*
X24035439Y-13293610D02*
X24025915Y-13245991D01*
X24025915Y-13245991D02*
X24025915Y-13207896D01*
X24025915Y-13207896D02*
X24035439Y-13160277D01*
X24035439Y-13160277D02*
X24044962Y-13131705D01*
X24044962Y-13131705D02*
X24054486Y-13112658D01*
X24054486Y-13112658D02*
X24073534Y-13084086D01*
X24073534Y-13084086D02*
X24083058Y-13074562D01*
X24264010Y-13303134D02*
X24149724Y-13303134D01*
X24206867Y-13303134D02*
X24206867Y-13103134D01*
X24206867Y-13103134D02*
X24187820Y-13131705D01*
X24187820Y-13131705D02*
X24168772Y-13150753D01*
X24168772Y-13150753D02*
X24149724Y-13160277D01*
X24435439Y-13169800D02*
X24435439Y-13303134D01*
X24387820Y-13093610D02*
X24340201Y-13236467D01*
X24340201Y-13236467D02*
X24464010Y-13236467D01*
X24692582Y-13303134D02*
X24692582Y-13103134D01*
X24778296Y-13303134D02*
X24778296Y-13198372D01*
X24778296Y-13198372D02*
X24768772Y-13179324D01*
X24768772Y-13179324D02*
X24749724Y-13169800D01*
X24749724Y-13169800D02*
X24721153Y-13169800D01*
X24721153Y-13169800D02*
X24702105Y-13179324D01*
X24702105Y-13179324D02*
X24692582Y-13188848D01*
X24902105Y-13303134D02*
X24883058Y-13293610D01*
X24883058Y-13293610D02*
X24873534Y-13284086D01*
X24873534Y-13284086D02*
X24864010Y-13265039D01*
X24864010Y-13265039D02*
X24864010Y-13207896D01*
X24864010Y-13207896D02*
X24873534Y-13188848D01*
X24873534Y-13188848D02*
X24883058Y-13179324D01*
X24883058Y-13179324D02*
X24902105Y-13169800D01*
X24902105Y-13169800D02*
X24930677Y-13169800D01*
X24930677Y-13169800D02*
X24949724Y-13179324D01*
X24949724Y-13179324D02*
X24959248Y-13188848D01*
X24959248Y-13188848D02*
X24968772Y-13207896D01*
X24968772Y-13207896D02*
X24968772Y-13265039D01*
X24968772Y-13265039D02*
X24959248Y-13284086D01*
X24959248Y-13284086D02*
X24949724Y-13293610D01*
X24949724Y-13293610D02*
X24930677Y-13303134D01*
X24930677Y-13303134D02*
X24902105Y-13303134D01*
X25083058Y-13303134D02*
X25064010Y-13293610D01*
X25064010Y-13293610D02*
X25054486Y-13274562D01*
X25054486Y-13274562D02*
X25054486Y-13103134D01*
X25235439Y-13293610D02*
X25216391Y-13303134D01*
X25216391Y-13303134D02*
X25178296Y-13303134D01*
X25178296Y-13303134D02*
X25159248Y-13293610D01*
X25159248Y-13293610D02*
X25149724Y-13274562D01*
X25149724Y-13274562D02*
X25149724Y-13198372D01*
X25149724Y-13198372D02*
X25159248Y-13179324D01*
X25159248Y-13179324D02*
X25178296Y-13169800D01*
X25178296Y-13169800D02*
X25216391Y-13169800D01*
X25216391Y-13169800D02*
X25235439Y-13179324D01*
X25235439Y-13179324D02*
X25244963Y-13198372D01*
X25244963Y-13198372D02*
X25244963Y-13217420D01*
X25244963Y-13217420D02*
X25149724Y-13236467D01*
X25321153Y-13293610D02*
X25340201Y-13303134D01*
X25340201Y-13303134D02*
X25378296Y-13303134D01*
X25378296Y-13303134D02*
X25397344Y-13293610D01*
X25397344Y-13293610D02*
X25406867Y-13274562D01*
X25406867Y-13274562D02*
X25406867Y-13265039D01*
X25406867Y-13265039D02*
X25397344Y-13245991D01*
X25397344Y-13245991D02*
X25378296Y-13236467D01*
X25378296Y-13236467D02*
X25349724Y-13236467D01*
X25349724Y-13236467D02*
X25330677Y-13226943D01*
X25330677Y-13226943D02*
X25321153Y-13207896D01*
X25321153Y-13207896D02*
X25321153Y-13198372D01*
X25321153Y-13198372D02*
X25330677Y-13179324D01*
X25330677Y-13179324D02*
X25349724Y-13169800D01*
X25349724Y-13169800D02*
X25378296Y-13169800D01*
X25378296Y-13169800D02*
X25397344Y-13179324D01*
X25473534Y-13379324D02*
X25483058Y-13369800D01*
X25483058Y-13369800D02*
X25502105Y-13341229D01*
X25502105Y-13341229D02*
X25511629Y-13322181D01*
X25511629Y-13322181D02*
X25521153Y-13293610D01*
X25521153Y-13293610D02*
X25530677Y-13245991D01*
X25530677Y-13245991D02*
X25530677Y-13207896D01*
X25530677Y-13207896D02*
X25521153Y-13160277D01*
X25521153Y-13160277D02*
X25511629Y-13131705D01*
X25511629Y-13131705D02*
X25502105Y-13112658D01*
X25502105Y-13112658D02*
X25483058Y-13084086D01*
X25483058Y-13084086D02*
X25473534Y-13074562D01*
D12*
X20507995Y-13475650D02*
G75*
G02*
X20447995Y-13475650I-30000J0D01*
G01*
X20447995Y-13475650D02*
G75*
G02*
X20507995Y-13475650I30000J0D01*
G01*
D11*
X20806867Y-13367134D02*
X20825915Y-13367134D01*
X20825915Y-13367134D02*
X20844962Y-13376658D01*
X20844962Y-13376658D02*
X20854486Y-13386181D01*
X20854486Y-13386181D02*
X20864010Y-13405229D01*
X20864010Y-13405229D02*
X20873534Y-13443324D01*
X20873534Y-13443324D02*
X20873534Y-13490943D01*
X20873534Y-13490943D02*
X20864010Y-13529039D01*
X20864010Y-13529039D02*
X20854486Y-13548086D01*
X20854486Y-13548086D02*
X20844962Y-13557610D01*
X20844962Y-13557610D02*
X20825915Y-13567134D01*
X20825915Y-13567134D02*
X20806867Y-13567134D01*
X20806867Y-13567134D02*
X20787819Y-13557610D01*
X20787819Y-13557610D02*
X20778296Y-13548086D01*
X20778296Y-13548086D02*
X20768772Y-13529039D01*
X20768772Y-13529039D02*
X20759248Y-13490943D01*
X20759248Y-13490943D02*
X20759248Y-13443324D01*
X20759248Y-13443324D02*
X20768772Y-13405229D01*
X20768772Y-13405229D02*
X20778296Y-13386181D01*
X20778296Y-13386181D02*
X20787819Y-13376658D01*
X20787819Y-13376658D02*
X20806867Y-13367134D01*
X20959248Y-13548086D02*
X20968772Y-13557610D01*
X20968772Y-13557610D02*
X20959248Y-13567134D01*
X20959248Y-13567134D02*
X20949724Y-13557610D01*
X20949724Y-13557610D02*
X20959248Y-13548086D01*
X20959248Y-13548086D02*
X20959248Y-13567134D01*
X21140200Y-13367134D02*
X21102105Y-13367134D01*
X21102105Y-13367134D02*
X21083057Y-13376658D01*
X21083057Y-13376658D02*
X21073534Y-13386181D01*
X21073534Y-13386181D02*
X21054486Y-13414753D01*
X21054486Y-13414753D02*
X21044962Y-13452848D01*
X21044962Y-13452848D02*
X21044962Y-13529039D01*
X21044962Y-13529039D02*
X21054486Y-13548086D01*
X21054486Y-13548086D02*
X21064010Y-13557610D01*
X21064010Y-13557610D02*
X21083057Y-13567134D01*
X21083057Y-13567134D02*
X21121153Y-13567134D01*
X21121153Y-13567134D02*
X21140200Y-13557610D01*
X21140200Y-13557610D02*
X21149724Y-13548086D01*
X21149724Y-13548086D02*
X21159248Y-13529039D01*
X21159248Y-13529039D02*
X21159248Y-13481420D01*
X21159248Y-13481420D02*
X21149724Y-13462372D01*
X21149724Y-13462372D02*
X21140200Y-13452848D01*
X21140200Y-13452848D02*
X21121153Y-13443324D01*
X21121153Y-13443324D02*
X21083057Y-13443324D01*
X21083057Y-13443324D02*
X21064010Y-13452848D01*
X21064010Y-13452848D02*
X21054486Y-13462372D01*
X21054486Y-13462372D02*
X21044962Y-13481420D01*
X21283057Y-13367134D02*
X21302105Y-13367134D01*
X21302105Y-13367134D02*
X21321153Y-13376658D01*
X21321153Y-13376658D02*
X21330677Y-13386181D01*
X21330677Y-13386181D02*
X21340200Y-13405229D01*
X21340200Y-13405229D02*
X21349724Y-13443324D01*
X21349724Y-13443324D02*
X21349724Y-13490943D01*
X21349724Y-13490943D02*
X21340200Y-13529039D01*
X21340200Y-13529039D02*
X21330677Y-13548086D01*
X21330677Y-13548086D02*
X21321153Y-13557610D01*
X21321153Y-13557610D02*
X21302105Y-13567134D01*
X21302105Y-13567134D02*
X21283057Y-13567134D01*
X21283057Y-13567134D02*
X21264010Y-13557610D01*
X21264010Y-13557610D02*
X21254486Y-13548086D01*
X21254486Y-13548086D02*
X21244962Y-13529039D01*
X21244962Y-13529039D02*
X21235438Y-13490943D01*
X21235438Y-13490943D02*
X21235438Y-13443324D01*
X21235438Y-13443324D02*
X21244962Y-13405229D01*
X21244962Y-13405229D02*
X21254486Y-13386181D01*
X21254486Y-13386181D02*
X21264010Y-13376658D01*
X21264010Y-13376658D02*
X21283057Y-13367134D01*
X21473534Y-13367134D02*
X21492581Y-13367134D01*
X21492581Y-13367134D02*
X21511629Y-13376658D01*
X21511629Y-13376658D02*
X21521153Y-13386181D01*
X21521153Y-13386181D02*
X21530677Y-13405229D01*
X21530677Y-13405229D02*
X21540200Y-13443324D01*
X21540200Y-13443324D02*
X21540200Y-13490943D01*
X21540200Y-13490943D02*
X21530677Y-13529039D01*
X21530677Y-13529039D02*
X21521153Y-13548086D01*
X21521153Y-13548086D02*
X21511629Y-13557610D01*
X21511629Y-13557610D02*
X21492581Y-13567134D01*
X21492581Y-13567134D02*
X21473534Y-13567134D01*
X21473534Y-13567134D02*
X21454486Y-13557610D01*
X21454486Y-13557610D02*
X21444962Y-13548086D01*
X21444962Y-13548086D02*
X21435438Y-13529039D01*
X21435438Y-13529039D02*
X21425915Y-13490943D01*
X21425915Y-13490943D02*
X21425915Y-13443324D01*
X21425915Y-13443324D02*
X21435438Y-13405229D01*
X21435438Y-13405229D02*
X21444962Y-13386181D01*
X21444962Y-13386181D02*
X21454486Y-13376658D01*
X21454486Y-13376658D02*
X21473534Y-13367134D01*
X21625915Y-13567134D02*
X21625915Y-13433800D01*
X21625915Y-13452848D02*
X21635438Y-13443324D01*
X21635438Y-13443324D02*
X21654486Y-13433800D01*
X21654486Y-13433800D02*
X21683058Y-13433800D01*
X21683058Y-13433800D02*
X21702105Y-13443324D01*
X21702105Y-13443324D02*
X21711629Y-13462372D01*
X21711629Y-13462372D02*
X21711629Y-13567134D01*
X21711629Y-13462372D02*
X21721153Y-13443324D01*
X21721153Y-13443324D02*
X21740200Y-13433800D01*
X21740200Y-13433800D02*
X21768772Y-13433800D01*
X21768772Y-13433800D02*
X21787819Y-13443324D01*
X21787819Y-13443324D02*
X21797343Y-13462372D01*
X21797343Y-13462372D02*
X21797343Y-13567134D01*
X21892581Y-13567134D02*
X21892581Y-13433800D01*
X21892581Y-13452848D02*
X21902105Y-13443324D01*
X21902105Y-13443324D02*
X21921153Y-13433800D01*
X21921153Y-13433800D02*
X21949724Y-13433800D01*
X21949724Y-13433800D02*
X21968772Y-13443324D01*
X21968772Y-13443324D02*
X21978296Y-13462372D01*
X21978296Y-13462372D02*
X21978296Y-13567134D01*
X21978296Y-13462372D02*
X21987819Y-13443324D01*
X21987819Y-13443324D02*
X22006867Y-13433800D01*
X22006867Y-13433800D02*
X22035438Y-13433800D01*
X22035438Y-13433800D02*
X22054486Y-13443324D01*
X22054486Y-13443324D02*
X22064010Y-13462372D01*
X22064010Y-13462372D02*
X22064010Y-13567134D01*
X22454486Y-13357610D02*
X22283058Y-13614753D01*
X22711629Y-13367134D02*
X22730677Y-13367134D01*
X22730677Y-13367134D02*
X22749724Y-13376658D01*
X22749724Y-13376658D02*
X22759248Y-13386181D01*
X22759248Y-13386181D02*
X22768772Y-13405229D01*
X22768772Y-13405229D02*
X22778296Y-13443324D01*
X22778296Y-13443324D02*
X22778296Y-13490943D01*
X22778296Y-13490943D02*
X22768772Y-13529039D01*
X22768772Y-13529039D02*
X22759248Y-13548086D01*
X22759248Y-13548086D02*
X22749724Y-13557610D01*
X22749724Y-13557610D02*
X22730677Y-13567134D01*
X22730677Y-13567134D02*
X22711629Y-13567134D01*
X22711629Y-13567134D02*
X22692581Y-13557610D01*
X22692581Y-13557610D02*
X22683058Y-13548086D01*
X22683058Y-13548086D02*
X22673534Y-13529039D01*
X22673534Y-13529039D02*
X22664010Y-13490943D01*
X22664010Y-13490943D02*
X22664010Y-13443324D01*
X22664010Y-13443324D02*
X22673534Y-13405229D01*
X22673534Y-13405229D02*
X22683058Y-13386181D01*
X22683058Y-13386181D02*
X22692581Y-13376658D01*
X22692581Y-13376658D02*
X22711629Y-13367134D01*
X22864010Y-13548086D02*
X22873534Y-13557610D01*
X22873534Y-13557610D02*
X22864010Y-13567134D01*
X22864010Y-13567134D02*
X22854486Y-13557610D01*
X22854486Y-13557610D02*
X22864010Y-13548086D01*
X22864010Y-13548086D02*
X22864010Y-13567134D01*
X22997343Y-13367134D02*
X23016391Y-13367134D01*
X23016391Y-13367134D02*
X23035439Y-13376658D01*
X23035439Y-13376658D02*
X23044962Y-13386181D01*
X23044962Y-13386181D02*
X23054486Y-13405229D01*
X23054486Y-13405229D02*
X23064010Y-13443324D01*
X23064010Y-13443324D02*
X23064010Y-13490943D01*
X23064010Y-13490943D02*
X23054486Y-13529039D01*
X23054486Y-13529039D02*
X23044962Y-13548086D01*
X23044962Y-13548086D02*
X23035439Y-13557610D01*
X23035439Y-13557610D02*
X23016391Y-13567134D01*
X23016391Y-13567134D02*
X22997343Y-13567134D01*
X22997343Y-13567134D02*
X22978296Y-13557610D01*
X22978296Y-13557610D02*
X22968772Y-13548086D01*
X22968772Y-13548086D02*
X22959248Y-13529039D01*
X22959248Y-13529039D02*
X22949724Y-13490943D01*
X22949724Y-13490943D02*
X22949724Y-13443324D01*
X22949724Y-13443324D02*
X22959248Y-13405229D01*
X22959248Y-13405229D02*
X22968772Y-13386181D01*
X22968772Y-13386181D02*
X22978296Y-13376658D01*
X22978296Y-13376658D02*
X22997343Y-13367134D01*
X23140200Y-13386181D02*
X23149724Y-13376658D01*
X23149724Y-13376658D02*
X23168772Y-13367134D01*
X23168772Y-13367134D02*
X23216391Y-13367134D01*
X23216391Y-13367134D02*
X23235439Y-13376658D01*
X23235439Y-13376658D02*
X23244962Y-13386181D01*
X23244962Y-13386181D02*
X23254486Y-13405229D01*
X23254486Y-13405229D02*
X23254486Y-13424277D01*
X23254486Y-13424277D02*
X23244962Y-13452848D01*
X23244962Y-13452848D02*
X23130677Y-13567134D01*
X23130677Y-13567134D02*
X23254486Y-13567134D01*
X23321153Y-13367134D02*
X23444962Y-13367134D01*
X23444962Y-13367134D02*
X23378296Y-13443324D01*
X23378296Y-13443324D02*
X23406867Y-13443324D01*
X23406867Y-13443324D02*
X23425915Y-13452848D01*
X23425915Y-13452848D02*
X23435439Y-13462372D01*
X23435439Y-13462372D02*
X23444962Y-13481420D01*
X23444962Y-13481420D02*
X23444962Y-13529039D01*
X23444962Y-13529039D02*
X23435439Y-13548086D01*
X23435439Y-13548086D02*
X23425915Y-13557610D01*
X23425915Y-13557610D02*
X23406867Y-13567134D01*
X23406867Y-13567134D02*
X23349724Y-13567134D01*
X23349724Y-13567134D02*
X23330677Y-13557610D01*
X23330677Y-13557610D02*
X23321153Y-13548086D01*
X23616391Y-13367134D02*
X23578296Y-13367134D01*
X23578296Y-13367134D02*
X23559248Y-13376658D01*
X23559248Y-13376658D02*
X23549724Y-13386181D01*
X23549724Y-13386181D02*
X23530677Y-13414753D01*
X23530677Y-13414753D02*
X23521153Y-13452848D01*
X23521153Y-13452848D02*
X23521153Y-13529039D01*
X23521153Y-13529039D02*
X23530677Y-13548086D01*
X23530677Y-13548086D02*
X23540200Y-13557610D01*
X23540200Y-13557610D02*
X23559248Y-13567134D01*
X23559248Y-13567134D02*
X23597343Y-13567134D01*
X23597343Y-13567134D02*
X23616391Y-13557610D01*
X23616391Y-13557610D02*
X23625915Y-13548086D01*
X23625915Y-13548086D02*
X23635439Y-13529039D01*
X23635439Y-13529039D02*
X23635439Y-13481420D01*
X23635439Y-13481420D02*
X23625915Y-13462372D01*
X23625915Y-13462372D02*
X23616391Y-13452848D01*
X23616391Y-13452848D02*
X23597343Y-13443324D01*
X23597343Y-13443324D02*
X23559248Y-13443324D01*
X23559248Y-13443324D02*
X23540200Y-13452848D01*
X23540200Y-13452848D02*
X23530677Y-13462372D01*
X23530677Y-13462372D02*
X23521153Y-13481420D01*
X23711629Y-13367134D02*
X23711629Y-13405229D01*
X23787820Y-13367134D02*
X23787820Y-13405229D01*
X24083058Y-13643324D02*
X24073534Y-13633800D01*
X24073534Y-13633800D02*
X24054486Y-13605229D01*
X24054486Y-13605229D02*
X24044962Y-13586181D01*
X24044962Y-13586181D02*
X24035439Y-13557610D01*
X24035439Y-13557610D02*
X24025915Y-13509991D01*
X24025915Y-13509991D02*
X24025915Y-13471896D01*
X24025915Y-13471896D02*
X24035439Y-13424277D01*
X24035439Y-13424277D02*
X24044962Y-13395705D01*
X24044962Y-13395705D02*
X24054486Y-13376658D01*
X24054486Y-13376658D02*
X24073534Y-13348086D01*
X24073534Y-13348086D02*
X24083058Y-13338562D01*
X24197343Y-13367134D02*
X24216391Y-13367134D01*
X24216391Y-13367134D02*
X24235439Y-13376658D01*
X24235439Y-13376658D02*
X24244962Y-13386181D01*
X24244962Y-13386181D02*
X24254486Y-13405229D01*
X24254486Y-13405229D02*
X24264010Y-13443324D01*
X24264010Y-13443324D02*
X24264010Y-13490943D01*
X24264010Y-13490943D02*
X24254486Y-13529039D01*
X24254486Y-13529039D02*
X24244962Y-13548086D01*
X24244962Y-13548086D02*
X24235439Y-13557610D01*
X24235439Y-13557610D02*
X24216391Y-13567134D01*
X24216391Y-13567134D02*
X24197343Y-13567134D01*
X24197343Y-13567134D02*
X24178296Y-13557610D01*
X24178296Y-13557610D02*
X24168772Y-13548086D01*
X24168772Y-13548086D02*
X24159248Y-13529039D01*
X24159248Y-13529039D02*
X24149724Y-13490943D01*
X24149724Y-13490943D02*
X24149724Y-13443324D01*
X24149724Y-13443324D02*
X24159248Y-13405229D01*
X24159248Y-13405229D02*
X24168772Y-13386181D01*
X24168772Y-13386181D02*
X24178296Y-13376658D01*
X24178296Y-13376658D02*
X24197343Y-13367134D01*
X24502105Y-13567134D02*
X24502105Y-13367134D01*
X24587820Y-13567134D02*
X24587820Y-13462372D01*
X24587820Y-13462372D02*
X24578296Y-13443324D01*
X24578296Y-13443324D02*
X24559248Y-13433800D01*
X24559248Y-13433800D02*
X24530677Y-13433800D01*
X24530677Y-13433800D02*
X24511629Y-13443324D01*
X24511629Y-13443324D02*
X24502105Y-13452848D01*
X24711629Y-13567134D02*
X24692582Y-13557610D01*
X24692582Y-13557610D02*
X24683058Y-13548086D01*
X24683058Y-13548086D02*
X24673534Y-13529039D01*
X24673534Y-13529039D02*
X24673534Y-13471896D01*
X24673534Y-13471896D02*
X24683058Y-13452848D01*
X24683058Y-13452848D02*
X24692582Y-13443324D01*
X24692582Y-13443324D02*
X24711629Y-13433800D01*
X24711629Y-13433800D02*
X24740201Y-13433800D01*
X24740201Y-13433800D02*
X24759248Y-13443324D01*
X24759248Y-13443324D02*
X24768772Y-13452848D01*
X24768772Y-13452848D02*
X24778296Y-13471896D01*
X24778296Y-13471896D02*
X24778296Y-13529039D01*
X24778296Y-13529039D02*
X24768772Y-13548086D01*
X24768772Y-13548086D02*
X24759248Y-13557610D01*
X24759248Y-13557610D02*
X24740201Y-13567134D01*
X24740201Y-13567134D02*
X24711629Y-13567134D01*
X24892582Y-13567134D02*
X24873534Y-13557610D01*
X24873534Y-13557610D02*
X24864010Y-13538562D01*
X24864010Y-13538562D02*
X24864010Y-13367134D01*
X25044963Y-13557610D02*
X25025915Y-13567134D01*
X25025915Y-13567134D02*
X24987820Y-13567134D01*
X24987820Y-13567134D02*
X24968772Y-13557610D01*
X24968772Y-13557610D02*
X24959248Y-13538562D01*
X24959248Y-13538562D02*
X24959248Y-13462372D01*
X24959248Y-13462372D02*
X24968772Y-13443324D01*
X24968772Y-13443324D02*
X24987820Y-13433800D01*
X24987820Y-13433800D02*
X25025915Y-13433800D01*
X25025915Y-13433800D02*
X25044963Y-13443324D01*
X25044963Y-13443324D02*
X25054486Y-13462372D01*
X25054486Y-13462372D02*
X25054486Y-13481420D01*
X25054486Y-13481420D02*
X24959248Y-13500467D01*
X25130677Y-13557610D02*
X25149724Y-13567134D01*
X25149724Y-13567134D02*
X25187820Y-13567134D01*
X25187820Y-13567134D02*
X25206867Y-13557610D01*
X25206867Y-13557610D02*
X25216391Y-13538562D01*
X25216391Y-13538562D02*
X25216391Y-13529039D01*
X25216391Y-13529039D02*
X25206867Y-13509991D01*
X25206867Y-13509991D02*
X25187820Y-13500467D01*
X25187820Y-13500467D02*
X25159248Y-13500467D01*
X25159248Y-13500467D02*
X25140201Y-13490943D01*
X25140201Y-13490943D02*
X25130677Y-13471896D01*
X25130677Y-13471896D02*
X25130677Y-13462372D01*
X25130677Y-13462372D02*
X25140201Y-13443324D01*
X25140201Y-13443324D02*
X25159248Y-13433800D01*
X25159248Y-13433800D02*
X25187820Y-13433800D01*
X25187820Y-13433800D02*
X25206867Y-13443324D01*
X25454486Y-13490943D02*
X25606867Y-13490943D01*
X25530677Y-13567134D02*
X25530677Y-13414753D01*
X25959248Y-13567134D02*
X25844963Y-13567134D01*
X25902105Y-13567134D02*
X25902105Y-13367134D01*
X25902105Y-13367134D02*
X25883058Y-13395705D01*
X25883058Y-13395705D02*
X25864010Y-13414753D01*
X25864010Y-13414753D02*
X25844963Y-13424277D01*
X26130677Y-13433800D02*
X26130677Y-13567134D01*
X26083058Y-13357610D02*
X26035439Y-13500467D01*
X26035439Y-13500467D02*
X26159248Y-13500467D01*
X26378296Y-13557610D02*
X26397344Y-13567134D01*
X26397344Y-13567134D02*
X26435439Y-13567134D01*
X26435439Y-13567134D02*
X26454487Y-13557610D01*
X26454487Y-13557610D02*
X26464010Y-13538562D01*
X26464010Y-13538562D02*
X26464010Y-13529039D01*
X26464010Y-13529039D02*
X26454487Y-13509991D01*
X26454487Y-13509991D02*
X26435439Y-13500467D01*
X26435439Y-13500467D02*
X26406867Y-13500467D01*
X26406867Y-13500467D02*
X26387820Y-13490943D01*
X26387820Y-13490943D02*
X26378296Y-13471896D01*
X26378296Y-13471896D02*
X26378296Y-13462372D01*
X26378296Y-13462372D02*
X26387820Y-13443324D01*
X26387820Y-13443324D02*
X26406867Y-13433800D01*
X26406867Y-13433800D02*
X26435439Y-13433800D01*
X26435439Y-13433800D02*
X26454487Y-13443324D01*
X26578296Y-13567134D02*
X26559248Y-13557610D01*
X26559248Y-13557610D02*
X26549725Y-13538562D01*
X26549725Y-13538562D02*
X26549725Y-13367134D01*
X26683058Y-13567134D02*
X26664010Y-13557610D01*
X26664010Y-13557610D02*
X26654487Y-13548086D01*
X26654487Y-13548086D02*
X26644963Y-13529039D01*
X26644963Y-13529039D02*
X26644963Y-13471896D01*
X26644963Y-13471896D02*
X26654487Y-13452848D01*
X26654487Y-13452848D02*
X26664010Y-13443324D01*
X26664010Y-13443324D02*
X26683058Y-13433800D01*
X26683058Y-13433800D02*
X26711629Y-13433800D01*
X26711629Y-13433800D02*
X26730677Y-13443324D01*
X26730677Y-13443324D02*
X26740201Y-13452848D01*
X26740201Y-13452848D02*
X26749725Y-13471896D01*
X26749725Y-13471896D02*
X26749725Y-13529039D01*
X26749725Y-13529039D02*
X26740201Y-13548086D01*
X26740201Y-13548086D02*
X26730677Y-13557610D01*
X26730677Y-13557610D02*
X26711629Y-13567134D01*
X26711629Y-13567134D02*
X26683058Y-13567134D01*
X26806868Y-13433800D02*
X26883058Y-13433800D01*
X26835439Y-13367134D02*
X26835439Y-13538562D01*
X26835439Y-13538562D02*
X26844963Y-13557610D01*
X26844963Y-13557610D02*
X26864010Y-13567134D01*
X26864010Y-13567134D02*
X26883058Y-13567134D01*
X26940201Y-13557610D02*
X26959248Y-13567134D01*
X26959248Y-13567134D02*
X26997344Y-13567134D01*
X26997344Y-13567134D02*
X27016391Y-13557610D01*
X27016391Y-13557610D02*
X27025915Y-13538562D01*
X27025915Y-13538562D02*
X27025915Y-13529039D01*
X27025915Y-13529039D02*
X27016391Y-13509991D01*
X27016391Y-13509991D02*
X26997344Y-13500467D01*
X26997344Y-13500467D02*
X26968772Y-13500467D01*
X26968772Y-13500467D02*
X26949725Y-13490943D01*
X26949725Y-13490943D02*
X26940201Y-13471896D01*
X26940201Y-13471896D02*
X26940201Y-13462372D01*
X26940201Y-13462372D02*
X26949725Y-13443324D01*
X26949725Y-13443324D02*
X26968772Y-13433800D01*
X26968772Y-13433800D02*
X26997344Y-13433800D01*
X26997344Y-13433800D02*
X27016391Y-13443324D01*
X27092582Y-13643324D02*
X27102106Y-13633800D01*
X27102106Y-13633800D02*
X27121153Y-13605229D01*
X27121153Y-13605229D02*
X27130677Y-13586181D01*
X27130677Y-13586181D02*
X27140201Y-13557610D01*
X27140201Y-13557610D02*
X27149725Y-13509991D01*
X27149725Y-13509991D02*
X27149725Y-13471896D01*
X27149725Y-13471896D02*
X27140201Y-13424277D01*
X27140201Y-13424277D02*
X27130677Y-13395705D01*
X27130677Y-13395705D02*
X27121153Y-13376658D01*
X27121153Y-13376658D02*
X27102106Y-13348086D01*
X27102106Y-13348086D02*
X27092582Y-13338562D01*
M02*
