%TF.GenerationSoftware,KiCad,Pcbnew,9.0.8-9.0.8~ubuntu24.04.1*%
%TF.CreationDate,2026-04-17T12:05:57+07:00*%
%TF.ProjectId,yohub,796f6875-622e-46b6-9963-61645f706362,rev?*%
%TF.SameCoordinates,Original*%
%TF.FileFunction,Copper,L2,Bot*%
%TF.FilePolarity,Positive*%
%FSLAX46Y46*%
G04 Gerber Fmt 4.6, Leading zero omitted, Abs format (unit mm)*
G04 Created by KiCad (PCBNEW 9.0.8-9.0.8~ubuntu24.04.1) date 2026-04-17 12:05:57*
%MOMM*%
%LPD*%
G01*
G04 APERTURE LIST*
%TA.AperFunction,HeatsinkPad*%
%ADD10O,2.100000X1.000000*%
%TD*%
%TA.AperFunction,HeatsinkPad*%
%ADD11O,1.800000X1.000000*%
%TD*%
%TA.AperFunction,HeatsinkPad*%
%ADD12O,1.000000X2.100000*%
%TD*%
%TA.AperFunction,HeatsinkPad*%
%ADD13O,1.000000X1.800000*%
%TD*%
%TA.AperFunction,HeatsinkPad*%
%ADD14O,2.900000X1.200000*%
%TD*%
%TA.AperFunction,ViaPad*%
%ADD15C,0.600000*%
%TD*%
%TA.AperFunction,Conductor*%
%ADD16C,0.299999*%
%TD*%
G04 APERTURE END LIST*
D10*
%TO.P,J1,S1,SHIELD*%
%TO.N,GND*%
X237794197Y-67919788D03*
D11*
X241974197Y-67919788D03*
D10*
X237794197Y-59279788D03*
D11*
X241974197Y-59279788D03*
%TD*%
D12*
%TO.P,J4,S1,SHIELD*%
%TO.N,GND*%
X221579247Y-118994593D03*
D13*
X221579247Y-123174593D03*
D12*
X230219247Y-118994593D03*
D13*
X230219247Y-123174593D03*
%TD*%
D14*
%TO.P,J3,5,Shield*%
%TO.N,GND*%
X214149298Y-88899679D03*
X214149298Y-101699679D03*
%TD*%
%TO.P,J5,5,Shield*%
%TO.N,GND*%
X214099274Y-70399744D03*
X214099274Y-83199744D03*
%TD*%
%TO.P,J2,5,Shield*%
%TO.N,GND*%
X214039295Y-107299621D03*
X214039295Y-120099621D03*
%TD*%
D15*
%TO.N,+5V*%
X227999240Y-113137120D03*
X238199206Y-69899767D03*
X230399232Y-59699801D03*
X225299249Y-73499755D03*
X227099243Y-93299689D03*
X221699261Y-115499615D03*
X227099243Y-103199656D03*
X221699261Y-112199626D03*
X224099253Y-113137120D03*
X236399212Y-79199736D03*
X233699221Y-67499775D03*
X238499205Y-79366370D03*
%TO.N,GND*%
X236099213Y-80699731D03*
X233399222Y-69599768D03*
%TD*%
D16*
%TO.N,+5V*%
X230399232Y-59699801D02*
X230399232Y-65999780D01*
X224099253Y-113137120D02*
X227999240Y-113137120D01*
X221699261Y-115499615D02*
X221699261Y-112199626D01*
X236399212Y-79199736D02*
X236099213Y-79499735D01*
X238199206Y-78299740D02*
X238199206Y-69899767D01*
X231899227Y-67499775D02*
X233699221Y-67499775D01*
X225299249Y-75299749D02*
X225299249Y-73499755D01*
X236099213Y-79499735D02*
X229499235Y-79499735D01*
X230399232Y-65999780D02*
X231899227Y-67499775D01*
X229499235Y-79499735D02*
X225299249Y-75299749D01*
X238499205Y-78599739D02*
X238199206Y-78299740D01*
X238499205Y-79366370D02*
X238499205Y-78599739D01*
X227099243Y-103199656D02*
X227099243Y-93299689D01*
%TD*%
%TA.AperFunction,Conductor*%
%TO.N,GND*%
G36*
X243808267Y-57213277D02*
G01*
X243856769Y-57220964D01*
X243893655Y-57232952D01*
X243928591Y-57250755D01*
X243930496Y-57252139D01*
X243931718Y-57252405D01*
X243959972Y-57273556D01*
X243987696Y-57301280D01*
X244010497Y-57332661D01*
X244028299Y-57367595D01*
X244040289Y-57404486D01*
X244047972Y-57452965D01*
X244049500Y-57472374D01*
X244049500Y-112155072D01*
X244029815Y-112222111D01*
X244013181Y-112242753D01*
X231101252Y-125154682D01*
X231039929Y-125188167D01*
X231013571Y-125191001D01*
X206068325Y-125191001D01*
X206052140Y-125189940D01*
X206038672Y-125188167D01*
X205958686Y-125177636D01*
X205927419Y-125169258D01*
X205847905Y-125136322D01*
X205819873Y-125120138D01*
X205763836Y-125077140D01*
X205751591Y-125067744D01*
X205728705Y-125044858D01*
X205676311Y-124976576D01*
X205660127Y-124948544D01*
X205627191Y-124869030D01*
X205618813Y-124837762D01*
X205606511Y-124744317D01*
X205605450Y-124728132D01*
X205605450Y-119418827D01*
X222433747Y-119418827D01*
X222433747Y-119570358D01*
X222472966Y-119716729D01*
X222510849Y-119782343D01*
X222548732Y-119847958D01*
X222655882Y-119955108D01*
X222787112Y-120030874D01*
X222933481Y-120070093D01*
X222933483Y-120070093D01*
X223085011Y-120070093D01*
X223085013Y-120070093D01*
X223231382Y-120030874D01*
X223362612Y-119955108D01*
X223469762Y-119847958D01*
X223545528Y-119716728D01*
X223584747Y-119570359D01*
X223584747Y-119418827D01*
X228213747Y-119418827D01*
X228213747Y-119570358D01*
X228252966Y-119716729D01*
X228290849Y-119782343D01*
X228328732Y-119847958D01*
X228435882Y-119955108D01*
X228567112Y-120030874D01*
X228713481Y-120070093D01*
X228713483Y-120070093D01*
X228865011Y-120070093D01*
X228865013Y-120070093D01*
X229011382Y-120030874D01*
X229142612Y-119955108D01*
X229249762Y-119847958D01*
X229325528Y-119716728D01*
X229364747Y-119570359D01*
X229364747Y-119418827D01*
X229325528Y-119272458D01*
X229249762Y-119141228D01*
X229142612Y-119034078D01*
X229076997Y-118996195D01*
X229011383Y-118958312D01*
X228938197Y-118938702D01*
X228865013Y-118919093D01*
X228713481Y-118919093D01*
X228567110Y-118958312D01*
X228435882Y-119034078D01*
X228435879Y-119034080D01*
X228328734Y-119141225D01*
X228328732Y-119141228D01*
X228252966Y-119272456D01*
X228213747Y-119418827D01*
X223584747Y-119418827D01*
X223545528Y-119272458D01*
X223469762Y-119141228D01*
X223362612Y-119034078D01*
X223296997Y-118996195D01*
X223231383Y-118958312D01*
X223158197Y-118938702D01*
X223085013Y-118919093D01*
X222933481Y-118919093D01*
X222787110Y-118958312D01*
X222655882Y-119034078D01*
X222655879Y-119034080D01*
X222548734Y-119141225D01*
X222548732Y-119141228D01*
X222472966Y-119272456D01*
X222433747Y-119418827D01*
X205605450Y-119418827D01*
X205605450Y-112120779D01*
X220898761Y-112120779D01*
X220898761Y-112278472D01*
X220929522Y-112433115D01*
X220929525Y-112433127D01*
X220989863Y-112578798D01*
X220989871Y-112578813D01*
X221027863Y-112635670D01*
X221048742Y-112702347D01*
X221048762Y-112704562D01*
X221048762Y-114994678D01*
X221029077Y-115061717D01*
X221027864Y-115063568D01*
X220989873Y-115120425D01*
X220989863Y-115120443D01*
X220929525Y-115266113D01*
X220929522Y-115266125D01*
X220898761Y-115420768D01*
X220898761Y-115578461D01*
X220929522Y-115733104D01*
X220929525Y-115733116D01*
X220989863Y-115878787D01*
X220989870Y-115878800D01*
X221077471Y-116009903D01*
X221077474Y-116009907D01*
X221188968Y-116121401D01*
X221188972Y-116121404D01*
X221320075Y-116209005D01*
X221320088Y-116209012D01*
X221465759Y-116269350D01*
X221465764Y-116269352D01*
X221620414Y-116300114D01*
X221620417Y-116300115D01*
X221620419Y-116300115D01*
X221778105Y-116300115D01*
X221778106Y-116300114D01*
X221932758Y-116269352D01*
X222078440Y-116209009D01*
X222209550Y-116121404D01*
X222321050Y-116009904D01*
X222408655Y-115878794D01*
X222468998Y-115733112D01*
X222499761Y-115578457D01*
X222499761Y-115420773D01*
X222499761Y-115420770D01*
X222499760Y-115420768D01*
X222468999Y-115266125D01*
X222468998Y-115266118D01*
X222408655Y-115120436D01*
X222408648Y-115120425D01*
X222370658Y-115063568D01*
X222349780Y-114996891D01*
X222349760Y-114994678D01*
X222349760Y-113058273D01*
X223298753Y-113058273D01*
X223298753Y-113215966D01*
X223329514Y-113370609D01*
X223329517Y-113370621D01*
X223389855Y-113516292D01*
X223389862Y-113516305D01*
X223477463Y-113647408D01*
X223477466Y-113647412D01*
X223588960Y-113758906D01*
X223588964Y-113758909D01*
X223720067Y-113846510D01*
X223720080Y-113846517D01*
X223865751Y-113906855D01*
X223865756Y-113906857D01*
X224020406Y-113937619D01*
X224020409Y-113937620D01*
X224020411Y-113937620D01*
X224178097Y-113937620D01*
X224178098Y-113937619D01*
X224332750Y-113906857D01*
X224478432Y-113846514D01*
X224478437Y-113846510D01*
X224478440Y-113846509D01*
X224535297Y-113808518D01*
X224601974Y-113787639D01*
X224604189Y-113787619D01*
X227494304Y-113787619D01*
X227561343Y-113807304D01*
X227563196Y-113808518D01*
X227620052Y-113846509D01*
X227620067Y-113846517D01*
X227765738Y-113906855D01*
X227765743Y-113906857D01*
X227920393Y-113937619D01*
X227920396Y-113937620D01*
X227920398Y-113937620D01*
X228078084Y-113937620D01*
X228078085Y-113937619D01*
X228232737Y-113906857D01*
X228378419Y-113846514D01*
X228509529Y-113758909D01*
X228621029Y-113647409D01*
X228708634Y-113516299D01*
X228768977Y-113370617D01*
X228799740Y-113215962D01*
X228799740Y-113058278D01*
X228799740Y-113058275D01*
X228799739Y-113058273D01*
X228768978Y-112903630D01*
X228768977Y-112903623D01*
X228768975Y-112903618D01*
X228708637Y-112757947D01*
X228708630Y-112757934D01*
X228621029Y-112626831D01*
X228621026Y-112626827D01*
X228509532Y-112515333D01*
X228509528Y-112515330D01*
X228434704Y-112465334D01*
X228378425Y-112427729D01*
X228378412Y-112427722D01*
X228239923Y-112370359D01*
X233379449Y-112370359D01*
X233379449Y-112502143D01*
X233382983Y-112515331D01*
X233413557Y-112629438D01*
X233418225Y-112637523D01*
X233479449Y-112743565D01*
X236454449Y-115718565D01*
X236547635Y-115811751D01*
X236661763Y-115877643D01*
X236789056Y-115911751D01*
X236789057Y-115911751D01*
X236789058Y-115911751D01*
X236920839Y-115911751D01*
X236920841Y-115911751D01*
X237048135Y-115877643D01*
X237162263Y-115811751D01*
X242380449Y-110593565D01*
X242422220Y-110521214D01*
X242422222Y-110521212D01*
X242446340Y-110479439D01*
X242446340Y-110479438D01*
X242446341Y-110479437D01*
X242480449Y-110352143D01*
X242480449Y-110220358D01*
X242446341Y-110093065D01*
X242380449Y-109978936D01*
X242287264Y-109885751D01*
X242287263Y-109885750D01*
X242282933Y-109881420D01*
X242282922Y-109881410D01*
X239412519Y-107011007D01*
X239412517Y-107011004D01*
X239312265Y-106910752D01*
X239312260Y-106910748D01*
X239198137Y-106844860D01*
X239198136Y-106844859D01*
X239198135Y-106844859D01*
X239070842Y-106810751D01*
X239070841Y-106810751D01*
X238939057Y-106810751D01*
X238811761Y-106844859D01*
X238697635Y-106910751D01*
X238697632Y-106910753D01*
X233479451Y-112128934D01*
X233479449Y-112128937D01*
X233413557Y-112243063D01*
X233388489Y-112336620D01*
X233379449Y-112370359D01*
X228239923Y-112370359D01*
X228232741Y-112367384D01*
X228232729Y-112367381D01*
X228078085Y-112336620D01*
X228078082Y-112336620D01*
X227920398Y-112336620D01*
X227920395Y-112336620D01*
X227765750Y-112367381D01*
X227765738Y-112367384D01*
X227620067Y-112427722D01*
X227620052Y-112427730D01*
X227563196Y-112465722D01*
X227496519Y-112486601D01*
X227494304Y-112486621D01*
X224604189Y-112486621D01*
X224537150Y-112466936D01*
X224535297Y-112465722D01*
X224478440Y-112427730D01*
X224478425Y-112427722D01*
X224332754Y-112367384D01*
X224332742Y-112367381D01*
X224178098Y-112336620D01*
X224178095Y-112336620D01*
X224020411Y-112336620D01*
X224020408Y-112336620D01*
X223865763Y-112367381D01*
X223865751Y-112367384D01*
X223720080Y-112427722D01*
X223720067Y-112427729D01*
X223588964Y-112515330D01*
X223588960Y-112515333D01*
X223477466Y-112626827D01*
X223477463Y-112626831D01*
X223389862Y-112757934D01*
X223389855Y-112757947D01*
X223329517Y-112903618D01*
X223329514Y-112903630D01*
X223298753Y-113058273D01*
X222349760Y-113058273D01*
X222349760Y-112704562D01*
X222369445Y-112637523D01*
X222370659Y-112635670D01*
X222408650Y-112578813D01*
X222408651Y-112578810D01*
X222408655Y-112578805D01*
X222468998Y-112433123D01*
X222499761Y-112278468D01*
X222499761Y-112120784D01*
X222499761Y-112120781D01*
X222499760Y-112120779D01*
X222468999Y-111966136D01*
X222468998Y-111966129D01*
X222468996Y-111966124D01*
X222408658Y-111820453D01*
X222408651Y-111820440D01*
X222321050Y-111689337D01*
X222321047Y-111689333D01*
X222209553Y-111577839D01*
X222209549Y-111577836D01*
X222078446Y-111490235D01*
X222078433Y-111490228D01*
X221932762Y-111429890D01*
X221932750Y-111429887D01*
X221778106Y-111399126D01*
X221778103Y-111399126D01*
X221620419Y-111399126D01*
X221620416Y-111399126D01*
X221465771Y-111429887D01*
X221465759Y-111429890D01*
X221320088Y-111490228D01*
X221320075Y-111490235D01*
X221188972Y-111577836D01*
X221188968Y-111577839D01*
X221077474Y-111689333D01*
X221077471Y-111689337D01*
X220989870Y-111820440D01*
X220989863Y-111820453D01*
X220929525Y-111966124D01*
X220929522Y-111966136D01*
X220898761Y-112120779D01*
X205605450Y-112120779D01*
X205605450Y-102173692D01*
X221598771Y-102173692D01*
X221598771Y-102425625D01*
X221638180Y-102674441D01*
X221638180Y-102674444D01*
X221716026Y-102914029D01*
X221821386Y-103120809D01*
X221830398Y-103138496D01*
X221978474Y-103342305D01*
X222156610Y-103520441D01*
X222360419Y-103668517D01*
X222584883Y-103782887D01*
X222584885Y-103782888D01*
X222808361Y-103855499D01*
X222824475Y-103860735D01*
X222923648Y-103876442D01*
X223073290Y-103900144D01*
X223073295Y-103900144D01*
X223325222Y-103900144D01*
X223445845Y-103881038D01*
X223574037Y-103860735D01*
X223574040Y-103860734D01*
X223574041Y-103860734D01*
X223813626Y-103782888D01*
X223813626Y-103782887D01*
X223813629Y-103782887D01*
X224038093Y-103668517D01*
X224241902Y-103520441D01*
X224420038Y-103342305D01*
X224568114Y-103138496D01*
X224682484Y-102914032D01*
X224688988Y-102894015D01*
X224760331Y-102674444D01*
X224760331Y-102674443D01*
X224760332Y-102674440D01*
X224783356Y-102529072D01*
X224799741Y-102425625D01*
X224799741Y-102173692D01*
X224761890Y-101934716D01*
X224760332Y-101924878D01*
X224760331Y-101924874D01*
X224760331Y-101924873D01*
X224682485Y-101685288D01*
X224568113Y-101460821D01*
X224420038Y-101257013D01*
X224241902Y-101078877D01*
X224038093Y-100930801D01*
X223813626Y-100816429D01*
X223574039Y-100738583D01*
X223325222Y-100699174D01*
X223325217Y-100699174D01*
X223073295Y-100699174D01*
X223073290Y-100699174D01*
X222824473Y-100738583D01*
X222824470Y-100738583D01*
X222584885Y-100816429D01*
X222360418Y-100930801D01*
X222244138Y-101015283D01*
X222156610Y-101078877D01*
X222156608Y-101078879D01*
X222156607Y-101078879D01*
X221978476Y-101257010D01*
X221978476Y-101257011D01*
X221978474Y-101257013D01*
X221914880Y-101344541D01*
X221830398Y-101460821D01*
X221716026Y-101685288D01*
X221638180Y-101924873D01*
X221638180Y-101924876D01*
X221598771Y-102173692D01*
X205605450Y-102173692D01*
X205605450Y-93220842D01*
X226298743Y-93220842D01*
X226298743Y-93378535D01*
X226329504Y-93533178D01*
X226329507Y-93533190D01*
X226389845Y-93678861D01*
X226389853Y-93678876D01*
X226427845Y-93735733D01*
X226448724Y-93802410D01*
X226448744Y-93804625D01*
X226448744Y-102694719D01*
X226429059Y-102761758D01*
X226427846Y-102763609D01*
X226389855Y-102820466D01*
X226389845Y-102820484D01*
X226329507Y-102966154D01*
X226329504Y-102966166D01*
X226298743Y-103120809D01*
X226298743Y-103278502D01*
X226329504Y-103433145D01*
X226329507Y-103433157D01*
X226389845Y-103578828D01*
X226389852Y-103578841D01*
X226477453Y-103709944D01*
X226477456Y-103709948D01*
X226588950Y-103821442D01*
X226588954Y-103821445D01*
X226720057Y-103909046D01*
X226720070Y-103909053D01*
X226865741Y-103969391D01*
X226865746Y-103969393D01*
X227020396Y-104000155D01*
X227020399Y-104000156D01*
X227020401Y-104000156D01*
X227178087Y-104000156D01*
X227178088Y-104000155D01*
X227332740Y-103969393D01*
X227478422Y-103909050D01*
X227609532Y-103821445D01*
X227721032Y-103709945D01*
X227808637Y-103578835D01*
X227868980Y-103433153D01*
X227899743Y-103278498D01*
X227899743Y-103120814D01*
X227899743Y-103120811D01*
X227899742Y-103120809D01*
X227868981Y-102966166D01*
X227868980Y-102966159D01*
X227868978Y-102966154D01*
X227808640Y-102820484D01*
X227808639Y-102820483D01*
X227808637Y-102820477D01*
X227808630Y-102820466D01*
X227770640Y-102763609D01*
X227749762Y-102696932D01*
X227749742Y-102694719D01*
X227749742Y-93804625D01*
X227769427Y-93737586D01*
X227770641Y-93735733D01*
X227808632Y-93678876D01*
X227808633Y-93678873D01*
X227808637Y-93678868D01*
X227868980Y-93533186D01*
X227899743Y-93378531D01*
X227899743Y-93220847D01*
X227899743Y-93220844D01*
X227899742Y-93220842D01*
X227868981Y-93066199D01*
X227868980Y-93066192D01*
X227868978Y-93066187D01*
X227808640Y-92920516D01*
X227808633Y-92920503D01*
X227721032Y-92789400D01*
X227721029Y-92789396D01*
X227609535Y-92677902D01*
X227609531Y-92677899D01*
X227478428Y-92590298D01*
X227478415Y-92590291D01*
X227332744Y-92529953D01*
X227332732Y-92529950D01*
X227178088Y-92499189D01*
X227178085Y-92499189D01*
X227020401Y-92499189D01*
X227020398Y-92499189D01*
X226865753Y-92529950D01*
X226865741Y-92529953D01*
X226720070Y-92590291D01*
X226720057Y-92590298D01*
X226588954Y-92677899D01*
X226588950Y-92677902D01*
X226477456Y-92789396D01*
X226477453Y-92789400D01*
X226389852Y-92920503D01*
X226389845Y-92920516D01*
X226329507Y-93066187D01*
X226329504Y-93066199D01*
X226298743Y-93220842D01*
X205605450Y-93220842D01*
X205605450Y-80273765D01*
X221598771Y-80273765D01*
X221598771Y-80525698D01*
X221638180Y-80774514D01*
X221638180Y-80774517D01*
X221716026Y-81014102D01*
X221716028Y-81014105D01*
X221830398Y-81238569D01*
X221978474Y-81442378D01*
X222156610Y-81620514D01*
X222360419Y-81768590D01*
X222560152Y-81870359D01*
X222584885Y-81882961D01*
X222808361Y-81955572D01*
X222824475Y-81960808D01*
X222923648Y-81976515D01*
X223073290Y-82000217D01*
X223073295Y-82000217D01*
X223325222Y-82000217D01*
X223445845Y-81981111D01*
X223574037Y-81960808D01*
X223574040Y-81960807D01*
X223574041Y-81960807D01*
X223813626Y-81882961D01*
X223813626Y-81882960D01*
X223813629Y-81882960D01*
X224038093Y-81768590D01*
X224241902Y-81620514D01*
X224420038Y-81442378D01*
X224568114Y-81238569D01*
X224682484Y-81014105D01*
X224688988Y-80994088D01*
X224760331Y-80774517D01*
X224760331Y-80774516D01*
X224760332Y-80774513D01*
X224783356Y-80629145D01*
X224799741Y-80525698D01*
X224799741Y-80273765D01*
X224768449Y-80076200D01*
X224760332Y-80024951D01*
X224760331Y-80024947D01*
X224760331Y-80024946D01*
X224682485Y-79785361D01*
X224587967Y-79599859D01*
X224568114Y-79560895D01*
X224420038Y-79357086D01*
X224241902Y-79178950D01*
X224038093Y-79030874D01*
X223952374Y-78987198D01*
X223813626Y-78916502D01*
X223574039Y-78838656D01*
X223325222Y-78799247D01*
X223325217Y-78799247D01*
X223073295Y-78799247D01*
X223073290Y-78799247D01*
X222824473Y-78838656D01*
X222824470Y-78838656D01*
X222584885Y-78916502D01*
X222360418Y-79030874D01*
X222244138Y-79115356D01*
X222156610Y-79178950D01*
X222156608Y-79178952D01*
X222156607Y-79178952D01*
X221978476Y-79357083D01*
X221978476Y-79357084D01*
X221978474Y-79357086D01*
X221923156Y-79433225D01*
X221830398Y-79560894D01*
X221716026Y-79785361D01*
X221638180Y-80024946D01*
X221638180Y-80024949D01*
X221598771Y-80273765D01*
X205605450Y-80273765D01*
X205605450Y-73420908D01*
X224498749Y-73420908D01*
X224498749Y-73578601D01*
X224529510Y-73733244D01*
X224529513Y-73733256D01*
X224589851Y-73878927D01*
X224589859Y-73878942D01*
X224627851Y-73935799D01*
X224648730Y-74002476D01*
X224648750Y-74004691D01*
X224648750Y-75235681D01*
X224648750Y-75363817D01*
X224648750Y-75363819D01*
X224648749Y-75363819D01*
X224673747Y-75489486D01*
X224673749Y-75489492D01*
X224722783Y-75607872D01*
X224722787Y-75607879D01*
X224793976Y-75714422D01*
X224793977Y-75714423D01*
X227058486Y-77978931D01*
X229084566Y-80005011D01*
X229129133Y-80034789D01*
X229191108Y-80076199D01*
X229309492Y-80125235D01*
X229309496Y-80125235D01*
X229309497Y-80125236D01*
X229435163Y-80150234D01*
X229435166Y-80150234D01*
X236163284Y-80150234D01*
X236247826Y-80133416D01*
X236288956Y-80125235D01*
X236407340Y-80076199D01*
X236469315Y-80034789D01*
X236513882Y-80005011D01*
X236513883Y-80005009D01*
X236518738Y-80001766D01*
X236563434Y-79983252D01*
X236632709Y-79969473D01*
X236778391Y-79909130D01*
X236909501Y-79821525D01*
X237021001Y-79710025D01*
X237108606Y-79578915D01*
X237116071Y-79560894D01*
X237122279Y-79545902D01*
X237168949Y-79433233D01*
X237199712Y-79278578D01*
X237199712Y-79120894D01*
X237199712Y-79120891D01*
X237199711Y-79120889D01*
X237173118Y-78987198D01*
X237168949Y-78966239D01*
X237148348Y-78916504D01*
X237108609Y-78820563D01*
X237108602Y-78820550D01*
X237021001Y-78689447D01*
X237020998Y-78689443D01*
X236909504Y-78577949D01*
X236909500Y-78577946D01*
X236778397Y-78490345D01*
X236778384Y-78490338D01*
X236632713Y-78430000D01*
X236632701Y-78429997D01*
X236478057Y-78399236D01*
X236478054Y-78399236D01*
X236320370Y-78399236D01*
X236320367Y-78399236D01*
X236165722Y-78429997D01*
X236165710Y-78430000D01*
X236020039Y-78490338D01*
X236020026Y-78490345D01*
X235888923Y-78577946D01*
X235888919Y-78577949D01*
X235777422Y-78689446D01*
X235707478Y-78794127D01*
X235653866Y-78838932D01*
X235604376Y-78849236D01*
X229820043Y-78849236D01*
X229753004Y-78829551D01*
X229732362Y-78812917D01*
X225986067Y-75066622D01*
X225952582Y-75005299D01*
X225949748Y-74978941D01*
X225949748Y-74004691D01*
X225969433Y-73937652D01*
X225970647Y-73935799D01*
X226008638Y-73878942D01*
X226008639Y-73878939D01*
X226008643Y-73878934D01*
X226068986Y-73733252D01*
X226099749Y-73578597D01*
X226099749Y-73420913D01*
X226099749Y-73420910D01*
X226099748Y-73420908D01*
X226068987Y-73266265D01*
X226068986Y-73266258D01*
X226068984Y-73266253D01*
X226008646Y-73120582D01*
X226008639Y-73120569D01*
X225921038Y-72989466D01*
X225921035Y-72989462D01*
X225809541Y-72877968D01*
X225809537Y-72877965D01*
X225678434Y-72790364D01*
X225678421Y-72790357D01*
X225532750Y-72730019D01*
X225532738Y-72730016D01*
X225378094Y-72699255D01*
X225378091Y-72699255D01*
X225220407Y-72699255D01*
X225220404Y-72699255D01*
X225065759Y-72730016D01*
X225065747Y-72730019D01*
X224920076Y-72790357D01*
X224920063Y-72790364D01*
X224788960Y-72877965D01*
X224788956Y-72877968D01*
X224677462Y-72989462D01*
X224677459Y-72989466D01*
X224589858Y-73120569D01*
X224589851Y-73120582D01*
X224529513Y-73266253D01*
X224529510Y-73266265D01*
X224498749Y-73420908D01*
X205605450Y-73420908D01*
X205605450Y-69820920D01*
X237398706Y-69820920D01*
X237398706Y-69978613D01*
X237429467Y-70133256D01*
X237429470Y-70133268D01*
X237489808Y-70278939D01*
X237489816Y-70278954D01*
X237527808Y-70335811D01*
X237548687Y-70402488D01*
X237548707Y-70404703D01*
X237548707Y-78363809D01*
X237548707Y-78363811D01*
X237548706Y-78363811D01*
X237573704Y-78489477D01*
X237573706Y-78489483D01*
X237610349Y-78577949D01*
X237622742Y-78607867D01*
X237693930Y-78714409D01*
X237693931Y-78714410D01*
X237693932Y-78714411D01*
X237788709Y-78809187D01*
X237822194Y-78870510D01*
X237817210Y-78940202D01*
X237804132Y-78965758D01*
X237789812Y-78987189D01*
X237789807Y-78987198D01*
X237729469Y-79132868D01*
X237729466Y-79132880D01*
X237698705Y-79287523D01*
X237698705Y-79445216D01*
X237729466Y-79599859D01*
X237729469Y-79599871D01*
X237789807Y-79745542D01*
X237789814Y-79745555D01*
X237877415Y-79876658D01*
X237877418Y-79876662D01*
X237988912Y-79988156D01*
X237988916Y-79988159D01*
X238120019Y-80075760D01*
X238120032Y-80075767D01*
X238239458Y-80125234D01*
X238265708Y-80136107D01*
X238420358Y-80166869D01*
X238420361Y-80166870D01*
X238420363Y-80166870D01*
X238578049Y-80166870D01*
X238578050Y-80166869D01*
X238732702Y-80136107D01*
X238845371Y-80089437D01*
X238878377Y-80075767D01*
X238878377Y-80075766D01*
X238878384Y-80075764D01*
X239009494Y-79988159D01*
X239120994Y-79876659D01*
X239208599Y-79745549D01*
X239268942Y-79599867D01*
X239299705Y-79445212D01*
X239299705Y-79287528D01*
X239299705Y-79287525D01*
X239299704Y-79287523D01*
X239268942Y-79132873D01*
X239208599Y-78987191D01*
X239208592Y-78987180D01*
X239170602Y-78930323D01*
X239149724Y-78863646D01*
X239149704Y-78861433D01*
X239149704Y-78535669D01*
X239145556Y-78514820D01*
X239145556Y-78514816D01*
X239124707Y-78410003D01*
X239124706Y-78409996D01*
X239077998Y-78297237D01*
X239076350Y-78292631D01*
X239004483Y-78185074D01*
X239004482Y-78185073D01*
X239004480Y-78185070D01*
X238913874Y-78094464D01*
X238913865Y-78094455D01*
X238886022Y-78066611D01*
X238852538Y-78005287D01*
X238849705Y-77978931D01*
X238849705Y-70404703D01*
X238869390Y-70337664D01*
X238870604Y-70335811D01*
X238908595Y-70278954D01*
X238908596Y-70278951D01*
X238908600Y-70278946D01*
X238968943Y-70133264D01*
X238999706Y-69978609D01*
X238999706Y-69820925D01*
X238999706Y-69820922D01*
X238999705Y-69820920D01*
X238968944Y-69666277D01*
X238968943Y-69666270D01*
X238910300Y-69524691D01*
X238908603Y-69520594D01*
X238908596Y-69520581D01*
X238820995Y-69389478D01*
X238820992Y-69389474D01*
X238709498Y-69277980D01*
X238709494Y-69277977D01*
X238578391Y-69190376D01*
X238578378Y-69190369D01*
X238432707Y-69130031D01*
X238432695Y-69130028D01*
X238278051Y-69099267D01*
X238278048Y-69099267D01*
X238120364Y-69099267D01*
X238120361Y-69099267D01*
X237965716Y-69130028D01*
X237965704Y-69130031D01*
X237820033Y-69190369D01*
X237820020Y-69190376D01*
X237688917Y-69277977D01*
X237688913Y-69277980D01*
X237577419Y-69389474D01*
X237577416Y-69389478D01*
X237489815Y-69520581D01*
X237489808Y-69520594D01*
X237429470Y-69666265D01*
X237429467Y-69666277D01*
X237398706Y-69820920D01*
X205605450Y-69820920D01*
X205605450Y-69460494D01*
X205605499Y-69457016D01*
X205615182Y-69111887D01*
X205624618Y-68775561D01*
X205625006Y-68768652D01*
X205682166Y-68090996D01*
X205682938Y-68084148D01*
X205778004Y-67410764D01*
X205779161Y-67403953D01*
X205911833Y-66736967D01*
X205913365Y-66730249D01*
X206083236Y-66071717D01*
X206085147Y-66065085D01*
X206291663Y-65417148D01*
X206293942Y-65410634D01*
X206536472Y-64775274D01*
X206539111Y-64768905D01*
X206816878Y-64148155D01*
X206819873Y-64141937D01*
X206828274Y-64125676D01*
X210107288Y-64125676D01*
X210107288Y-64474323D01*
X210141460Y-64821290D01*
X210141463Y-64821307D01*
X210209475Y-65163234D01*
X210209478Y-65163245D01*
X210209480Y-65163254D01*
X210209481Y-65163255D01*
X210310690Y-65496895D01*
X210422427Y-65766653D01*
X210444115Y-65819011D01*
X210444117Y-65819016D01*
X210608461Y-66126481D01*
X210608478Y-66126509D01*
X210802166Y-66416386D01*
X210802170Y-66416391D01*
X211023356Y-66685906D01*
X211269881Y-66932431D01*
X211539396Y-67153617D01*
X211539401Y-67153621D01*
X211829278Y-67347309D01*
X211829283Y-67347312D01*
X211829295Y-67347320D01*
X211829304Y-67347324D01*
X211829306Y-67347326D01*
X212136771Y-67511670D01*
X212136773Y-67511670D01*
X212136779Y-67511674D01*
X212458893Y-67645098D01*
X212792533Y-67746307D01*
X212792539Y-67746308D01*
X212792542Y-67746309D01*
X212792553Y-67746312D01*
X213006970Y-67788961D01*
X213134487Y-67814326D01*
X213481461Y-67848500D01*
X213481464Y-67848500D01*
X213830112Y-67848500D01*
X213830115Y-67848500D01*
X214177089Y-67814326D01*
X214346347Y-67780658D01*
X214519022Y-67746312D01*
X214519033Y-67746309D01*
X214519033Y-67746308D01*
X214519043Y-67746307D01*
X214852683Y-67645098D01*
X215174797Y-67511674D01*
X215482281Y-67347320D01*
X215603577Y-67266273D01*
X215772174Y-67153621D01*
X215772179Y-67153617D01*
X215879809Y-67065287D01*
X216041689Y-66932436D01*
X216288224Y-66685901D01*
X216509407Y-66416388D01*
X216509409Y-66416386D01*
X216703097Y-66126509D01*
X216703108Y-66126493D01*
X216867462Y-65819009D01*
X217000886Y-65496895D01*
X217102095Y-65163255D01*
X217102097Y-65163245D01*
X217102100Y-65163234D01*
X217136446Y-64990559D01*
X217170114Y-64821301D01*
X217204288Y-64474327D01*
X217204288Y-64125673D01*
X217170114Y-63778699D01*
X217121574Y-63534671D01*
X217102100Y-63436765D01*
X217102097Y-63436754D01*
X217102096Y-63436751D01*
X217102095Y-63436745D01*
X217000886Y-63103105D01*
X216867462Y-62780991D01*
X216703108Y-62473507D01*
X216703097Y-62473490D01*
X216509409Y-62183613D01*
X216509405Y-62183608D01*
X216288219Y-61914093D01*
X216041694Y-61667568D01*
X215772179Y-61446382D01*
X215772174Y-61446378D01*
X215482297Y-61252690D01*
X215482269Y-61252673D01*
X215174804Y-61088329D01*
X215174799Y-61088327D01*
X215114021Y-61063152D01*
X215080453Y-61049247D01*
X214852684Y-60954902D01*
X214519033Y-60853690D01*
X214519022Y-60853687D01*
X214177095Y-60785675D01*
X214177078Y-60785672D01*
X213914694Y-60759830D01*
X213830115Y-60751500D01*
X213481461Y-60751500D01*
X213403237Y-60759204D01*
X213134497Y-60785672D01*
X213134480Y-60785675D01*
X212792553Y-60853687D01*
X212792542Y-60853690D01*
X212458891Y-60954902D01*
X212136776Y-61088327D01*
X212136771Y-61088329D01*
X211829306Y-61252673D01*
X211829278Y-61252690D01*
X211539401Y-61446378D01*
X211539396Y-61446382D01*
X211269881Y-61667568D01*
X211023356Y-61914093D01*
X210802170Y-62183608D01*
X210802166Y-62183613D01*
X210608478Y-62473490D01*
X210608461Y-62473518D01*
X210444117Y-62780983D01*
X210444115Y-62780988D01*
X210310690Y-63103103D01*
X210209478Y-63436754D01*
X210209475Y-63436765D01*
X210141463Y-63778692D01*
X210141460Y-63778709D01*
X210107288Y-64125676D01*
X206828274Y-64125676D01*
X207132005Y-63537745D01*
X207135349Y-63531695D01*
X207480869Y-62945954D01*
X207484547Y-62940100D01*
X207862366Y-62374654D01*
X207866369Y-62369013D01*
X208275282Y-61825664D01*
X208279598Y-61820251D01*
X208718353Y-61300659D01*
X208722947Y-61295518D01*
X209190171Y-60801320D01*
X209195018Y-60796473D01*
X209689216Y-60329249D01*
X209694357Y-60324655D01*
X210213949Y-59885900D01*
X210219362Y-59881584D01*
X210565678Y-59620954D01*
X229598732Y-59620954D01*
X229598732Y-59778647D01*
X229629493Y-59933290D01*
X229629496Y-59933302D01*
X229689834Y-60078973D01*
X229689842Y-60078988D01*
X229727834Y-60135845D01*
X229748713Y-60202522D01*
X229748733Y-60204737D01*
X229748733Y-65935712D01*
X229748733Y-66063848D01*
X229748733Y-66063850D01*
X229748732Y-66063850D01*
X229773730Y-66189517D01*
X229773732Y-66189523D01*
X229822766Y-66307903D01*
X229822770Y-66307910D01*
X229893959Y-66414453D01*
X231484553Y-68005047D01*
X231484556Y-68005049D01*
X231484558Y-68005051D01*
X231591100Y-68076239D01*
X231709484Y-68125275D01*
X231709488Y-68125275D01*
X231709489Y-68125276D01*
X231835155Y-68150274D01*
X231835158Y-68150274D01*
X233194285Y-68150274D01*
X233261324Y-68169959D01*
X233263177Y-68171173D01*
X233320033Y-68209164D01*
X233320048Y-68209172D01*
X233465719Y-68269510D01*
X233465724Y-68269512D01*
X233620374Y-68300274D01*
X233620377Y-68300275D01*
X233620379Y-68300275D01*
X233778065Y-68300275D01*
X233778066Y-68300274D01*
X233932718Y-68269512D01*
X234078400Y-68209169D01*
X234209510Y-68121564D01*
X234321010Y-68010064D01*
X234408615Y-67878954D01*
X234468958Y-67733272D01*
X234499721Y-67578617D01*
X234499721Y-67420933D01*
X234499721Y-67420930D01*
X234499720Y-67420928D01*
X234496339Y-67403930D01*
X234468958Y-67266278D01*
X234468956Y-67266273D01*
X234408618Y-67120602D01*
X234408611Y-67120589D01*
X234321010Y-66989486D01*
X234321007Y-66989482D01*
X234209513Y-66877988D01*
X234209509Y-66877985D01*
X234078406Y-66790384D01*
X234078393Y-66790377D01*
X233932722Y-66730039D01*
X233932710Y-66730036D01*
X233778066Y-66699275D01*
X233778063Y-66699275D01*
X233620379Y-66699275D01*
X233620376Y-66699275D01*
X233465731Y-66730036D01*
X233465719Y-66730039D01*
X233320048Y-66790377D01*
X233320033Y-66790385D01*
X233263177Y-66828377D01*
X233196500Y-66849256D01*
X233194285Y-66849276D01*
X232220035Y-66849276D01*
X232152996Y-66829591D01*
X232132354Y-66812957D01*
X231733419Y-66414022D01*
X237718697Y-66414022D01*
X237718697Y-66565553D01*
X237757916Y-66711924D01*
X237778709Y-66747937D01*
X237833682Y-66843153D01*
X237940832Y-66950303D01*
X238072062Y-67026069D01*
X238218431Y-67065288D01*
X238218433Y-67065288D01*
X238369961Y-67065288D01*
X238369963Y-67065288D01*
X238516332Y-67026069D01*
X238647562Y-66950303D01*
X238754712Y-66843153D01*
X238830478Y-66711923D01*
X238869697Y-66565554D01*
X238869697Y-66414022D01*
X238830478Y-66267653D01*
X238754712Y-66136423D01*
X238647562Y-66029273D01*
X238581947Y-65991390D01*
X238516333Y-65953507D01*
X238443147Y-65933897D01*
X238369963Y-65914288D01*
X238218431Y-65914288D01*
X238072060Y-65953507D01*
X237940832Y-66029273D01*
X237940829Y-66029275D01*
X237833684Y-66136420D01*
X237833682Y-66136423D01*
X237757916Y-66267651D01*
X237718697Y-66414022D01*
X231733419Y-66414022D01*
X231086050Y-65766653D01*
X231052565Y-65705330D01*
X231049731Y-65678972D01*
X231049731Y-60634022D01*
X237718697Y-60634022D01*
X237718697Y-60785554D01*
X237722254Y-60798829D01*
X237757916Y-60931924D01*
X237771183Y-60954902D01*
X237833682Y-61063153D01*
X237940832Y-61170303D01*
X238072062Y-61246069D01*
X238218431Y-61285288D01*
X238218433Y-61285288D01*
X238369961Y-61285288D01*
X238369963Y-61285288D01*
X238516332Y-61246069D01*
X238647562Y-61170303D01*
X238754712Y-61063153D01*
X238830478Y-60931923D01*
X238869697Y-60785554D01*
X238869697Y-60634022D01*
X238830478Y-60487653D01*
X238754712Y-60356423D01*
X238647562Y-60249273D01*
X238566587Y-60202522D01*
X238516333Y-60173507D01*
X238382689Y-60137698D01*
X238369963Y-60134288D01*
X238218431Y-60134288D01*
X238072060Y-60173507D01*
X237940832Y-60249273D01*
X237940829Y-60249275D01*
X237833684Y-60356420D01*
X237833682Y-60356423D01*
X237757916Y-60487651D01*
X237718697Y-60634022D01*
X231049731Y-60634022D01*
X231049731Y-60204737D01*
X231069416Y-60137698D01*
X231070630Y-60135845D01*
X231108621Y-60078988D01*
X231108622Y-60078985D01*
X231108626Y-60078980D01*
X231168969Y-59933298D01*
X231199732Y-59778643D01*
X231199732Y-59620959D01*
X231199732Y-59620956D01*
X231199731Y-59620954D01*
X231178812Y-59515790D01*
X231168969Y-59466304D01*
X231168967Y-59466299D01*
X231108629Y-59320628D01*
X231108622Y-59320615D01*
X231021021Y-59189512D01*
X231021018Y-59189508D01*
X230909524Y-59078014D01*
X230909520Y-59078011D01*
X230778417Y-58990410D01*
X230778404Y-58990403D01*
X230632733Y-58930065D01*
X230632721Y-58930062D01*
X230478077Y-58899301D01*
X230478074Y-58899301D01*
X230320390Y-58899301D01*
X230320387Y-58899301D01*
X230165742Y-58930062D01*
X230165730Y-58930065D01*
X230020059Y-58990403D01*
X230020046Y-58990410D01*
X229888943Y-59078011D01*
X229888939Y-59078014D01*
X229777445Y-59189508D01*
X229777442Y-59189512D01*
X229689841Y-59320615D01*
X229689834Y-59320628D01*
X229629496Y-59466299D01*
X229629493Y-59466311D01*
X229598732Y-59620954D01*
X210565678Y-59620954D01*
X210762711Y-59472671D01*
X210768352Y-59468668D01*
X211333798Y-59090849D01*
X211339652Y-59087171D01*
X211925393Y-58741651D01*
X211931443Y-58738307D01*
X212535635Y-58426175D01*
X212541853Y-58423180D01*
X213162603Y-58145413D01*
X213168972Y-58142774D01*
X213804332Y-57900244D01*
X213810846Y-57897965D01*
X214458783Y-57691449D01*
X214465415Y-57689538D01*
X215123947Y-57519667D01*
X215130665Y-57518135D01*
X215797651Y-57385463D01*
X215804462Y-57384306D01*
X216477846Y-57289240D01*
X216484694Y-57288468D01*
X217162350Y-57231308D01*
X217169259Y-57230920D01*
X217850751Y-57211800D01*
X217854229Y-57211751D01*
X217918389Y-57211751D01*
X237664057Y-57211751D01*
X243779818Y-57211751D01*
X243788883Y-57211751D01*
X243808267Y-57213277D01*
G37*
%TD.AperFunction*%
%TD*%
M02*
